<?xml version="1.0" encoding="utf-8"?>
<!-- Generator: Adobe Illustrator 20.0.0, SVG Export Plug-In . SVG Version: 6.00 Build 0)  -->
<svg version="1.1" id="Layer_1" xmlns="http://www.w3.org/2000/svg" xmlns:xlink="http://www.w3.org/1999/xlink" x="0px" y="0px"
	 viewBox="0 0 459.1 552.1" style="enable-background:new 0 0 459.1 552.1;" xml:space="preserve">
<style type="text/css">
	.st0{fill:#DBBC81;}
</style>
<g>
	<path class="st0" d="M13,51.3c-3.2-9.6-3.2-9.6,3.2-20.3c-2.3,1-4,1.7-6.4,2.7C8.9,30,7.4,26.5,7.2,22.9
		c-0.6-10.5,7.3-16.7,17.5-14c5.4,1.4,10.7,3.5,15.9,5.6c2.8,1.1,4.8,0.7,6.5-1.6C52.2,6.3,59,6.4,66.1,8c5.6,1.3,11.1,3.1,16.8,4.2
		c1.9,0.4,4.6-0.2,6-1.4c6.1-5.2,12.6-6.7,20.2-3.7c4.7,1.9,9.6,3.4,14.5,4.8c3.5,1,6.7,0.8,9.6-2.2c5.7-6,12.8-7.1,20.9-4
		c5.7,2.1,11.4,4.5,17.3,5.4c3.1,0.4,7.1-1.4,9.8-3.5c7.6-6,15.3-7.5,23.3-2.4c11.4,7.3,21.7,5.4,32.2-1.6
		c6.9-4.6,14.2-4.9,20.9-0.1c7.7,5.5,15.6,6.1,24,2.7c10.8-4.4,21.3-3.8,31.7,1.1c7.3,3.4,14.3,3,21.4-0.9
		c5.2-2.9,10.8-3.7,15.9,0.1c5.3,4.1,6.4,9.8,5,16.1c-0.4,1.9-0.9,3.9-1.3,5.8c-0.9,4.4,1.9,8.9,6.4,8.7c9-0.4,18.1,2,27.2-1.4
		c2.3-0.9,6.2,0.8,8.6,2.5c5.3,3.7,10.8,5.3,17.2,5.2c11.8-0.2,23.7-0.1,35.5-0.1c6.2,0,9.5,2.5,9.8,7.4c0.5,6.6-2.1,10.2-8.9,10.6
		c-12.8,0.7-25.6,0.9-38.4,0.9c-5.1,0-9.4,1.2-13.5,4.2c-4.7,3.4-9.3,4.9-15.6,2.5c-4.6-1.8-10.4-0.6-15.7-0.3
		c-0.8,0.1-2.1,2.8-2.2,4.3c-0.4,9.6-0.4,19.3-0.8,28.9c-0.9,20.9-2.2,41.8-2.9,62.8c-1,29.9-1.6,59.9-2.5,89.8
		c-0.4,12.6-1.2,25.2-1.5,37.9c-0.1,6,0.9,11.9,0.9,17.9c0,11.9-0.3,23.9-0.6,35.8c-0.3,10-0.8,19.9-1.4,29.9
		c-0.2,4,1.8,5.3,5.4,5.3c3.5,0,7.2-0.4,10.4,0.5c4.3,1.2,8.7,3,12.4,5.5c3.6,2.4,2.4,7.6-1.8,9c-3.6,1.2-7.3,1.9-11,2.9
		c-5,1.3-6,3.9-3.1,8.2c1.9,2.7,3.3,5,1.2,8.5c-0.7,1.2,0.7,4.1,1.8,5.7c6.3,8.7,6.6,18.5,5.5,28.5c-0.4,3.3-2.3,6.4-3.5,9.7
		c1,1.1,2.5,2.4,3.7,4c3.3,4.7,2.8,9.9-1.8,13.1c-3.5,2.4-4.3,5.4-4.4,9.3c-0.5,18.8-1.3,37.6-1.7,56.4c-0.1,4.1-2.3,5.1-5.5,5.6
		c-1.3,0.2-2.7,0.1-4,0.1c-6.9-0.1-9.3-2.1-9.2-8.8c0.1-9.8,0.8-19.6,1.1-29.4c0.1-4,0-7.9,0-12.2c-5.3-0.5-10.7-1.1-16-1.6
		c-4.7-0.4-6.3-3.2-7.8-7.5c-3-9-7-17.7-10.8-27.1c-6.2,2.9-11.3,5.7-16.8,7.7c-5.5,2-11.3,3.5-17.1,4.8c-8.6,2-14.3,8-20.1,13.9
		c-1.2,1.2-0.9,3.7-1.6,5.6c-3.1,8.7-6.5,17.3-9.5,26c-2.5,7.3-4.9,14.6-6.9,22.1c-1.8,6.7-4.7,9.8-13,10.3c-5,0.3-10.2-0.8-15-2.2
		c-4.2-1.2-5.9-5-7.1-9.3c-2.9-10.5-0.6-19.9,3.6-29.7c6.9-15.9,9.2-32.7,7.2-50.1c-0.5-4.1-1.9-5.6-6.2-5.7
		c-7.8-0.1-15.5-0.9-23.3-1.9c-6-0.8-10.4-4.4-13-9.7c-1.6-3.4-4.1-4.2-7.6-4.3c-8.3-0.3-16.6-0.9-24.8-1.8
		c-5.1-0.5-8.4-4.1-11.6-7.8c-1.8-2.1-4.9-3.8-7.7-4.2c-7.2-1.1-14.6-1-21.7-2.4c-3.6-0.7-8-2.9-10-5.8c-3.7-5.2-8.5-5.5-13.8-6
		c-5.9-0.6-11.8-1.4-17.6-2.7c-5.7-1.3-10,0.4-12.5,6c-4.3,9.8-8.7,19.6-12.7,29.5c-1.6,3.9-1.8,8.4-3.3,12.3
		c-0.8,2.2-2.6,5.2-4.4,5.7c-5.2,1.3-10.7,2-16.1,1.9c-5.2-0.1-8.1-4-9.4-8.9C3,446.8,4.8,439.2,9,431.8c5.7-10.3,7.9-21.3,6.3-33.2
		c-1.8-13.1-3.4-26.3-4.1-39.4c-1.7-32.7-2.8-65.4-4-98.1c-0.5-13.5-0.4-26.9-0.8-40.4c-0.3-10.1-1.1-20.2-1.2-30.4
		c0-3.6,1.8-7.3,1.8-10.9C6.5,148.6,5.7,117.8,5,87c-0.2-6.4-0.7-12.9-1.2-19.9c2.4,0.8,4.1,1.4,5.8,1.9c-5.5-6.4-6.2-13-2.9-18.6
		c1.2,5.5,2.6,12.3,4,19.4c-0.4,0.1-1.9,0.5-3.4,0.9c0,0.4,0,0.7,0,1.1c2.7,0.2,5.5,0.3,9.5,0.5c-3.1-6-5.8-11.3-8.5-16.5
		c0.3-0.2,0.6-0.4,0.9-0.6c0.8,0.4,1.6,0.8,2.5,1.1c-0.2,5.9,4.3,9,6.8,12.4c1.3-2.6,2.3-4.8,3.5-7c1.2-2.1,3.8-4.1,3.8-6.1
		C25.8,50.2,24.8,44.6,24,39c-0.5-3.5-2.6-4.3-5.7-2.7c-3.9,2-4.1,6.8-0.5,9.4c0.9,0.6,1.6,1.5,2.4,2.2c-0.3,0.5-0.5,0.9-0.8,1.4
		c-1.9-1.1-3.7-2.1-6-3.5C13.2,48.3,13.1,49.8,13,51.3z M20.1,288.4c0.5-0.5,1.5-1.4,1.4-1.5c-2.4-3.8-4.9-7.5-7.5-11.3
		c-0.3,0.2-0.7,0.4-1,0.5c1.3,3.1,2.7,6.1,4,9.2c-1.4-0.4-2.7-0.9-4.1-1.3c-0.2,0.3-0.3,0.5-0.5,0.8c1.2,1.2,2.3,2.5,3.5,3.8
		c-0.6,1.5-1.2,3-1.6,4.1c5.5,1.4,10.6,2.8,16.8,4.4C26.7,293.5,23.4,290.9,20.1,288.4z M105.1,372.3c8.8-0.1,16.4-12.9,16.6-23.5
		c-0.5,0.6-1,1-1.2,1.6c-2.9,7.7-6.3,14.9-14.1,19.1C105.7,369.9,105.6,371.4,105.1,372.3c-3.9,0.3-8.1-2.7-12.3,1.4
		C97.5,375.1,101.4,375.1,105.1,372.3z M20,346.3c12.4-0.8,21.4-10.5,18.1-19c-2.2,4.5-4.4,9.1-6.7,13.8c-0.3-0.2-0.6-0.3-1-0.5
		c0.1-0.8,0.3-1.6,0.6-3.6c-4.2,3.7-7.6,6.6-10.9,9.5c-1.5-1.3-3-2.6-4.5-3.9c-0.3,0.3-0.6,0.6-0.9,0.9c2.3,3.1,4.6,6.1,7,9.2
		c0.4-0.3,0.9-0.7,1.3-1C22.1,349.8,21,348.1,20,346.3z M71.2,359.1c-2.5,4.1-6.3,5.6-10.9,6.3c-2.7,0.4-5.2,2-7.8,3
		c3.8,0.8,7.1,0.8,10.3,0.8c0.6,0,1.3,0,1.7-0.4c1.7-1.4,3.3-2.8,4.9-4.3c2.4-2.2,4.7-4.4,7.1-6.5c-0.3-0.3-0.6-0.6-0.9-0.9
		c-1.5,0.7-3,1.4-4.6,2.1c9.1-10.5,10.4-13,9.5-19.9c-5,12.5-11.8,21.9-26.7,21.4c1.6,0.8,3.2,1.7,4.6,1.5
		C62.8,361.4,67,360.2,71.2,359.1z M192.6,91.7c2.9,0.7,5.5-0.7,3.3-3.1c-2.2-2.4-6.4-3.8-9.9-4c-3.8-0.3-6.8,2.4-7.8,6.4
		c-0.9,4,1.7,6.5,5.6,5.8c3.3-0.7,6.6-1.4,10.3-2.2C193.6,93.6,193.1,92.7,192.6,91.7L192.6,91.7z M61.1,324.3
		c2.6-3.8,0.1-7.9,0.9-11.5c1.8,0.1,4.1,0.2,6.4,0.3c0.1-0.3,0.1-0.7,0.2-1c-0.9-0.6-1.7-1.2-2.9-1.9c1.3-1,2.1-1.7,3.3-2.6
		c-7.1-3.1-12.9,0.1-19.2,2.9c1.3,1.7,2.8,2.7,4.4,3.7c1.1,0.7,2.2,1.3,3.2,1.9c-3,3.8,2,4.7,2.6,7.1c-2.4-0.5-4.7-1-6.7-1.3
		c-0.4,4.9-0.7,9.2-1,13.4c0.4,0,0.8,0.1,1.2,0.1c0.4-1,0.9-2,2.1-4.6c2.6,4.6,4.6,8,6.7,11.6c0.6-1,1.7-2.4,2.3-4
		C66.6,333.1,64.8,328.5,61.1,324.3z M99.1,333.4c-2.4-0.4-4.9-0.8-7.6-1.2c1.2,3.2,2.2,5.6,3.1,8c-4,1.9-4.4,3.2-1.1,6.3
		c0.4-1,0.8-2,1.1-2.9c5.6,2,5.6,6.6,5.7,12.6c1.8-2.7,3-4.1,3.8-5.8c2.9-6.3,0.2-11.4-3.8-16.1c0.6-0.1,1.8-0.3,1.8-0.3
		c-0.3-3.9-0.7-7.8-1-11.2c3.5,0.2,7.7,0.4,11.8,0.5c0.1-0.6,0.2-1.1,0.3-1.7c-2.4-0.2-4.8-0.4-8-0.7c1.7-1.5,2.7-2.4,4.2-3.8
		c-7.6-1.7-14-0.8-21.5,3.8c2.5,1.5,4.2,2.4,5.9,3.5c1.1,0.7,2.2,1.5,3.3,2.3C94.5,329.9,98.4,331.1,99.1,333.4z M52.1,99.4
		c3.9-0.5,7.7-1,11.6-1.5c0.4-3.6,0.4-3.6-6-11.6c-3.9,0.4-7.4,0.7-11.7,1.1c3.6-7.1,8-7.2,15.1-1c-0.8-5.4-4.8-5.5-8-6
		c-4.9-0.7-7.8,1.5-8,5.7c-0.3,5.5,3.3,4.1,6.7,4.4c1.3,0.1,5.7-1.5,5.3,3.1c-3.7,0.8-7.9-4.2-10.4,0.6c2,1.9,3.8,3.7,5.6,5.4
		c-1-0.7-1.9-1.3-3.6-2.5c1,2.6,1.5,4.2,2.3,6.4c-1.6-0.8-2.6-1.3-4.5-2.3c1.2,3.2,2,5.4,2.8,7.7C54,106.6,53.4,103.1,52.1,99.4z
		 M138.1,112.3c-0.2,1.1-0.5,2.1-0.6,2.8c2,1.1,3.9,2,5.7,3c-0.1,0.4-0.2,0.8-0.3,1.2c-3.2,0-6.4,0-9.6,0c0,0.6-0.1,1.3-0.1,1.9
		c2.1,0.3,4.3,0.5,6.4,1.1c1.4,0.4,3.3-2.3,4.2,0.7c0.7-0.3,2-0.7,2-0.9c-0.2-1.7-0.6-3.4-1-5c-0.5-1.6-1.1-3.2-1.6-4.9
		c1.9-0.2,3.7-0.4,5.6-0.7c1.8-0.3,4.5-0.1,5.1-1.1c3-4.9,4.6-10.1,1.4-15.8c-0.7,2.3-0.9,4.6-1,6.9c-0.4,6-3.3,8.2-8.8,6.2
		c-2.6-1-3.9-0.6-5,1.8c-0.5,1.1-1.6,2-2.4,3c0.8-3.2,1.6-6.5,2.5-10.5c3.2,0.8,5.9,1.5,9.6,2.4c-0.7-3.1-0.9-6.3-2.2-9.1
		c-0.4-0.9-3.4-0.7-5.3-1c-0.1,0.4-0.2,0.9-0.2,1.3c0.8,0.5,1.6,1,2.4,1.5c-0.1,0.4-0.3,0.8-0.4,1.2c-2.4-0.6-4.9-1.3-7.3-1.9
		c-2.9-0.7-5,0.1-5.8,3.2c2.1,0.5,3.8,1,6.9,1.8c-2.9,0.7-4.4,1-6,1.4c1.7,1.4,3.1,2.6,4.5,3.8c-0.3,0.3-0.6,0.7-0.8,1
		c-1.1-0.5-2.2-1-3.8-1.7c0.3,2.1,0.6,3.7,0.8,5.4c-1.1-0.8-2.1-1.5-3.5-2.4c0,2.4,0,4.1,0,7.3C132.7,114.8,135.4,113.6,138.1,112.3
		z M185.7,116.7c0.4-3.2,0.8-6.4,1.1-9.2c0-0.1,0.3,0.5,0.7,1.1c1.6-4.9,3.9-5.2,9.7-1.5c0.6-2.2,1.9-4.5,1.7-6.7
		c-0.3-3-3.6-4-8.2-2.8c1.3,0.9,2.3,1.7,3.1,2.2c-4.7,3.1-10.7-5.5-15.1,1.9c2,0.5,4,1,6,1.5c-8.8,1.6-4.4,6.9-2.8,11.7
		c-1.9-1.3-3.1-2.1-4.7-3.2c0,2.5,0,4.2,0,6.9c3.1-0.8,5.8-1.5,8.5-2.2c-1.7,2.3-3.3,4.7-5.9,8.3c5.3,0.5,9.3,1,13.3,1.2
		c0.4,0,1.4-2.4,1.1-3.3c-0.6-2-1.9-3.7-3.4-6.3c4.6,2.9,7.7,0.9,10.4-1.9c4.1-4.1,5.2-10.9,2.5-19.1c-0.5,3.5-0.8,5.7-1.1,7.9
		c-0.9,8.6-3.3,9.9-11.1,5.9c0.6-0.7,1.2-1.4,2.2-2.6c-2,0-3.2,0-3.1,0C188.8,110.5,187.3,113.6,185.7,116.7z M195.2,369.1
		c-0.1-1.5-0.2-3-0.3-4.4c-4.6,0.5-4.1,0.2-5.1-3.8c-0.6-2.3-3.8-4-6.2-5.5c-1-0.7-2.8-0.1-4.3-0.1c-0.1,0.6-0.3,1.1-0.4,1.7
		c1.2,0.8,2.5,1.7,3.8,2.6c-1.3,0.7-2,1.2-3.2,1.8c1.6,1,2.7,1.7,3,1.9c-1.3,1.8-2.5,3-3.1,4.6c-0.3,0.8,0.8,2,1.7,4.2
		c0.7-2.3,1.1-3.3,1.4-4.4c6.3,3.4,7.6,6.3,5.7,15c1.8-2.3,3.2-3.5,3.9-5c1.3-2.8,2.1-5.8,3.2-8.7c0.5,2.2,1.3,4.3,1.3,6.5
		c-0.1,4.4-7.8,9.7-12.1,9.3c0.7-3.3,1.5-6.6,2.4-10.7c-2.9,0.2-4.7,0.3-7.5,0.5c2.3,2.1,3.6,3.3,5.5,5.1c-1.9,1.8-3.5,3.4-6.2,6.1
		c2,2.3,4.6,5.3,7.1,8.3c0.4-0.3,0.8-0.6,1.2-0.9c-0.8-1.4-1.6-2.9-2.5-4.5c14.1-0.6,24.6-13.1,21-25.4c-1.3,3.4-2.5,6.4-4,10.2
		c-0.2-2.1-0.4-3.4-0.7-5.5c-1.5,2-2.4,3.4-3.8,5.3c0.3-2.9,0.5-5,0.8-7.1c-0.3,0-0.6-0.1-0.9-0.1
		C196.3,366.9,195.7,368,195.2,369.1z M202.1,396.4l-0.2-0.2c7.2-9.3,10.1-16.2,9.4-24c-5.3,15.5-12.4,28.1-32.3,26.5
		c7.9,4.6-1.3,7.8,0.4,11.9c8.6-4.9,21.4-2.4,25.8-15.1C203.9,395.8,203,396.1,202.1,396.4z M237.1,370.3c-1.9,0.1-4.5-0.5-5.6,0.5
		c-2.2,1.8-3,4.6-1.1,7.6c0.5,0.9-0.3,2.5-0.5,4c0.8,0.6,1.8,1.4,2.9,2.3c-4.6,2.2-5.1,4.9-1.5,8.7c0.5-1.4,1-2.6,1.4-3.9
		c7.1,3,8.7,9.3,4.5,13.8c-0.2-2.9-0.4-6.4-0.7-10.8c-4.6,2.9-8.5,4.2-6.8,9.4c1.8,0.3,3.4,0.5,6.3,1c-2.2,1.4-3.3,2.1-4.8,3
		c9.8,1.2,17.6-9.3,16.7-22.2c-1,2.1-1.8,3.5-2.4,4.8c1.4-8.6-10-8.7-11.4-16.3c2.7,2.5,4.9,4.5,7.1,6.5c0.3-0.2,0.7-0.5,1-0.7
		c-0.3-1.2-0.6-2.4-0.9-3.5c0.9,0.2,1.8,0.5,3.6,1c-1.6-2.4-2.6-3.9-4.3-6.5c2.8,2,4.4,3.2,6.1,4.4c0.5-0.6,1.1-1.2,1.6-1.8
		c-3-2-6.1-4-9.1-5.9c0.4-0.3,0.8-0.5,1.2-0.8c4.6,0,9.2,0,13.7,0c0.1-0.5,0.2-0.9,0.3-1.4c-2.4-0.5-4.8-1-7.2-1.5
		c0-0.4,0-0.8,0-1.1c1.5-0.6,3.1-1.2,4.7-1.9c-2.8-5.7-7.2-7.7-13.1-7.4c-4.8,0.2-7.1,1.6-9,5.8c12.1-3.9,13.8-3.9,17.4-0.7
		c-6,1.2-12.5,2.5-18.7,3.8c-0.6,4.3-0.1,6.4,4,6.7C234,366.9,235.5,369.1,237.1,370.3z M240,533.4c-0.9,2.2-1.8,4.3-2.9,7
		c6.4-3.6,7.8-6.2,6.5-12.4c-1,1.4-1.9,2.5-2.7,3.7c0.1-3.1-2.1-2.4-3.8-2.1c-1.9,0.2-3.7,0.7-5.5,1c-0.1-0.3-0.2-0.7-0.4-1
		c2.2-1.1,4.4-2.2,6.9-3.6c-1.5-0.4-2.5-0.7-4.2-1.2c1.7-0.9,2.7-1.4,4.1-2.1c-1.1-0.7-1.8-1.2-2.4-1.6c2.1-3.2,4.3-6.3,7-10.5
		c-0.3,2.7-0.4,4.2-0.5,5.6c2.5-3.8,9.2-5.2,7-11c-4.4,0.7-8.3,1.8-12.2,1.7c-2.4,0-2.8-3.9-1.5-6.3c0.8,1.2,1.6,2.9,2.7,4.3
		c0.2,0.3,1.9,0,2.1-0.5c1.4-2.7,2.6-5.5,4.3-9.2c-3.3,0.3-6,1.1-8.4,0.5c-2.4-0.6-4.5-2.6-7-4.1c-0.9,3.3-4.1,6.6-0.6,10.3
		c-5.3,2.1-3.4,6.3-2.9,10c-4.1,0.2-7.6,10.5-6.2,18.4c1.1-0.2,2.1-0.3,3.1-0.5c0.1,4.9,6.5,10,9.9,7.2
		C235.1,534.9,237.6,534.5,240,533.4z M255.1,51.3c1.5,0.9,3,1.9,4.7,2.9c0-6.9,0.2-13.1-0.1-19.3c-0.1-2.9-2.1-4.3-4.9-3.4
		c-0.3,5.7-0.6,11.2-0.8,16.7c-0.3-3.9-0.7-7.8-0.9-11.7c-0.3-4.8-3.6-6.7-7.3-3.8c-2,1.5-3.6,4-4.3,6.4c-0.6,2.2,0.3,4.8,0.5,7.2
		c-0.3,0.1-0.5,0.1-0.8,0.2c-0.5-2.3-1.1-4.6-1.7-7.4c-0.7,2.7-1.3,4.8-1.8,7c-0.5-0.2-1-0.3-1.6-0.5c1.7-5.7,3.5-11.3,5.7-18.5
		c-3.3,2.4-6.7,3.8-8.3,6.3c-6.1,10.1-9,21.4-9.3,33.1c-0.6,27.3-0.9,54.6-1,81.9c-0.1,70.7-0.1,141.3-0.1,212c0,1.3,0.3,2.6,0.4,4
		c0.7,0,1.3-0.1,2-0.1c0.3-26.5,0.6-53,0.9-79.6c0.3,0,0.5,0,0.8,0c0.9,13.4,1.8,26.8,2.7,40.6c0.1,0-0.8,0.2-2.5,0.6
		c2.1,4.4,4,8.4,6,12.7c-2.1-1.5-4-2.9-5.8-4.2c-0.3,0.4-0.6,0.7-0.9,1.1c1.3,1.8,2.7,3.5,3.6,4.7c-0.5,2.7-0.9,4.9-1.2,7
		c7.3,1.6,13.7,3,20.2,4.4c0.1-0.4,0.3-0.8,0.4-1.3c-1.7-1.1-3.3-2.2-5-3.3c0.4-0.2,0.8-0.4,1.2-0.7c-3.3-5.2-11.4-8-9.5-16.8
		c0.6,1.6,0.9,2.4,1.3,3.5c1.1-0.9,2.1-1.7,3.3-2.7c0,2.9,0,5.2,0,7.3c2-0.4,3.7-0.7,6.7-1.2c1.8-70.4,3.7-141.1,5.5-211.8
		c-0.6-0.2-1.3-0.3-1.9-0.5c-0.7,1.2-1.9,2.4-2,3.7c-0.3,4-2.4,5.2-6,4.8c-1.5-0.2-2.9-0.5-4.4-0.6c-2.6-0.2-5.2-0.7-7.6-0.2
		c-0.7,0.2-1.5,3.7-0.9,5.2c1,2.5,3,4.7,4.6,7c0.4-0.3,0.7-0.6,1.1-0.9c0.2-1.9,0.4-3.9,0.6-5.8c1.3,6.7-0.9,11.6-8.2,13.3
		c0.2-4,1.3-8,0.5-11.5c-1.2-5.4-0.5-9.8,3.3-13.7c-5.6-2.3-5.9-2.7-4.5-7.4c1.7,6.6,5.9,2.6,9.8,2.1c-1.3,1.6-2.3,2.7-3.1,3.9
		c-0.7,1.2-1.1,2.6-2.3,5.4c4.7-0.5,8.2-1,11.7-1.2c1-0.1,2,0.5,3,0.7c0.1-1.4,0.5-3,0.1-4.3c-0.4-1.3-1.5-2.4-2.4-3.7
		c9.7-0.7,13.8-5.2,14.5-15.5c0.6-8.1-1-11.2-6.8-12.5c-0.9,1.8-1.8,3.6-2.8,5.5c-4.8-2.6-0.6-4.6,1.4-7.6
		c-4.5-2.7-8.7-5.2-12.9-7.7c-0.2,0.3-0.4,0.7-0.6,1c3.7,0,7.3,0,11,0c0.4-4.4-2.7-4.8-6-4.3c-3.7,0.5-7.3,1.5-9.6,2
		c-0.7,3.8-1.3,6.5-1.7,9.3c-0.3,2-1.2,4.7-0.3,5.9c0.9,1.3,3.7,1.4,5.7,1.9c2.7,0.7,5.4,1.2,8.9,1.9c-5.2,2.7-10.9-3.7-14.4,3.3
		c2,0.7,3.8,1.3,5.9,2c-2.2,0.8-4.1,1.5-6.3,2.4c1.5,1.2,2.4,2,4,3.2c-1.7-0.2-2.4-0.3-3.3-0.4c0.8,2.3,1.5,4.4,2.5,7.5
		c-6.8-7.6-7.8-14.3-3.9-17.5c-0.6-3.1-1.4-5.7-1.6-8.4c-0.3-3.9,0.2-7.8-0.3-11.6c-0.5-3.8,0.6-5.6,4.7-6c-0.9,1.3-1.6,2.4-2.7,3.9
		c4.8-0.3,8.9-0.5,13.1-0.7c-0.6-3-1.1-5.6-1.8-9.5c2,3.4,3.4,5.7,5.1,8.6c0.7-2.9,1.2-4.8,1.7-6.7c0,1.2,0.1,2.3,0.1,3.5
		c0.2,4.6,5.2,10.6,7.7,9c-0.5-1-1.1-1.9-1.7-2.9c1.1,0,1.9,0,3.1,0c-0.6-2.4-1.1-4.6-1.9-7.5c-1.3,1.7-2.1,2.7-3.6,4.7
		c1.5-4.7,2.6-8.4,4.1-13.4c-3.1,1.6-4.9,2.5-6.8,3.5c1-1.9,2-3.9,3.1-6c1.7,0,3.7,0,5.8,0C256.9,57.8,256,54.5,255.1,51.3z
		 M188.2,28.8c-2.2,1.2-5.6,2-6.8,4c-5.6,9.7-9.3,20.1-9.3,31.5c0.1,50.3,0.4,100.6,0.6,150.9c0.1,35.8,0.3,71.6,0.4,107.5
		c0,5.8,0,11.7,0,17.5c0,1.3,0.1,2.6,0.2,3.9c1.8-18.8,1.4-37.7,2.3-56.5c1.8-38.5,0.5-77.2,0.5-115.8c0.5,0,1.1,0,1.6,0
		c0,14.1-0.2,28.3,0,42.4c0.3,23.8,0.9,47.6,1.4,71.3c0.1,3.3,1.1,6.7,0.5,9.9c-1.1,6-1.3,11.3,5.9,13.9c-1.1,2.1-1.9,3.7-2.9,5.5
		c-1.1-2.2-2.2-4.2-3.2-6.2c-0.5,0.2-1,0.5-1.6,0.7c1.3,3.6,2.6,7.1,3.9,10.6c-2-0.4-3.6-0.8-5.2-1.1c-0.1,0.4-0.3,0.8-0.4,1.2
		c1.6,1.3,3.2,2.6,4.7,3.9c-0.7,2.1-1.4,4.1-2.3,7c2.8-1,4.6-1.6,6.4-2.2c2.4,6.3,8.2,2.1,12.1,4.1c-7.2-4.3-10-10.8-11.4-18.8
		c2.2,0,3.6,0,5.5,0c-0.4,2.5-0.7,4.7-1.1,7.5c2.2-1.9,3.9-3.4,4.9-4.4c-0.9-2.6-1.9-4.1-1.9-5.7c0-3.5,0.7-7.1,0.9-10.6
		c0.4-8.9,0.9-17.9,1-26.8c0.3-18.6,0.2-37.2,0.5-55.8c0.5-28.3,1.2-56.6,1.7-84.9c0-1.1-1.2-2.8-2.2-3.1c-3.6-1.2-7.4-2-11.2-2.9
		c-0.9-0.2-2,0.1-2.9,0.4c-4.4,1.7-3.7,7.2,1.5,11.4c1-2.2,1.9-4.4,3.1-7.3c0.9,8.3-4.5,12.1-10.2,17.3c0-10.2-0.4-19.5,0.1-28.7
		c0.6-10.9-2.2-21.8,1.3-32.6c0.6-2-0.2-4.6-0.9-6.7c-1.6-4.8-0.4-6.7,4.8-6.9c0.2,0,0.4,0.3,0.6,0.4c-1.1,0.8-2.1,1.6-3.2,2.4
		c0.1,0.3,0.2,0.6,0.4,0.9c3.8-0.3,7.7-0.6,11.4-0.9c-0.3-2.1-0.6-4.1-1-6.7c2,1.6,3.4,2.6,4,3.1c1.6-4.1,3.1-7.9,4.8-12.1
		c4.1,0.7,5-1.7,4.3-5.7c-1.1-6.3-1.8-12.7-3.3-18.9c-0.3-1.3-4.4-3.1-4.8-2.7c-2.1,2-3.9,4.5-5,7.2c-1.2,2.7,0.4,4.6,3.2,5.6
		c1.2,0.4,2,2,2.6,2.7c-2.4,1.6-4.1,2.8-6,4.1c0.3-1.5,0.8-3.3,1.1-4.5c-1-3.2-1.9-6-2.8-8.9c-0.3,0.1-0.6,0.2-0.9,0.3
		c-0.2,2.2-0.3,4.5-0.5,6.7c-0.5-0.1-1.1-0.2-1.6-0.3C185.5,41.1,186.8,35.4,188.2,28.8z M353.3,103.8c-0.8-0.2-1.7-0.4-2.5-0.7
		c-2.6,2.9-6.5,5.4-7.4,8.8c-2.7,10-4.7,20.2-6,30.5c-1,8-0.7,16.3-0.9,24.4c-0.4,17.8-1.1,35.6-1.1,53.4c0,23.3,0.6,46.6,0.8,69.9
		c0.1,12.4,0.1,24.8,0,37.2c-0.1,8.9-0.1,17.7-0.5,26.6c-0.2,5.4-2.6,9.9-7.7,12.5c-3.3,1.7-3.2,4.3-0.7,6.3
		c3.5,2.9,7.2,5.7,11.3,7.7c4.2,2,6.2,0.6,6.6-4c0.5-6.5,0.7-12.9,1.1-19.4c0-0.4,0.2-0.8,0.4-1.7c0.4,1.3,0.7,2.1,0.9,2.9
		c0.2,0,0.5,0,0.7,0c1-6.5,1.9-13,2.9-19.5c-0.6-0.1-1.1-0.2-1.7-0.3c-0.9,2.9-1.8,5.8-2.9,9.3C348.8,265.9,351,184.8,353.3,103.8z
		 M135.7,134.6c0.6,0,1.2,0.1,1.8,0.1c-1.2,1.6-2.5,3.1-3.4,4.7c-1.7,3-4.5,6.1-4.6,9.2c-0.4,8.4,0.4,16.9,0.7,25.4
		c1,24.6,2,49.1,3,73.7c0.3,6.1,0.8,12.3,0.9,18.4c0.1,7.2,0.9,14.5-0.4,21.4c-1,5.4,0.7,8.4,3.9,11.8c2.4,2.5,5.4,4.4,8.1,2.8
		c1.7-1,2.2-4.8,2.2-7.4c-0.1-13.8-0.7-27.5-0.8-41.3c0-10.1,0.8-20.2,0.9-30.3c0.2-30.6,0.3-61.2,0.4-91.7c0-1.9,0-3.8,0-4.9
		c-3.9-0.5-6.9-1-9.9-1.1c-2.3-0.1-6.2-0.3-6.6,0.6c-0.9,2.1-0.2,5,0.4,7.5C132.5,134,134.5,134.2,135.7,134.6z M91.1,131.5
		c-1.2,6.3-3.2,12.1-3.2,17.9c0.3,19.1,1.4,38.2,2.1,57.2c0.6,16.1,1.8,32.1,1.7,48.2c0,9.1,3,18.5-1.5,27.4c-0.4,0.9,0.6,3,1.5,3.8
		c2.5,2.4,5.5,4.3,8,6.6c0.8,0.7,0.8,2.3,1,3.5c0.2,0.9,0,1.9,0,3c5.2-2.3,4.1-6.2,3.8-10c-0.2-2.8-0.5-5.6-0.5-8.4
		c0-5.1,0.4-10.2,0.4-15.3c0-7-0.3-14-0.3-20.9c0.1-9.3,0.7-18.6,0.7-27.9c-0.1-11.4-0.8-22.9-0.8-34.3c0-13.5,0.6-26.9,0.9-40.4
		c0.1-6.5,0-13.1,0-20c-2.4,0.3-4,0.8-5.6,0.7c-1.8-0.1-3.7-0.3-5.3-0.9c-3.1-1.1-6.1-1.5-7.6,2C85.2,126.8,88.7,131,91.1,131.5z
		 M60.3,289.8c5.4-2.3,4.1-6.1,4-10.5c-0.4-9.5,0.7-19,0.7-28.5c0-13.1-0.8-26.3-0.8-39.4c-0.1-28.1,0-56.2,0-84.3
		c0-7.6,0-7.5-7.3-7.8c-2-0.1-3.9-0.8-5.8-1c-4.1-0.4-5.9,1.5-4.5,5.2c0.8,2.2,2.8,3.9,4.7,6.6c-0.7,1.6-2.8,4.5-3,7.6
		c-0.5,7.6-0.4,15.3,0,23c1.1,22.2,2.6,44.4,3.8,66.6c0.6,11.3,0.8,22.6,1.4,33.9c0.3,4.8,1.7,9.6-3,12.5
		C51.8,280.7,63,280.6,60.3,289.8z M24.9,283.5c3.5-1,2.7-4.2,2.4-8.4c-0.7-9.7-0.1-19.6-0.2-29.4c-0.3-26.6-0.7-53.2-1-79.8
		c-0.1-16.2,0-32.3-0.1-48.5c0-2.1-0.4-4.1-0.6-6.2c-1.5,5.3-4.7,5.7-9,4.4c-1.4-0.4-2.9-0.3-4.4-0.4c-3.9-0.2-4.9,2-3.4,5
		c1.2,2.3,3.3,4.2,4.4,5.4c-0.7,3.2-1.8,5.9-1.8,8.5c0.1,11.5,0.5,22.9,0.9,34.4c0.2,5.6,0.6,11.3,1,16.9
		c1.2,16.5,2.4,33.1,3.5,49.6c0.7,11.4,1.2,22.8,1.8,34.4c-1.4-0.9-2.8-1.7-4.2-2.6c-0.4,0.4-0.8,0.8-1.2,1.2
		c2.3,2.8,4.7,5.5,6.9,8.4C21.7,278.6,23.1,280.9,24.9,283.5z M303.6,116.3c-0.7-0.1-1.4-0.1-2.1-0.2c-0.6,1.8-1.5,3.6-1.6,5.5
		c-1,17.3-2.2,34.5-2.6,51.8c-0.7,28.8-0.9,57.6-1.1,86.4c-0.2,23.5,0.5,47-0.3,70.5c-0.5,14.8-3,29.6-4.5,44.4
		c-0.6,6.1-0.7,12.1,2.5,18.1c4.5-2.7,5.7-7.2,6-11.1c0.7-7.4,0.1-14.8,0.3-22.3c0.6-20.6,1.4-41.2,1.9-61.8
		c0.5-21.1,0.8-42.3,1.1-63.4c0.5-34.9,1-69.9,1.4-104.8C304.5,124.9,303.9,120.6,303.6,116.3z M126,212.3c0.5,0,1,0.1,1.5,0.1
		c0.3-1.7,0.9-3.5,0.9-5.2c-0.1-16.7-0.2-33.3-0.3-50c-0.1-9.5-0.5-19-0.6-28.4c-0.2-12.1-0.4-24.2-0.3-36.3
		c0-5.3,0.5-10.6,1.1-15.9c0.1-1.2,1.7-2.3,2.7-3.3c0.2-0.2,0.8,0.2,1.3,0.3c-0.7,0.6-1.4,1.2-2.8,2.3c4.5,0,8,0,11.5,0
		c0.1-2,0.2-3.7,0.4-6.9c1.2,2.6,1.7,3.9,2.3,5c2.2-5.5,3.8-9.6,5.4-13.6c1.6-0.2,3.2-0.4,5.1-0.6c-0.4-3.1-0.7-5.8-1.1-8.7
		c1.8,0.9,3.1,1.5,4.9,2.4c-0.5-2.6-0.8-4.5-1.2-6.4c-0.4-1.9-1-3.8-1.9-6.8c-1.3,2.3-1.9,3.5-2.9,5.2c-0.5-1.7-0.8-2.7-1.1-3.8
		c-0.3-1.3-0.6-2.6-0.8-3.8c-0.5-3.6-3.4-5.6-6.2-3.4c-1.9,1.5-3,4.5-3.7,7c-0.7,2.4,0,4.5,3.2,5c1.4,0.2,2.7,1.1,4.3,1.7
		c-3.8,2.4-5.6,3.5-8.3,5.1c1-2.3,1.7-3.8,2.4-5.4c-1.6-1.4-3.2-2.9-4.9-4.4c-0.6,0.1-1.1,0.3-1.7,0.4c1.6-4.7,3.2-9.3,4.8-13.9
		c-3.7-0.3-6.4,1.4-8.3,5.1c-4.8,9.6-7.9,19.6-7.7,30.4c0.3,20.6,0.5,41.3,0.6,61.9c0.2,24.3,0.3,48.6,0.5,72.9
		C125.2,204.6,125.7,208.5,126,212.3z M95,30.2c-2.1,1-5.1,1.5-6,3.1c-4.6,8.4-8.9,17.1-8.9,27c0.1,17.8,0.3,35.6,0.6,53.4
		c0.6,30.9,1.4,61.9,2,92.8c0.2,8.7,0,17.3,0,26c0.6,0,1.2,0.1,1.9,0.1c0.5-4.3,1.4-8.5,1.4-12.8c0-9.5-0.6-18.9-0.8-28.4
		c-0.3-12.8-0.5-25.6-0.7-38.4c-0.4-25.6-0.9-51.2-1.3-76.8c-0.1-4.3,2.4-4.4,5.7-3.5c-0.7,0.4-1.4,0.7-3.1,1.6c4.2,0,7.2,0,11.3,0
		c-3.4-6.5-8.9-11.7-7.6-19.9c2.9,6.9,5.6,13.2,10.2,18.1c0.4-0.3,0.8-0.5,1.2-0.8c-0.6-1.3-1.1-2.6-1.2-2.7
		c1.9-3.7,3.2-6.5,4.7-9.5c1.3-0.2,3-0.4,4.9-0.6c-0.7-3.2-1.4-6.1-2.1-9.3c1.6,1.3,2.9,2.4,4.2,3.5c0.4-0.2,0.8-0.4,1.2-0.7
		c-0.9-3.5-1.8-6.9-2.6-10.4c-0.5,0-0.9,0-1.4,0.1c-0.6,1.7-1.3,3.3-2,5.3c-0.8-3.8-1.7-7.1-2.3-10.5c-0.5-2.9-2.1-3-4.3-2
		c-4.1,1.7-5.1,8-1.9,11.1c1.2,1.1,2.1,2.5,3.4,4.2c-7.1,0.7-5.9-5.3-8.5-9.2c0,3.3,0,5.7,0,9.4C90.3,42.6,91.9,36.8,95,30.2z
		 M57.2,70.9c1.7-3.5,3-6.5,4.6-9.5c0.4-0.9,1.4-2,2.1-2.1c3.5-0.4,3.4-2.1,2.6-4.9c-1.4-5.3-2.7-10.6-3.4-16
		c-0.5-4-2.7-3.7-5.2-2.8c-4.3,1.5-4.9,6.5-1.9,10.7c-1.7,1-3.3,2.1-5.1,3.2c-2.7-6-0.4-12,2.8-18.4c-2.2,0.5-4.8,1-5.7,2.6
		c-5.2,8.6-9.2,17.6-8.9,27.9c0.8,32.3,1.8,64.5,2.6,96.8c0.6,22.5,1,44.9,1.5,67.4c0,1.7,0.5,3.5,0.7,5.2c0.5,0,1.1-0.1,1.6-0.1
		c0.2-1.7,0.6-3.4,0.5-5.1c-0.2-6.8-0.7-13.6-0.9-20.4c-0.3-10.3-0.4-20.6-0.7-30.9c-0.8-32.6-1.5-65.2-2.5-97.8
		c-0.1-4.6,0.7-7.4,6.5-6.7c-4.6-7.1-7-13.9-2.3-21.3c2.1,2.1,0.9,3.3,0,5.5c-2.6,6.3,1.5,11.3,5,16.3c-2,0.7-3.7,1.3-6.8,2.4
		c4.5,0,7.6,0,10.8,0c-1.8-3.3-3.4-6.2-5.1-9.2c0.5-0.4,1.1-0.8,1.6-1.2C53.8,65.6,55.7,68.6,57.2,70.9z M264.8,358.9
		c0.6,0,1.3,0.1,1.9,0.1c0.4-3.5,1.2-7,1.2-10.6c0.4-29,0.7-57.9,1.1-86.9c0.3-19.1,0.7-38.3,1-57.4c0.4-31.8,0.7-63.6,1-95.4
		c0-2.2-1-4.4-1.5-6.5c-0.6,0.1-1.3,0.2-1.9,0.3C266.6,188,265.7,273.4,264.8,358.9z M230.2,424.8c2.1,0.7,4.1,1.4,6.4,2.2
		c-1.4,0.3-2.5,0.5-3.8,0.8c0.8,1,1.2,1.5,1.9,2.4c-4.3,0-5.9,2-5.5,5c5.9-0.5,11.5-0.9,17.5-1.4c-0.9-0.8-1.7-1.5-2.7-2.3
		c5.9-3,10.7-6.9,12.2-13.7c-0.8,0-1.5,0-2.5,0c1.4-1.9,2.6-3.4,3.8-5c0.5,1.4,0.9,2.5,1.3,3.6c0.4,0,0.8,0.1,1.3,0.1
		c0.5-2.6,1.3-5.1,1.5-7.8c0.2-1.8-0.7-3.7-0.5-5.5c0.8-6.9,1.8-13.7,2.7-20.6c-0.5-0.1-1-0.1-1.5-0.2c-0.4,3.1-0.9,6.1-1.3,9.2
		c-1.6,12.5-7.6,22.4-17.8,29.7c-0.8,0.6-3.4,0.1-3.8-0.7c-1.6-2.9-2.7-6.2-3.8-8.9c12.6,2.7,25.7-17.9,20.5-34.6
		c-0.9,3.7-1.6,6.4-2.4,9.5c-0.5-1-0.8-1.8-1.6-3.3c-1.7,4.4-2.9,8.3-4.8,11.9c-2,3.7-4,8.1-7.2,10.3c-3,2.1-7.6,1.7-12.1,2.5
		c1.3,2.2,3.1,5.1,4.9,8.2c-1.5-0.3-2.9-0.6-4.4-0.9c0,2.2,0,4.1,0,6.7c2.6-1.3,4.7-2.3,7.1-3.5
		C237.8,423.9,231.9,421.8,230.2,424.8z M270.7,331.1c0.6,0,1.2,0,1.8,0.1c0.2-1.1,0.5-2.1,0.5-3.2c0.7-37.2,1.4-74.5,2-111.7
		c0.3-18.6,0.3-37.3,0.5-55.9c0.2-15.6,0.4-31.3,0.5-46.9c0-1.1-0.9-2.2-1.4-3.3c-0.5,0.2-0.9,0.3-1.4,0.5
		C272.4,184.1,271.6,257.6,270.7,331.1z M320.9,103.9c-0.7,0-1.3-0.1-2-0.1c-1.9,88.1-3.7,176.2-5.6,264.2c0.6,0,1.1,0,1.7,0
		C317,280,319,192,320.9,103.9z M289.1,322.6c0.5,0,0.9-0.1,1.4-0.1c1.2-66.9,2.5-133.8,3.7-200.7c-0.7,0-1.3,0-2,0
		C291.2,188.7,290.1,255.6,289.1,322.6z M154.9,353.4c-2.9,5.2-4.9,9.5-7.6,13.4c-3.6,5.1-9.5,6.2-15,4.1c2.1,2.7,4.2,5.4,6.3,8.1
		c0.4-0.3,0.7-0.5,1.1-0.8c-0.1-0.9-0.2-1.7-0.3-2.6c13-0.8,24.4-15.8,19.3-25.8c-1,3.2-1.9,6.1-2.9,8.9c-0.2-0.1-0.4-0.1-0.6-0.2
		C155.1,357.1,155,355.9,154.9,353.4z M105.3,100.4c0.9-6.7-5.3-12.8-11-11.5c-1.1,0.3-2.3,0.5-3.4,0.4c-1-0.1-2.6-0.7-2.7-1.4
		C87.9,87,88.8,85,89.3,85c2.9-0.3,5.9-0.6,8.7-0.1c1.3,0.2,2.4,2.1,4.2,3.8c-0.2-1.9,0.1-3.8-0.4-4c-3-1.3-6.4-3.4-9.3-3
		c-2.4,0.3-5.4,3.3-6.4,5.7c-1.6,3.8,1.4,6.2,5.4,5c3.1-0.9,6.4,0.5,8.5,3.5c-10.9-1.6-10.9-1.6-13,2.3
		C93.3,99,99.3,99.7,105.3,100.4z M135.2,358.1c0.9-0.9,1.9-2.7,2.5-2.6c1.3,0.3,2.8,1.4,3.3,2.6c1.1,2.8,1.6,5.9,2.4,8.9
		c3.9-3.4,6.4-11,4.7-14.2c-1.7-3.3-11.3-9.3-13.8-8.6c0,0.2,0,0.4,0,0.5c0.7,1,1.4,2.1,2.2,3.1c-0.8,0.3-1.5,0.5-2.5,0.9
		c1.1,0.9,1.9,1.6,2.7,2.2C133.5,353.2,133,356,135.2,358.1z M144.2,333.5c11.1,0.1,11.1,0.1,11.5-1.4c-2-0.1-4.1-0.2-6.2-0.3
		c0-0.3-0.1-0.7-0.1-1c1.1-0.7,2.1-1.5,3.2-2.3c-7.1-2.8-15.4-1.6-21.1,3.2c4.6,3.7,9.2,7.3,14.5,11.5
		C145.2,339.3,144.7,336.6,144.2,333.5z M98,109.5c3.9-2.2,9.6,2.8,11.9-3.5c1.5-4.2,2.2-8.2,0.1-13.3c-3.6,15-4.4,15.7-11.4,11.2
		c0.5-0.6,1-1.3,1.5-1.9c-0.5-0.3-0.9-0.6-1.4-1c-3,5.5-6,11-9.3,16.9c2.6,1,5.6,3.8,8.5-1.3c-1.5-0.7-2.8-1.2-4.5-2
		c4.9-1.1,6.3,0.7,5,5C101.2,118.5,101.2,118.5,98,109.5z M110.2,352.8c-0.1-0.1-0.2-0.1-0.4-0.2c0.6-2.9,1.3-5.7,1.9-8.6
		c-0.5-0.1-1-0.2-1.4-0.3C103,358.7,98,362.3,91,357.7c0.2,4.2,2.6,6.8,6,8.5c0.2,0.1,0.6-0.2,1-0.3c-0.5-1.1-0.9-2.2-1.4-3.4
		c11.6-0.1,21.9-11.5,18.7-20.7C113.5,345.6,111.8,349.2,110.2,352.8z M26.3,338.6c1.7-2.9,4.5-5.5,4.4-8.1
		c-0.3-5.4-8-11.6-14.6-12.8c0.7,2.6,1.5,5,1.8,6c-1,3-1.6,5-2.3,7c0.6,0.2,1.2,0.4,1.8,0.6c0.5-0.9,0.9-1.8,2-3.9
		C21.7,331.3,23.7,334.4,26.3,338.6z M250.8,504.6c0.4,0.2,0.9,0.4,1.3,0.6c3-6.2,6.1-12.4,8.9-18.7c2.9-6.6,5.5-13.3,8.1-20.1
		c0.4-1.1-0.1-2.5-0.2-3.8c-1,0.8-2.5,1.3-3.1,2.4c-2.4,4.4-5,8.8-6.7,13.5C256.1,487.1,253.6,495.9,250.8,504.6z M194.2,342.9
		c2.3-1.2,3.6-1.8,4.8-2.5c-6.3-0.7-12.8-3.7-18,2.1c-1.1-0.8-2-1.4-2.9-2.1c0.2,2.6,1.6,6.4,2.1,6.3c4.9-1,6.2,3.2,9.1,6.1
		c0-1.8,0-2.9,0-4.1c1.3,0.8,2.4,1.5,4.3,2.7c-1.5-2.5-2.4-4.1-3.3-5.6c2.9,0,5.7,0,8.4,0c0-0.3,0-0.5,0-0.8
		C197.7,344.4,196.6,343.9,194.2,342.9z M278.9,30.4c0.2,0.5,0.5,1,0.7,1.5c2.4-0.9,4.7-1.9,7.1-2.8c-1.2-2.1-1.9-5-3.7-6.3
		c-8.5-6-17.9-5.6-27.4-2.5c-0.6,0.2-0.9,1-2,2.4c10.3-0.9,20.2-3,27.6,5.7C280.3,29.1,279.6,29.7,278.9,30.4z M138.1,317.5
		c3.2,4.8,7.9,3.4,12.4,3.1c-1.7-0.9-3.3-1.8-5-2.7c0.2-0.1,0.4-0.2,0.6-0.3c-4.5-6.3-9.1-12.6-13.6-19c-0.3,0.1-0.7,0.3-1,0.4
		c1.8,4,3.6,8,5.3,11.8c-1.5-1.1-3.2-2.3-4.9-3.4c-0.3,0.4-0.6,0.7-0.9,1.1c1.4,1.5,2.7,3.1,4,4.5c-0.7,2-1.4,3.9-2.4,6.7
		C135.1,318.7,136.5,318.1,138.1,317.5z M89.8,308.3c2.6-0.4,4.4-1.1,5.9-0.7c3.7,1.1,7.2,2.7,10.7,4.1c0.1-0.3,0.2-0.7,0.3-1
		c-5.5-6.6-11-13.1-17.3-20.6c1.4,3.6,2.4,6.3,3.5,9.2c-1.7-0.6-2.9-1.1-4.1-1.5c-0.2,0.4-0.4,0.8-0.6,1.1c1.3,1.4,2.6,2.7,3.8,4
		C91.3,304.6,90.7,306.1,89.8,308.3z M353.1,423.9c3.8-3.7,8-6.2,5.1-11.9c-0.4-0.8,0.5-2.7,1.4-3.4c3.5-2.9,2.7-6.3,1.7-11.2
		c-2.4,1.2-5.8,2-6,3.2C354.2,408,353.8,415.6,353.1,423.9z M68.2,90.4c-0.9,4.6-0.4,9.1-2.5,11.1c-2,1.9-6.5,1.3-10.7,1.8
		c-4.4,4.8,2.5,8.4,4.9,13c-0.4-2.2-0.9-4.5-1.3-6.7C67.9,108.4,72.6,100.3,68.2,90.4z M56.3,350.2c8.7,4,21.8-9.7,19.5-19.9
		c-2.5,4.9-5.1,9.9-7.7,15c-0.3-0.1-0.6-0.3-0.8-0.4c0.2-1.1,0.4-2.2,0.6-3.3c-4.9,4.5-9.8,8.2-17.2,5.8c2.2,2.7,4.5,5.3,6.7,8
		c0.3-0.3,0.7-0.5,1-0.8C57.9,353.3,57.2,352,56.3,350.2z M135.2,385c6,3.7,11.6,2.9,16.8-0.7c8.3-5.8,12.6-13.9,12.8-24.2
		C159.7,374,153.2,386.1,135.2,385z M19.6,113.2c0.6,0,1.2-0.1,1.8-0.1c-0.3-2.2-0.5-4.3-0.8-6.5c8.7-1.1,13.1-9.1,8.9-16.6
		c-0.9,9.5-1.4,13.3-12.1,8.9C13.2,104.4,18.7,108.5,19.6,113.2z M128.5,215.7c-0.7,0-1.3,0-2,0c0,15.4,0,30.9,0,46.5
		c0.7-0.1,1.9-0.2,1.9-0.3C128.5,246.5,128.5,231.1,128.5,215.7z M7.9,92.9c5.8,1.6,11.2,3.1,16.8,4.7c1.1-7.4-0.3-9.8-7.3-12.7
		c-0.8,1.2-1.7,2.5-3,4.4c2-0.6,3-0.9,4.1-1.3c0.3,1,0.5,2,0.8,3C15.9,92.9,11.3,87.1,7.9,92.9z M283,383.8c0.5,0.3,1,0.6,1.5,0.9
		c1.8-2.6,5.1-5.2,5.3-8c0.6-13,0.3-26,0.3-39.1C289,353.3,289.4,369,283,383.8z M145.4,92.6c-0.3-0.6-0.8-2.2-1.3-2.2
		c-4,0.1-7.9,0.4-12.1,0.7c0.3-3.8,2.4-5.4,5.7-6.1c4.5-0.9,6.6,1.8,8.8,5.3c0.6-1.6,0.8-3.3,0.2-4.2c-2.6-3.7-10.9-4.6-13.9-1.2
		c-1.6,1.9-1.6,5.2-2.3,7.9c2.2,0.4,4.5,1.2,6.7,1.1C139.8,93.9,142.4,93.1,145.4,92.6z M43.7,335.1c-4.8,12.5-11.4,21.9-25.7,22.1
		C29.5,362.2,44.3,349.6,43.7,335.1z M202.3,23c10.1-1.5,19.6-0.6,28.9,4.5c-1.1-2.3-2.6-4.5-4.6-5.3
		C218.5,18.9,210.3,18.1,202.3,23z M158.9,381.3c-4.2,3-7.2,5.3-10.4,7.2c-1,0.6-2.6,0.7-3.9,0.6c-2.9-0.2-5.7-0.7-8.6-1.1
		c0,0.5-0.1,0.9-0.1,1.4c2,0.4,4,0.8,6.2,1.3c-6.9,1.1-6.9,1.1-8.1,5.5C142.1,391.5,153.9,393.8,158.9,381.3z M24.7,439.1
		c-0.1-0.4-0.2-0.8-0.4-1.2c-1.6,0.6-4.2,0.8-4.5,1.8c-0.8,2.5-1.8,3.6-4.4,4.2c-1,0.2-2.2,2.8-1.9,3.9c0.3,1.1,2.4,2.2,3.8,2.2
		c2.8,0.1,5.6-0.3,8.3-1c1.2-0.3,2.1-1.9,4.3-4c-4.5,0.3-7.3,0.4-11.3,0.7C21.1,443,22.9,441.1,24.7,439.1z M65.8,301.5
		c-2.7-8.6-10.4-9.6-16.9-12.3c1.3,1.5,2.5,3.1,3.7,4.5c-0.6,1.4-1.1,2.8-1.8,4.6c2.2-0.2,5.1-0.9,5.3-0.4
		C58.3,302.4,62.8,299.2,65.8,301.5z M239.3,488.6c-1.3,0.7-2.5,1.3-4.3,2.3c4.4,1.3,8,2.3,11.7,3.4c0.2-0.3,0.3-0.5,0.5-0.8
		c-1.2-1.3-2.3-2.5-3.5-3.8c0.6-0.2,1.3-0.5,1.9-0.8c-0.6-0.8-1.2-1.5-2.1-2.5c2-0.1,3.4-0.2,5.1-0.3c-1.7-4.7-5.4-2.9-8-2.7
		c-1.8,0.1-3.5,1.9-5.2,3c0.2,0.4,0.4,0.9,0.6,1.3C237,488,238,488.3,239.3,488.6z M91.4,381.7c15.5-2.7,21.5-4.7,24.3-12.9
		c-3.5,2.5-6.4,4.8-9.5,6.7c-2.1,1.3-4.3,3.1-6.9,0.1c-0.8-0.9-3.6-0.1-6.4-0.1c1.4,1.2,2.1,1.8,2.9,2.4
		C94.4,379,93.1,380.2,91.4,381.7z M17.5,424.1c-0.6,8.9,1.4,11,9.3,11.3c-0.5-1.3-1.9-3.2-1.5-3.9c2.9-4.3-1.2-6.1-2.9-9.3
		c-0.7,2.3-1.2,4-1.7,5.7C19.6,426.6,18.6,425.4,17.5,424.1z M235,464.6c0.4,2.6-0.2,7.4,1.6,8.6c3.2,2.2,7.9,2.1,12,3
		c0.2-0.6,0.4-1.3,0.5-1.9c-2.3-1.5-4.6-2.9-6.9-4.5C240,468.3,237.8,466.6,235,464.6z M300.6,26c-7.6,9.6-9.5,20.6-6.9,32.5
		c1-5.5,1.4-11.1,2.4-16.5C297.2,36.6,299.1,31.4,300.6,26z M13.4,304.8c-0.2,0.5-0.4,0.9-0.6,1.4c1.5,1,3.1,2,4.6,3.1
		c1.3,0.9,3.7,2.5,3.5,2.8c-2.2,5,2.5,5,4.2,7.1c0.5-0.2,1-0.5,1.4-0.7c-1.9-4.7-3.8-9.4-5.9-14.4C18.2,304.4,15.8,304.6,13.4,304.8
		z M236.4,25c1.3-7.4,2.4-13.7,3.5-20.1C232.9,9,231.1,17.3,236.4,25z M19,364.4c7.6,3.2,11.9-1.5,16.4-5c1.7-1.3,2.8-3.5,4.6-5.8
		C32.4,357.5,25.9,360.8,19,364.4z M153.4,24.2c4.7-0.2,9.2-1.1,13.4-0.5c10.5,1.5,10.4,1.7,11.5,0.6C170.2,19.2,159,19,153.4,24.2z
		 M187.5,6.2c-6.8,2.9-8.7,11.2-3.8,19.6C185,18.9,186.2,12.7,187.5,6.2z M308.1,29.6c-6.3,9.1-7.9,19-5.5,30
		C304.4,49.5,306.2,39.7,308.1,29.6z M92.2,103.2c-0.4,0.5-0.9,1-1.3,1.5c-1.2-0.4-2.4-0.8-3.8-1.2c0.9,2.6,1.6,4.5,2.3,6.4
		c-0.2,0.1-0.4,0.2-0.6,0.2c-0.7-1-1.4-2.1-2.4-3.5c-0.9,1.8-1.5,3.1-2.1,4.3c2.3,2.9,4.5,2.6,6.7,0.3c2.6-2.7,4.5-5.6,2.1-9.1
		c-0.9-1.3-3.2-1.7-5.7-3C89.7,101.2,91,102.2,92.2,103.2z M139,7.7c-7,2.9-8.8,10.7-3.8,18.8C136.6,19.8,137.8,13.8,139,7.7z
		 M369.8,439.1c-0.5-0.6-1-1.1-1.5-1.7c-2.4,1.2-6.1,1.8-6.8,3.6c-1.1,3.2,0,6.8,4.9,8.4C367.6,445.9,368.7,442.5,369.8,439.1z
		 M107.9,25.3c7.7,0,14.8,0,21.8,0C128.6,20.2,114.6,19.5,107.9,25.3z M314.9,31.2c-5.7,5-9.1,21-5.9,26.3
		C310.9,49.1,313,39.7,314.9,31.2z M128.3,267.5c-0.2,0-0.3,0-0.5-0.1c0,13.6,0,27.1,0,40.7c0.2,0,0.3,0,0.5,0
		C128.3,294.7,128.3,281.1,128.3,267.5z M36.9,306.5c-3.3-0.2-5.4-0.3-8.4-0.5c1.7-1.6,2.6-2.4,4.2-4c-4.2-0.3-7.3-0.5-10.6-0.7
		C23.2,307.8,29.4,310.1,36.9,306.5z M90.7,26.2C91.9,20.3,93,14.9,94,9.5C87.5,11.8,86,18.5,90.7,26.2z M10.2,86.3
		c-0.5-0.2-0.9-0.5-1.4-0.7c0.5-1.5,0.4-3.7,1.5-4.5c4.6-3.2,8.1-0.2,11.9,2.4c-1-2.2-2.3-4.4-4.2-5c-3.5-1.1-7.4-0.9-9.9,2.5
		c-1,1.4-1.4,3.6-1.1,5.4c0.1,0.9,2.4,2.2,3.4,2.1c1.7-0.3,3.2-1.7,4.8-2.6c-0.2-0.4-0.5-0.7-0.7-1.1C13.1,85.3,11.7,85.8,10.2,86.3
		z M202.3,64.7c-4.8,0.3-6.9,3.8-6.8,7.2c0.1,3.3,2.5,6.4,3.9,9.6c0.6-0.2,1.3-0.4,1.9-0.6C197.1,75.2,200,70.1,202.3,64.7z
		 M304,411.4c-7.1,8.4-9.9,16.8-8.2,24.2C298.5,427.7,301.1,419.9,304,411.4z M274.8,29.9c-2.8-3.2-6.1-5-10.1-4
		c-1.8,0.5-3.3,1.9-5,2.9c0.2,0.4,0.5,0.7,0.7,1.1C265.2,29.9,270,29.9,274.8,29.9z M49.6,26.7c1-5.4,1.9-10.4,2.8-15.9
		C46.1,14.3,44.9,21.3,49.6,26.7z M295.3,410.2c-0.6-0.2-1.3-0.4-1.9-0.6c-2.3,8.1-4.6,16.1-6.9,24.2c0.6,0.2,1.1,0.3,1.7,0.5
		C290.6,426.3,293,418.2,295.3,410.2z M345.5,54.4c0.5,0.1,1,0.2,1.6,0.4c1.1-2.8,2.2-5.6,3.4-8.4c-2.3-0.4-4.7-0.9-7.8-1.5
		C343.8,48.9,344.6,51.7,345.5,54.4z M258.1,335.9c-5.5,6.4-5.3,13.7,0,15.1C258.1,346.2,258.1,341.5,258.1,335.9z M300.1,435.5
		c0.7,0.2,1.3,0.5,2,0.7c2.1-6.4,4.1-12.8,6.2-19.2c-0.7-0.2-1.3-0.4-2-0.6C304.2,422.7,302.2,429.1,300.1,435.5z M67.6,25.1
		c5.8,0,11.6,0,17.5,0C79.2,21.2,73.4,21.8,67.6,25.1z M35.1,400.1c-4.1-3-7.3-5.4-10.7-8C22.3,398.5,25.8,401.5,35.1,400.1z
		 M64.2,77.9c0.1-0.3,0.3-0.6,0.4-0.9c0-4.6,0-9.2,0-14.8c-1.6,1.8-4.4,3.7-4.2,5.1C61,71,62.9,74.4,64.2,77.9z M149.3,78.5
		c0.2-0.3,0.5-0.6,0.7-0.8c0.6-4.4,1.1-8.8,1.7-13.2c-3.4-0.2-5,3-5.1,5.9C146.5,73.1,148.3,75.8,149.3,78.5z M253.3,466.4
		c-3.2-4.1-5.9-5.4-9-0.5c0.9,1.3,1.8,2.8,3,4.6C249.4,469,251.2,467.8,253.3,466.4z M84.8,262.5c0.3,0,0.6-0.1,0.9-0.1
		c0-6.8,0-13.6,0-20.4c-0.3,0-0.6,0-0.9,0C84.8,248.8,84.8,255.6,84.8,262.5z M271.8,372.2c-0.4,0-0.9,0-1.3-0.1
		c-0.6,5.3-1.1,10.5-1.7,15.8C272.5,385.6,272.7,383.8,271.8,372.2z M45.4,25.4c-6.3-3.6-13.3-3-17.6,1.1
		C33.6,26.2,38.9,25.8,45.4,25.4z M265.6,41.1c0.7-3.3,6.3-7-1.4-9.3C263.3,35,259.2,38.6,265.6,41.1z M282.2,40.5
		c6.9-4.6,7.6-5.6,7.4-11.1C286.6,33.2,281.6,34.4,282.2,40.5z M106.1,64.5c-6.1,2.3-5.8,7.5,0,13.6
		C106.1,74.1,106.1,69.3,106.1,64.5z M182.3,337.5c4.1-0.4,8.2-0.8,13-1.3C189.5,332.3,186.7,332.4,182.3,337.5z M29.1,40.2
		c-4.2,5.2-3.5,7.9,2.4,11.8C30.6,48,30,44.6,29.1,40.2z M206.4,54.2c-0.5-5.1,0.8-9.3-3.9-12.4C201.6,46.5,200.9,50.5,206.4,54.2z
		 M6.9,189.7C6.9,189.7,6.9,189.7,6.9,189.7c-0.1,10.1-0.1,20.3-0.1,30.5c0.5,0,1,0,1.6-0.1C7.9,210,7.4,199.9,6.9,189.7z
		 M224.3,426c0.5,0,1.1,0,1.6,0c-0.4-8.4-0.8-16.7-1.1-25.1c-0.2,0-0.3,0-0.5,0C224.3,409.2,224.3,417.6,224.3,426z M264,483.7
		c3-4.2,5.6-7.8,9.1-12.6C266.8,473.2,264.4,476.9,264,483.7z M206.8,321.1c-3.8,4.4-3.9,10.3,0,12.3
		C206.8,329.3,206.8,325.3,206.8,321.1z M248.1,439.9c-2.8-3-5.4-5.3-8.1-0.3c0.9,1.2,1.8,2.4,2.8,3.7c1.3-0.7,2.4-1.3,3.5-2
		C246.8,440.9,247.3,440.5,248.1,439.9z M11,27.2c0.7-4.8,1.3-8.9,2.1-14.3C8.3,17.7,7.8,21.8,11,27.2z M224.5,379.6
		c-0.3,0-0.5,0-0.8,0c0,5.1,0,10.3,0,15.4c0.3,0,0.5,0,0.8,0C224.5,389.9,224.5,384.7,224.5,379.6z M11,105.4
		c0.7,0.1,1.4,0.1,2.1,0.2c0.2-2.6,0.4-5.2,0.6-7.9c-0.8,0-2-0.3-2.5,0.1C8.3,100.4,9.9,102.9,11,105.4z M192.8,82.1
		c-6.1-5-8.1-5-10.4,0C185.7,82.1,189,82.1,192.8,82.1z M185.5,435.8c0,0.8-0.1,1.6-0.1,2.4c3.5-0.3,7-0.7,10.5-1
		c0-0.5-0.1-0.9-0.1-1.4C192.3,435.8,188.9,435.8,185.5,435.8z M202.2,39.9c0.3,0.3,0.7,0.6,1,0.9c1.2-2,2.4-4.1,3.9-6.5
		c-1.5-0.8-2.9-1.6-4.9-2.7C202.2,35,202.2,37.5,202.2,39.9z M147.4,324.9c0.1-0.4,0.1-0.9,0.2-1.3c-3.9-1.7-7.7-2.5-12.2,1.9
		C140.2,325.3,143.8,325.1,147.4,324.9z M210.7,32.5c-0.5,3.1-0.9,5.4-1.5,8.8C215.9,36.9,216,36.3,210.7,32.5z M139.1,369.8
		c0.4-3.2,0.8-6,1.2-9.2c-2.6,0.5-4.2,0.7-5.5,1C136.2,364.1,137.4,366.4,139.1,369.8z M70.6,52.5c-0.9-4.1-1.6-7.1-2.4-10.8
		C64.8,47,65.2,48.9,70.6,52.5z M159.9,310.2c-2.9,5.3-2.7,10.4,0,11.8C159.9,318,159.9,314.1,159.9,310.2z M160.2,40.7
		c0.6,0,1.2,0.1,1.8,0.1c4.2-4.2,4.2-4.2,0-8.2C161.3,35.7,160.7,38.2,160.2,40.7z M322.9,424.9c-0.5-0.2-1-0.3-1.5-0.5
		c-1.5,4.4-3.1,8.7-4.6,13.1c0.5,0.2,1,0.3,1.5,0.5C319.9,433.6,321.4,429.3,322.9,424.9z M233.9,455.5c2.4,5.9,4.3,6.6,9,3.7
		C240.1,458.1,237.4,457,233.9,455.5z M113.7,311.1c0.8,0,1.5,0,2.3,0c0-3.6,0-7.2,0-10.9c-0.6,0-1.2,0-1.7,0
		C114.1,303.9,113.9,307.5,113.7,311.1z M93.9,314c4.2,0,7.6,0,11.8,0C101.5,311,98.2,310.2,93.9,314z M241.3,480.8
		c3.5,0.3,6,0.5,9.1,0.7C246.9,476.3,245.4,476.1,241.3,480.8z M251.7,335c-1.8,2.7-3,4.6-4.4,6.8C253.4,342.2,254,341.5,251.7,335z
		 M233.9,440.5c-0.3,0.4-0.7,0.7-1,1.1c1,1.5,1.9,3.1,2.9,4.6c1.3-1.3,2.6-2.6,4.8-4.7C237.3,441,235.6,440.8,233.9,440.5z
		 M119.4,34.7c-0.8-0.2-1.6-0.4-2.4-0.7c-0.7,1.8-1.4,3.6-2.2,5.3c1.2,0,3.2,0.4,3.5-0.2C119.1,38,119.1,36.2,119.4,34.7z
		 M48.3,115.1c3.2,1.3,6.2,2.7,8.8-1.5C53.9,113.2,50.7,110.4,48.3,115.1z M353.3,326.2c-0.7-0.1-1.3-0.2-2-0.3
		c-0.6,3.3-1.2,6.7-1.8,10c0.7,0.1,1.4,0.2,2.1,0.3C352.2,332.9,352.8,329.5,353.3,326.2z M336.9,442.6c0.6,0.2,1.3,0.5,1.9,0.7
		c1.3-3.7,2.6-7.4,3.9-11.1c-0.5-0.2-1.1-0.4-1.6-0.6C339.7,435.3,338.3,438.9,336.9,442.6z M355.2,392.3c5.5,4.2,6.5,4.1,8.9-1.1
		C361,391.6,358.6,391.9,355.2,392.3z M42.9,31.5c0-0.4,0-0.7-0.1-1.1c-3.5,0-7,0-10.5,0c0,0.4,0,0.7,0.1,1.1
		C35.9,31.5,39.4,31.5,42.9,31.5z"/>
	<path class="st0" d="M1.1,53c0.7,23.8,1.3,47.9,2,72.1C3.3,101-2.3,76.9,1.1,53z"/>
	<path class="st0" d="M245,110.6c1.9-0.2,3.7-0.3,6.1-0.6c3.9-3.2-2.4-10.2,5.3-13.9c-0.7,5.5-0.9,10.3-2.1,14.9
		C253.4,114,249.8,114,245,110.6z"/>
	<path class="st0" d="M237.4,73.9c-7.8-3.9-10.3-14.8-5-22.8C231.1,59.9,232.6,67.2,237.4,73.9z"/>
	<path class="st0" d="M181,50.7c-4.1,8.9-0.5,16.2,5.1,23.1C177.7,71.1,174.7,58.2,181,50.7z"/>
	<path class="st0" d="M136.9,68.9c-1.4-4.6-2.9-9.2-4.5-14.4c-3.3,7.3,1.7,12.1,4.3,17.6c-8.1-3.8-10.1-15.1-4-22.4
		c1.9,6.4,3.8,12.5,5.6,18.7C137.8,68.6,137.4,68.7,136.9,68.9z"/>
	<path class="st0" d="M88.3,49.2c-2.6,7.8-1.7,15,3.1,21.7C83.8,65.8,82.4,56.1,88.3,49.2z"/>
	<path class="st0" d="M202.1,396.4c-4.8,5.6-8.7,7.7-12.5,6.6c4.2-2.3,8.2-4.6,12.3-6.8C201.9,396.1,202.1,396.4,202.1,396.4z"/>
	<path class="st0" d="M192.6,91.7c-4,0.6-8.1,1.3-12.5,2c1.3-6,7.3-8.9,11.3-6C192.4,88.3,192.2,90.3,192.6,91.7
		C192.6,91.7,192.6,91.7,192.6,91.7z"/>
</g>
</svg>
