<svg xmlns="http://www.w3.org/2000/svg" viewBox="0 0 284.1 400" enable-background="new 0 0 284.1 400"><path d="M.4 328v-11.2l2.9 4.9.6-.1v-8.7h.7c.1 1.5.2 2.9.4 4.7.8-1.1 1.3-1.8 1.7-2.5.2-.3.2-.9 0-1.2-.5-1.2-1.2-2.3-1.9-3.7h-1.8c-.2.7-.3 1.3-.4 2h-.6c0-.9-.1-1.8.2-2.5.4-.8 1.3-1.5 2-2.2 0-.4.2-.3.5-.3.6-.1 1.6 0 1.7-.3.3-1.1.4-2.2.6-3.3l-1.9-.3-4.5-.6v-1.2c1-.3 2-.8 3.1-1l12.4-1.1c1.4-.1 2.7-.3 4.1-.6.3-.1.5-.4.7-.7-.3-.2-.7-.7-1-.6l-2.6.5-8 .4c-1 .1-1.9.8-2.9 1-.9.2-2 .4-2.9.1-1-.3-1.9-1.2-2.9-1.8v-22.7c1-1.1 1.4-.8 1.6.5l.6 4.5c.3 0 .5 0 .8-.1v-6.6c1.8 0 3.5-2.4 5.4 0l.8-2.3c.5.7.8 1.2 1.2 1.7.1-.1.2-.1.4-.2-.2-.9-.3-1.9-.5-3.1-2.1.2-4.2.6-6.3.6-.9 0-1.7-.7-2.6-1.1.6-.6 1.2-1.4 1.9-1.8.6-.3 1.5-.2 2.2-.3l6.9-.4c1.5-.1 3-.1 4.5 0 1.4.1 2.4-.2 3.4-1.4-.6-.2-1-.5-1.4-.5l-10.5.2c-2.7.1-5.4.1-8.2.1v-2.7c4.7-.1 9.3-.5 13.9-1.2-1.3-.4-2.6-.4-4-.4-1.4-.1-2.8-.2-4.1-.4-.9-.1-2 0-2.7-.5-1.1-.7-2-1.2-3.1-.2v-59.7c.6.1 1.2.2 1.9.3 2.1.3 2.8-.4 2.8-2.4-.9-.7-1.7-1.3-2.5-1.8-.7.4-1.4.8-2.2 1.2v-20.4c1.3.1 2.6.1 3.8.2 0-.2.1-.4.1-.7-1.3-.2-2.6-.5-4-.7v-2.3c.8-1.4 1.7-2.9.8-4.7-.3.2-.6.3-.8.5v-166.3c2-.1 4.1-.3 6.1-.2l10.9.3 13.2-.3c4.3 0 8.7.3 13 .2l22.3-.4c4 0 8.1 1.3 12.1-.2.2-.1.4 0 .6 0 3.9.1 7.8.3 11.7.3 11.8 0 23.6-.2 35.3-.1l21.5.3c5.5.1 11 0 16.5 0l15.6-.2c5.8 0 11.6.1 17.4.4 2.9.2 6.1-1 8.5 1.5.2.2.7.2 1.1.3.7-2.4 1.5-2.5 4.2-.5 1.3-2.8 2.2-2.9 5.8-.6-1.2 1.5-.8 1.4-.5 3.7.4 2.9.3 5.8.2 8.7 0 3.4-.2 6.7-.3 10.1l.6.3c.1-2 1.1-2.8 2.6-2.8-.6 1.2-1.1 2.4-1.7 3.7-.5.2-1.2.6-1.8.8.1 1.2.1 2.1.2 3.1l.2 7.5c0 1.1.3 2.3-.1 3.2-.7 1.7-.5 3.3-.4 5.1.2 1.7-1 4.1 2.5 3l.3.2c1.3.7 2.1.2 2.7-1 .3-.6 1-1.2 1.5-1.3 1.4-.2 2.5-.6 2.2-2.5.9 1.8 2.1 2.3 3.6 1.8.3-.9.6-1.9 1.3-2.1 2.6-1 5.2-1.7 7.9-2.5-.2-.4-.6-.9-.8-1.5-.5-1-1.1-1-2-.5-1.3.6-2.6 1.1-3.9 1.6-3.2 1.2-6.4 2.3-9.6 3.4-.9-3.6-.4-7.9.8-8.1.4.3.7.6 1.4 1.1.2-1.6.3-2.9.5-4.1-1.2 2-1.8 2.1-3.6.6.5-1.3 1.1-2.6 1.4-4 .1-.4-.5-1-.9-1.3-.3-.2-.9-.1-1.9-.2 1.1-.7 2-1.1 2.1-1.5.2-2.1.1-4.2.1-6.1-1.1-.3-2.1-.6-3.5-1 .9-.7 1.5-1.4 1.9-1.4.9.2 1.7.7 2-.5.2-.7 0-1.5-.1-2.5-.9.2-1.5.4-2.1.5l-.5-.3c2-1 3.2-2.3 2.3-4.6-.3.1-.6.1-.9.3-.9.6-1.9 1.3-2.6.2-.7-1.2.4-1.6 1.3-2 .9-.4 1.7-1.1 2.2-1.4-1.2-1-2.6-1.6-2.9-2.6-.3-1 .3-3.2.8-3.3 2.7-.5 5.6-.4 8.4-.6 1.5-.1 2.1.4 2 2-.1.8.3 1.5.5 2.3l.8-.2c0-.5-.2-1.1-.1-1.6.2-.9-.9-2.2.9-2.4 2.2-.3 3.3.2 3.5 1.8.2 1.3.8 1.9 2.2 1.9l1-1.7c-.7-.4-1.3-.8-1.8-1.2l.2-.8h3.7c.3 0 .8.4.8.6.1 1 .2 2.1.2 3.1 0 1.6-.1 3.2-.1 4.7 0 1.1.3 2.2.5 3.3.3 0 .6.1.8.1.3-1 .9-1.9 1-2.9.1-2.5-.1-5.1-.1-7.6 0-.4.3-.8.4-1.2.4.3 1 .6 1.1 1 .2.7 0 1.5.1 2.3 0 1.5-.9 3.2 1.3 4.2.2.1.1 1.1-.1 1.6-.3.9-1.1 1.6-1.2 2.5l-.7 10.1c-.1.7-.3 1.4-.5 2.2l-.5-.1v-9.3c0-.6-.5-1.2-.8-1.7-.5.6-1.3 1.1-1.4 1.7-.2 1.6 0 3.3 0 5 .1 4 1.2 8 .5 12.1-.1.6-.4 1.1-.6 1.7l-.5-.1v-2.2c-.5 0-.8-.1-1.1-.1-.3 0-.5 0-1-.1 2.2-1.6 2.5-3.5 1-5.5-.2 1.4-.3 2.6-.5 3.8-.2-4.2-.2-8.3-.3-12.3 0-.6-.6-1.2-1-1.8-.7.5-1.8.9-1.9 1.5-.3 1.4-.1 2.9 0 4.4.1 1.2.4 2.5.6 3.4-.3.4-.7.9-.8 1.4-.3 2.3-.4 4.5-.6 6.8l-.3 2.9c-3-.8-3.9-.5-4.9 1.1l-3.2-.9-.6 3.6.5.4c3.3-2 7.4-1.7 10.4-4.6.3-.3.8-.6 1.2-.6 2.8-.1 5.4-.6 7.5-2.7.2-.2.7-.1 1-.1 0 .3.2.8 0 1-.7 1.3-1.5 2.5-2.3 4-.1-2.2-1.4-2.3-3-1.8-.9.3-1.9.7-2.7 1.3-.5.3-.7 1-1.1 1.5.7.2 1.4.7 2.1.6l9.1-.5c1.3-.1 2.6.2 4 .3-.2-.6-.3-.9-.4-1.3 1.1.1 2.1.2 3.5.3-.3-1.1-.3-2.1-.8-2.6-1.5-1.3-3.3-2.4-5.3-3.8 2.2-.8 4.1-1.6 6.1-2.4 0-.2-.2-.7-.2-.7.9-.6 1.7-.9 2.2-1.5.7-.9 1.1-2 1.7-3.1-.4-.2-1.3-.9-1.9-.8-2 .4-1.9-1-2.1-2.1-.1-.9.1-1.9.2-2.9.5-.1 1-.3 1.5-.3 1.9.1 3.3-.2 3.3-2.6 0-.4.7-.9 1-1.3l-.4-.5-3.5 2.8-1.2.8c-.2-.4-.6-.8-.7-1.2l-.1-2.1c-.1-1.3-.4-1.9-1.8-1-1.4.9-1.5 2.3-.4 4 .3.4.8 1.2.6 1.4-.8 1.1-.5 2 .2 2.9.2.2-.1.8-.1 1.3l-.1 1.4c0 .9-.1 1.9-.1 3.1l-2.2-2.1c-.7 1-1.3 2.1-2.2 3.5-.4-.4-1-.9-1.4-1.6-.5-.9-.9-1.9-1.5-3.2.2-.5.9-1.5.9-2.5.1-2.1-.1-4.2-.1-6.2v-2.3c.1-3.3.4-6.6.3-9.8 0-1.2.2-1.7 1.3-1.7h13.8c1 0 1.3.5 1.3 1.4-.1 2.2 0 4.4-2.7 5.4l1.4.3c.5.9.9 1.4 1.2 2 .6-.4 1.3-.8 1.8-1.2.4.6.8 1 1.1 1.5l.7-1.5c.1-.3 0-.7.2-.9 1.2-1.2.7-1.9-.7-2.3.4-.9.8-1.8 1.2-2.6l-.7-.3c-.5.8-.9 1.6-1.6 2.7-.2-1.8-.3-3.1-.5-4.7h2.5c2.5.1 3.2 1 2.6 3.4-.1.6-.1 1.6.1 1.7.8.2 1.7.3 2.4 0 .3-.1.5-1 .6-1.5.1-.5-.2-1-.2-1.5.1-.6.1-1.7.5-1.8.6-.3 1.5-.2 2.2.1.4.2.5 1.1.5 1.7 0 .7-.2 1.5-.3 2.2 2.3.3 2.5.1 2.5-2 0-.6.3-1.8.5-1.9 1.4-.1.8 1.1.8 1.8 0 1.6-.2 3.2-.1 4.8l.4 7.1c0 1 .4 2.3-1.5 2.8-.1-1-.1-1.8-.1-2.7 0-2.3.2-4.6.1-6.9 0-.6-.4-1.5-.9-1.7-.5-.2-1.6.2-1.9.6-.9 1.4-1.8 2.6-3.7 2.8-.7.1-1.5 1.5-1.9 2.5-.4.8-.3 1.8-.5 2.7l-.7.1-.8-2c-.2-.4-.5-1-.7-1-.4 0-.9.3-1.2.6-.3.3-.4.8-.6 1.2-.4.7-.9 1.4-1.5 2.3-.7-1-1-1.5-1.5-2.3-.4 1.3-.7 2.1-.9 3-.2.9-.6 1.9-.3 2.6.5 1.4-.1 2.3-1 3.2.9-2.5-2.2-1.9-2.4-3.7-1.3 2.9-1 3.4 1.7 3.6l.8.1c-.5 2.4 1.4.7 2.1 1.3-.7-1.4-.6-2.6.8-3 1.3-.4 1.2-1.2 1.4-2.1.2-.7.8-1.7 1.4-1.9 2.7-.6 4.6.9 5 3.7.1.4.2.8.1 1.1-.1 1.3.5 1.8 1.7 2.5 2.5 1.3 4.6 3.3 5.4 6.2.5-.1 1-.1 1.6-.2.1.5.2 1.1.2 1.6s-.1 1 0 1.5c.5 1.2 1.2 2.4 1.5 3.7.3 1.1.2 2.3 0 3.4-.1.3-1.5.2-2.4.3-.9.1-1.8.3-2.6.4v.8c1.1.2 2.1.5 3.2.5 1.5-.1 2 .5 1.8 1.9-.1 1.1-.3 2.2-.3 3.2 0 3.6 0 7.3.1 10.9.1 1.9-.7 2.7-2.6 2.5-.3 0-.5-.1-.8 0-.4.2-.8.4-1.2.7.4.5.6 1 1.1 1.4.2.2.7 0 1.1 0 1.7-.2 2.4.6 2.3 2.2-.1 1.1-.2 2.2-.2 3.2.1 3.5.3 7 .3 10.5 0 1.8-.2 3.7-.4 5.5-.1.8-.5 1.7-1 2.3-.2.2-1.2-.4-2-.7l-.5 4.7h-.5c-.4-.5-.7-1-1.3-1.8-.8.9-1.9 1.6-2.2 2.5-.4 1.4-.3 2.9-.3 4.4l.1 7.8c0 4.4-.3 8.8-.2 13.2.1 7.7 1.1 15.4.5 23.1-.4 4.7-.2 9.4-.3 14.1l-.5 8.2-.4 10.5-.8 13.3c-.2 3.2-.2 6.5-.3 9.7 0 .3-.3.6-.4.9-.2 0-.3 0-.5-.1v-14.4h-.5c-.2 2.1-.7 4.2-.6 6.2.1 4 .1 8 .8 12 .9 5.2.9 10.4.8 15.6-.1 4.2-.3 8.4-.6 12.6-.2 2.6.3 3.1 2.9 3.2.5 0 1.3.7 1.5 1.2.6 1.8.9 3.7 1.3 5.2.9.6 2.1 1 2.1 1.4-.1 1.1-.5 2.3-1 3.4-.3.8-1.2 1.6-1.2 2.4-.2 2.7-.2 5.4-.3 8.2-.2 8.1-.7 16.1-.7 24.2 0 10.3.4 20.6.5 30.8 0 1.6.9 2.1 1.9 1.9 1.6-.3 2.7.4 3.7 1.5.3.3.4.8.6 1.3-.5.2-1 .7-1.4.6-1.3-.3-2.6-.9-3.9-1.3l-.4.2c1.4 1.9 2.8 3.8 4.4 5.9-.9.2-1.6.3-2.7.6 1.7 1.4 3 2.6 4.4 3.8-.2.3-.4.6-.6.8l-2.6-1.7c-.9-.7-1.8-1.9-2.7-2-2.5-.2-2.6-1.3-2.1-3.2 0 0-.2-.1-.6-.5-.3.8-.6 1.4-.7 2-.2 2.5 2.3 3.3 3.5 4.9.9 1.1 2.5 1.6 3.9 2.3 1.1.6.9 1.3.3 2.1-1.1 1.5-3.1 2-4.9 1.3l-1.3-.4c-3.2-.9-6.3-2.3-8.7-4.6-.3-.3-.8-.5-1.2-.5-3.3.5-5.8-1.3-8.3-3l-2.3-1.6.3-.6 6.3 2.8.3-.6c-.7-.8-1.4-1.6-2-2.5-.4-.5-.7-1.2-.7-1.8l.4-8c.1-1.9 0-3.8 0-6-2.1.7-3.2 1.5-2.7 3.6.3 1.3.4 2.8.3 4.2-.1 1.4-.5 2.9-1 4.2-.3.7-1.1 1.3-1.9 2.2-.9-1.1-1.9-2.3-3.2-3.8 1 .1 1.5.1 2 .2.1-.4.2-.6.2-.8-.3-1.6-.7-3.1 1.6-3.5.3-.1.6-1.1.7-1.7v-5.3l.5-6.3c.1-1.5-.1-2.9-.1-4.4l-.6-18.7c-.2-8.4-1-16.8-.4-25.2.1-1.1-.8-2.2-1.3-3.4-.5-1.3-1.1-2.6-1.6-4-.1-.3-.2-.7-.4-1.4 6.2 3.4 12.6 2.9 18.9 3.1-.8-.6-1.6-1.2-2.4-1.4-4.3-.8-8.6-1.4-12.9-2-1.5-.2-3.1.2-3.2-2.2 0-.5-1.2-1.1-2-1.3-2.4-.8-4.9-1.4-7.4-2.1-3.6-1-7.2-1.9-10.7-3-1.4-.4-2.7-1.3-4-2 .1-.3.2-.6.4-.9 2.3.6 4.7 1 6.9 1.7 6.1 1.9 12.1 4 18.2 6 .5.2 1.2.1 2.1.1-.6-1-1-1.6-1.4-2.2 3.5.2 3.1-2.3 3.4-4.4.1-.5.5-1.2.9-1.3 1.2-.2 1-.9.9-1.7-.1-.8-.1-1.6-.1-2.5.2-3.4.4-6.7.5-10.1 0-1.3-.6-2.1-2-2.3-2.3-.3-4.6-.7-6.9-1.1l-3-.3-.2.7c1.5.7 2.9 1.4 4.6 2.1-.1.5-.2 1.3-.4 2.5-.6-.9-.9-1.4-1.4-2-.5.5-.9 1-1.2 1.3-.4-.8-.8-1.5-1.2-2.4-.6.8-1 1.2-1.6 2.1 0-1.6.1-2.7 0-3.8 0-.4-.5-1-.9-1.1-.8-.2-1.7-.1-2.6-.1-.1.8-.1 1.5-.2 2.5-1.8-.6-3.7-.6-3.6-3.2-1.7.6-2.5 1.2-2.3 3.2.1 1.4-.9 3.4-2.1 4.3-1.1.8-2.1 1.2-2 2.7 0 .4-.7.7-1.1 1.1-.3-.4-.9-1-.8-1.3.6-2.2 1-4.4 2.7-6.1 4.8-5.1 9.4-10.2 14.1-15.3.7-.7 1.6-1.2 2.4-1.8l.4.4c-1.9 2.1-3.7 4.1-5.8 6.4.8.3 1.1.4 1.4.5 3.3.4 6.6.9 9.9 1.2.9.1 1.8-.4 2.7-.7v-.8l-6.6-1.8.3-1 4.8 1.3c.9.2 2.3 1.1 2.4-.6.2-2.7.5-5.4 0-8-1.1-5.3-2.7-10.5-4-15.8-.2-1-.3-2-.5-3.1.7.2 1.1.4 1.4.4 2.1.4 2.7.1 3.1-2.1.2-1.4.4-2.8.4-4.2.1-3.3.1-6.6 0-9.9 0-.6-.8-1.5-1.4-1.6-1.7-.4-2.6-1.3-2.6-3l-.1-3.8.2-8.5c0-2.5-.4-5-.3-7.4 0-.9.8-1.9 1.5-2.4.3-.2 1.4.5 2.1.8.2.1.4.1.9.3v-5.5l.3-20.9c0-2.3-.2-4.6-.3-6.9-.1-.9 0-2.1-.5-2.4-.5-.4-1.7-.2-2.5 0-1.8.5-3.5 1-5.2 1.7-1.1.4-2.1.9-3.1 1.5-.3.2-.7 1-.5 1.2.2.4.8.8 1.3.8 1.1-.1 2.1-.5 3.2-.7 1.6-.2 3.2-.3 4.7-.5l.1.7c-.9.4-1.8.9-2.6 1.3.5 1.7 1 3.3 1.6 5.1-.7-.1-1.4-.3-2-.2-3 .3-6.5-1.1-7.8 2-.5-.2-1.2-.9-1.8-.8-1.9.2-3.7.6-5.7.9.4.7.7 1 .8 1.4.4 2.1 1.7 2.4 3.7 2.1 3.2-.6 6.5-.8 9.7-1.1.6-.1 1.2.2 1.9.3l-.1.4c-1.1.6-2.2 1.3-3 1.7-1-.2-2-.7-2.9-.7-2.7.3-5.4.8-8.2 1.1-1.3.2-3 .6-2.3-1.8 0-.2-.2-.4-.4-.6-1-1.5-.9-4.2 0-5.5l2.1 1.1c.2-.7.8-1.8.7-1.9-.7-.5-1.6-.7-2.7-1.1-.4-12.4-.8-25.2.3-38 .4.6.5 1.2.5 1.8 0 4.5-.1 9 0 13.5 0 2.2.3 4.4.4 6.7.1 3.5.1 7.1.1 10.6 0 .8.3 1.6.4 2.4.1.6-.1 1.3.1 1.8.1.2 1.2.3 1.6 0 .4-.4.7-1.1.7-1.7.1-2.4.1-4.7.1-7.1l.1-21.3c0-1.1-.2-2.1 1.6-2.8v16.3h.6l.5-5.6.3-1.5c.5.3 1.3.5 1.4.8.4 1.5.7 3 .8 4.5.1 1.9 0 3.8 0 5.7 0 1.2.6 1.4 1.7.9 1.5-.7 3.1-1.4 5-2.3-2-1.2-1.9-3.3-1.1-4.7 1.3-2.4 1-4.1-.7-6-1-1.1-1.8-2.4-2.3-3.7-1.1-2.8-2-5.5-4.2-7.7l-4.3-4.5c-.6-.6-1.3-1.1-2.3-2-.2 1.7-.4 3-.6 4.4h-.3v-5.5c2.2.1 4.2.5 6.3.3 2-.1 4.2 1.5 5.8-.3.7.2 1.3.4 2.2.7-.1-.7-.1-.9-.2-1.1-.7-1.2-1.5-2.3-2.2-3.4-.7-1.2-1-2.6-1.8-3.7-1.6-2.2-3.6-4.1-5.1-6.4-1.2-1.8-2.8-1.5-4.6-1.8 1.3 3.4 1.3 3.3-2.2 4.1-1.5.4-2.9 1.3-4.4 1.9 0 .2.1.4.1.7 1.1.2 2.3.4 3.1.6-.2 3.2-.4 6.3-.4 9.4 0 4.2.1 8.4.3 12.6.3 6.5 1 13 1 19.5 0 7.5-.6 14.9-.8 22.4v15.7c0 1.4-.4 2.7-.6 4.1-.3 0-.5 0-.8-.1l-.3-4.4c-.2-1.6-.6-3.1-.6-4.7.2-9.4.6-18.8.7-28.2.1-7.2 0-14.4 0-21.5 0-4.2-.2-8.3-.3-12.5 0-.8-.3-1.6-.4-2.5.1-.9.4-2 .2-2.9-.4-1.4-.7-2.5.7-3.5.2-.2.1-.8.2-1.6-3.5.9-6.7 1.7-10.3 2.6.1-1.1.2-1.9.3-2.8l.4-1.7c-.7.2-1.5.3-2.1.6l-1.3 1.3c-1.2.5-2.5 1-3.8 1.2-1.7.3-1.4 1.6-1.3 2.5 0 .4 1.2.8 1.9.9.7.1 1.5-.2 2.2-.3.4 2.2 1.9 3 3.7 3.3 0 .9-.2 1.7.1 2.4.2.6.8 1.1 1.2 1.6.4-.4.9-.8 1.3-1.3.3-.4.3-.9.5-1.4.2 0 .4 0 .6.1.1.7.2 1.4.2 2.2-.2 5.2-.6 10.3-.7 15.5-.1 3.2.3 6.5.4 9.7l.3 11.7c0 4.1 0 8.2-.2 12.3-.1 4.4-.4 8.8-.7 13.2-.2 3.2-.6 6.3-.9 9.5 0 .1-.2.1-.7.3-.1-.9-.3-1.7-.3-2.6l.4-10.9.2-19c0-.5.2-1 .3-1.4.1-.7.4-1.5.4-2.2-.2-1.7-.7-3.3-.7-4.9l.2-8.8c.1-6.2.3-12.4.3-18.6 0-.5-.6-1.1-.9-1.6-.4.7-1 1.3-1 2l.5 10.6c.1 4.1.1 8.2-.1 12.2-.3 5.1-.9 10.2-1.3 15.2-.1 1.6.2 3.2.1 4.7-.3 2.3-.8 4.6-1.3 7-.1.5-.2.9-.4 1.3-.2 0-.4 0-.6-.1.1-1.1.2-2.3.2-3.4 0-1.2.2-2.3 0-3.5-.1-.8-.9-1.6-.8-2.3.2-1.9-1.4-2.5-2.4-3.4-.2-.2-1.1.1-1.2.4-.8 1.8-2.2 1.6-3.7 1.5-.3-1.5-.5-2.8-.8-4.2-.2 0-.4 0-.6.1-.1 1.4-.2 2.7-.2 4.1 0 2.3.7 2.6 2.9 1.6.8-.3 2.5-.3 2.7.1.5 1.2.5 2.7.6 4 0 .1-.6.2-.9.3-.4.1-.9-.1-1.3.1-1.2.6-1.8.1-2.3-.9-.3-.6-.8-1-1.3-1.6-.4 1.3-.3 2.3-.4 3.3 0 .4-.5 1-.8 1.1-.3 0-1.1-.5-1.1-.7-.1-2-1.1-3.9-.4-6.2.5-1.5-.2-3.4-.5-5.1 0-.1-.5-.2-1.2-.4.2 3.2.9 6.3-.6 9.1-.4-.4-.7-.9-.7-1.3-.2-3.7-.5-7.5-.6-11.2-.1-1.9.2-3.8.2-5.7-.2-5.5 0-11 2.4-16.1.1-.3-.2-1.2-.5-1.3-1.3-.3-1.4-1.2-1.2-2.2.5-3.4 1.1-6.8 1.6-10.1.2-1.6.8-3.1 2.2-4.1 1.6-1.2 1.4-2.8 1.3-4.5-2.2.3-4.3.4-6.3 1-.9.3-2 1.4-2.2 2.3-.3 1.6 0 3.3 0 5 0 6.2-.1 12.5.1 18.7.1 2.4-1 4.7-.4 7.2.6 2.6.3 5.3.4 8 .1 3.4.1 6.9.5 10.3.3 2.7.5 3-1.9 4.2-.4.2-1.1.2-1.6 0-.2-.1-.2-.9-.1-1.3.4-1.6 1.1-3.2 1.2-4.8.2-3.2 0-6.4 0-9.6l.1-15c0-1.5-.3-3.1-.4-5-3 2.6-1.1 6.1-2.7 8.5-.2-2.5-.3-4.9-.2-7.4.1-2.5.3-5 .5-7.5l-.7-.2-1.2 2.1c-.5 1-.8 2.1-1.5 2.9-1.1 1.3-.9 4.7.3 5.7-.1.7-.4 1.5-.1 1.8 1.2 1.3.6 2.4 0 3.3.9 2.7 1 5.2.7 7.8-.2 1.4-.4 2.9-.3 4.4.1 2.7.7 5.5.4 8.1-.5 3.8-1.6 7.6-2.5 11.3-.1.2-.4.4-.8.7-.2-.8-.3-1.5-.5-2.1-.7 1.2-1.2 2.3-1.3 3.6 0 .4.7 1.3.9 1.3 2.4-.4 4.8-.7 7.1-1.4 1.9-.5 3.8-1.2 5.8-.7-.8.6-1.6 1.1-2.4 1.3-3.1.6-6.3 1.2-9.4 1.7-1.2.2-2.8.2-2.6 1.8.3 1.8 1.9.8 3 .7.9-.1 1.8 0 2.7 0 0 .2 0 .5.1.7-2 .4-4.1.8-6.1 1.1-.3 0-1-.9-.9-1 1.1-1.4.2-3 .2-4.4.1-2.9.2-5.9.2-8.8 0-.6-.5-1.2-.9-2.2-.5 1.4-.6 2.2-1 2.8-.9 1.3-1.9 2.5-2.9 3.7 2.2 1.5 2.1 2.5.5 4.8l-2.2-1.2c-.2 1-.6 2-.6 2.9 0 1.2.6 2.5.4 3.6-.3 1.2-1.6 3.2-2 3.1-3.1-.9-5.4 1.3-8.1 1.8-.4.1-.8.9-.8 1.4.1.5.6 1.3 1 1.3 2.1.1 4.2.1 6.3 0 .4 0 .9-.7 1.2-1.1.2-.4.2-.9.5-2 1.5 3.5 3.8 1.3 5.8 1.4-.7 1.8-2 2.2-3.4 2.5-2.8.5-5.7.8-8.5 1.1-1.6.2-1.9.9-1.4 2.2 1.9 4.7 2.5 9.6 2.9 14.6.1 1.1.4 1.6 1.7 1.6 3.1 0 6.2.4 9.4.5.7 0 1.6-.3 2-.8 1-1.5 2.3-2.1 4-2.2 2.8-.2 5.6-.5 8.7-.8 0-.7.3-1.7-.1-2.2-1.2-1.6-2.7-2.9-4-4.4-.6-.7-1-1.5-1.3-2.3-.5-1.3.3-1.8 1.3-1.5 2.4.7 4.7 1.7 6.9 2.6.5.2.7.9 1 1.4-.6.1-1.2.3-1.7.2-1.1-.2-2.2-.5-3.6-.8 1.4 4.5 14.3 11.8 19 11.1-1.1-.9-2.3-1.9-3.5-2.8-2.7-1.9-5.3-3.8-8.1-5.6-1-.7-1.2-1.3-.5-2.2 2.4-2.9 4.8-5.8 7.3-8.5 1.1-1.2 2.6-1.3 4.1-.2 1.2.9 2.7 1.4 4 2.1.9.5 2 .8 2.7 1.5 1.9 2 3.6 4.1 5.4 6.1.4.4.8.8 1.3 1.1 1.3.9 1.6 1.9.7 3.3l-2.7 4.2c-2.1 3.1-1.1 6.9 2.1 8.4.3.2.8.2 1 .5.4.5.8 1 .8 1.6 0 .3-.9.8-1.3.8-1.7-.2-3.4-.6-5-1-1.1-.3-2.1-.8-3.4-1.4-.2 1.5-.8 2.8-.3 3.6 1.7 3.1 2.7 6.3 3 9.8.2 2.4-.1 3-2.5 3.5-1.1.2-1.4.6-1 1.7l3.3 7.9c1.6 3.6 1.9 7.2.5 11-.4 1-.4 2.1-.6 3.2-.9 4.4.7 9-1.6 13.2-.2.3-.1.9-.1 1.3l.2 11.8c.1 3-2.6 7-5.5 7.8-1.3.3-2.7.1-4.1.1l-3.8.1c0 .2 0 .4-.1.6.4.4.8.9 1.5 1.7-.8.2-1.7.5-1.9.3-1.5-2.2-3.6-1-5.4-.9-2.3.1-4.6.1-6.9.1-1.1 0-2.2-.2-3.2-.1-2.5.2-3.2 1.4-2.4 3.9.8 2.5 1.7 5 1.9 7.6.3 3.6 0 7.3.2 10.9 0 1 .6 2.2 1.3 2.9 1.5 1.6 3.1 3.2 4.9 4.5.6.4 1.8.3 2.6 0 1.4-.4 2.7-1.2 4-1.7 1.2-.5 2.5-1 3.8-1.4v-.6c-1.1-.4-2.2-.8-3.3-1.3-1.1-.6-2.2-1.4-3.3-1.9-1-.5-2.4-.4-2.4-2.8 2.8 1.3 5.2 2.5 7.6 3.7 1.5.7 2.9 1.9 4.5 2.2 1.2.2 2 .5 2.5 1.6.1.3.5.6.8.8 2.7 1.5 5.5 3 8.2 4.6l10.4 6.1c2.7 1.6 5.5 3.1 8.3 4.7.2.1.2.4.5 1-1-.2-1.8-.1-2.4-.4-4.5-2.4-9-4.9-13.4-7.4-3.7-2.2-7.3-4.5-10.9-6.8-2.1-1.3-4.2-2.7-7-1.7-2.5.9-5 1.5-7.5 2.3-.4.1-.8.5-1.4.9.8.7 1.4 1.3 2.1 1.7 2.5 1.5 5 2.8 7.4 4.4 3.5 2.3 7 4.7 10.4 7.2 2.3 1.7 2.7 4.5 1.3 7.2-2.3-2.8-4.3-.7-6.4.3-3.4 1.6-4.9 4.9-7 7.6-2.9 3.9-6.2 7.4-10.2 10.2-.7.5-1.6.6-2.5.8-1.1.2-2.2.3-3.3.4.2.2.3.4.5.7-.2.5-.3 1.1-.6 1.4-1.6 1.1-3.3 1.9-4.8 3-2.1 1.5-4.1 3.2-6.1 4.9-.4.4-.8 1.2-.8 1.8.1 1.6.5 3.3.7 4.9.7 4.8 1.3 9.6 2.1 14.4.6 3.4 1.5 6.7 2.2 10.1.2 1.1.1 2.3 1.4 3l7.3 4.1c1.1.6 1.8 1.2 1.6 2.5-.1.4.1.8.1.9 1.5.3 2.9.2 4 .8 3.1 1.6 6 3.6 9.1 5.3 6.2 3.3 12.6 6.4 18.9 9.7 1.4.7 2.6 1.8 3.9 2.8 1.4.2 3.3.2 4.6.9 1.3.7 2.5 1.1 3.8 1.6 3.6 1.3 7 3.1 10.5 4.7 2.8 1.3 5.5 3.1 8.5 3.9 3.5 1.1 5.2 3.5 6.7 6.9-1.7-.2-3.2-.5-4.7-.5-2.9 0-5.7.3-8.6.4-.5 0-1-.1-1.4-.4l-5-3-1.8-1.2c-1.2-.3-2.4-.7-3.4-1.4-1.7-1.2-2.8-1.3-4 .1 2.9 1.9 5.8 3.8 8.6 5.6-4.3-.6-9.1 1.9-12.8-2.6-.3 1-.6 1.8-.9 2.7h-41.5c-.5 0-1.1 0-1.5-.2-1.4-.7-2.7-1.5-4.3-2.4-.2-.4-.5-1.9-.8-1.9-1.8 0-2.2-1.7-3.4-2.5-1.3-.9-1.7-3-3.7-3.1-1.8-.1-2.5-1.2-2.8-2.9-.1-.5-.4-1.1-.8-1.5l-3.1-2.2c-1-.8-1.9-1.6-.8-3.1.2-.2 0-.9-.3-1.2l-2.8-2.6-7.5-8.5-7.5-8.1-5.3-5.8c-.8-.9-1.5-1.7-2.4-2.5-.9-.9-1.9-1.7-1.6-3.2.7.2 1.2.3 1.8.5l.3-.4c-.8-.8-1.8-1.5-2.5-2.4-.5-.6-1.4-1.4-1.3-2.1.3-2.4.6-4.9 1.4-7.2 1.1-3.2 2.6-6.4 3.9-9.5.5-1.2.2-2.7 1.7-3.4-.2-.5-.4-1.2-.7-1.4l-5.2-2c-1.7-.8-3.8-1.1-3.8-3.7 0-.4-.8-.9-1.3-1-2.7-.9-4.8-2.9-5.2-5.1-.7-3.8-.5-7.6.5-11.2 1.8-6.4 2.2-13 2.6-19.5l.3-11.9c.5-6.4 1.3-12.9 2.1-19.3.3-2.8.8-5.6 1.3-8.3.4-2 .8-4.1 1.2-6.2-1.9.3-3.4.5-5 .8l-18.8 3.4c-.5.1-1.2-.3-1.8-.5v-.9c1.8-.4 3.6-1 5.4-1.3 5.9-.9 11.8-1.7 17.8-2.5 2.1-.3 3.3-1.4 3.9-3.2 1.1-2.9 2-5.8 3-8.4-2.9-1.2-5.3-2.4-7.8-3.3-3.5-1.3-6.8-2.9-10.9-1.6-3.2 1-6.7.9-10.1 1.3-.5.1-1 .6-1.5.9.4.4.8 1 1.3 1.2 1.1.5 2.3.7 3.4 1.3 4.2 2.3 8.4 4.6 12.6 7 .8.4 1.3 1.3 2.3 2.3-2.6.2-3.7-1.2-5.2-2.1-4.1-2.4-8.2-4.6-12.4-6.7-2.1-1.1-4.1-2.7-6.8-2.4 0 1.4 1.1 2.9-.7 4.4-.1-.9-.3-1.4-.3-2 0-.7 0-1.3.1-2-3.9.1-4.6.6-4.5 3.4.1 3.6.6 7.2.6 10.9 0 2.4 1.6 3.1 3.4 3.7.3.1.6.1.9.3 1.9 1.4 3.8 3 5.8 4.3 4.6 3.1 9.3 6.1 13.9 9.1 1.3.9 2.7 1.6 4.2 2.6-1.9 1.1-2.5 1.2-3.8.4-2.1-1.3-4.2-2.7-6.3-4.1l-6.2-3.9v.7c-.5.3-1 .8-1.4.7-.8-.1-1.5-.6-2.2-1-1-.5-2-1.1-3-1.7l-.4.6c.4.4.7.9 1.1 1.2 3.7 2.5 7.4 5 11 7.5 3.2 2.2 6.5 4.5 9.7 6.8 1 .8 2 1.8 1.5 4-9.1-5.9-17-13-26.6-18.6-.1 2.1 0 4.1-.2 6-.4 4.1-1 8.2-1.6 12.3-.1.6-.6 1.1-.9 1.6-.3-.6-.9-1.2-.8-1.7.4-2.7-.4-5.4.1-8.3.7-3.6.1-7.5-.1-11.3 0-.7-.8-2-1.3-2-2-.2-1.8-1.4-1.8-2.7-.1-1.3-.1-2.6-.4-3.8-1-3.9-.6-4.4 3.8-3.6-.4-.9-.6-1.5-.9-2.1-.2-.4-.7-.8-.7-1.2-.1-2.3 0-4.6-.2-6.8-.1-.7-.5-1.6-1.1-2-.8-.6-.8-1-.2-1.7 1.5-1.8 1.3-4.2-.5-5.9-.3-.3-.5-1-.3-1.2 1.3-1.4.4-2.8 0-4.1-.2-.7-.6-1.3-.7-2 0-.4.4-.8.6-1.2.3.3.7.6.8.9l1.6 5.5c.5 1.5 1.1 3.1 3.2 1.9.9 1.3 1.5 2.7 3.3 2.4.2-1.5.3-2.9.5-4.7 1.6 1.2 1.5 2.4 1.2 3.6-.4 1.4.2 2.3 1.6 2.1 4.8-.5 9.6-1.1 14.5-1.7.3 0 .5-.2 1.1-.5-1.1-.5-1.9-.9-2.7-1.3l-4.8-1.8-10.7-4c-.4-.1-.7-.5-1-.8-1.2-1.2-3.3-1.5-4.8-.6-.4-3.8-4-2.9-6.2-4.8-.3 2.9.3 5.9-3.2 6.6.7.8 1.3 1.4 2.2 2.4-2.1-.3-2.3.8-2.6 2-.2.6-1 1.3-1.6 1.5-.4.1-1.3-.3-1.5-.7-.9-1.3-1.6-2.8-2.4-4.1-.4.5-.3.8-.4 1-.2.6-.5 1.1-.8 1.6-.3-.4-1-.8-1-1.3-.1-1 .1-2 .2-3.2.9.4 1.3.6 1.8.8l.6-.2c-3.1-2.1-.1-4-.1-6-.9.1-1.5.3-2.1.2-.6-.1-1.3-.4-1.9-.7-.5-.3-.9-.7-1.3-1 .5-.2 1.1-.6 1.6-.6l1.4.5c.4 0 1.1-.5 1-.7-.3-1.6-.7-3.2-.9-4.5-1.2.1-2.2.4-3 .2-1-.3-2.7-1-2.7-1.5 0-1.9.6-3.7 1-5.8-.9-.7-2-1.6-3.1-2.5 1.3-.3 2.3-.2 3.2-.3 1.3-.2 2.3-.2 1.7 1.9.9-.5 1.6-.7 1.9-1.1.4-.5.6-1.3.6-1.9 0-.3-1-.6-1.5-.6-.9-.1-1.8.1-2.9.2-.4-1.2-.7-2.4-1.2-3.8.1-.4.8-1.3.5-1.7-1-1.6.1-2.2 1-3.3.4.8.6 1.4.9 1.9.2.4.7.6 1 .9.1-.5.4-1 .2-1.5-.2-.6-.7-1-1.1-1.5.9-.5 1.7-1 2.4-1.4l-.6-.3v-5.2c-2.1-.8-2.3-.7-2.4 1.5 0 .9.3 1.9.2 2.8 0 .5-.3 1.1-.7 1.5-.1.2-.9.1-1-.1-.2-.4-.1-.9-.2-1.3 0-.4-.1-.8-.2-1.2-.5-2.7 0-5.3.5-8.3.8 1.3 1.3 2.2 2 3.4.6-1.2 1-1.9 1.3-2.6-.3-1-.3-2-.2-3 0-.4.3-.8.2-1.1-.4-2.5-.7-5.1-1.3-7.6-.4-1.7-.7-3.3.7-4.7-2.2-2.4-.6-4.7.1-6.5-.5-1.3-1-2.1-1.1-3-.2-2.7-.2-5.5-.1-8.2 0-.4.6-.9 1-1.2 1.2-.8 1.2-1.4.1-2.2-.3-.2-.6-.5-.8-.7.1-.3.2-.5.3-.6 1.8-1.7 1.7-1.6.1-3.5-.3-.4-.1-1.3.1-1.9.2-.4.8-.6 1-.7-.8-.7-1.8-1.2-2-1.9-.4-1.7-.5-3.5-.7-5.5 1.6-1.4 1.4-2.2-1.6-5.1-.5.4-1 .8-1.6 1.1l.6-.1c.4.7.9 1.4 1.1 2.1.3 1.3.5 2.6.7 4 .1.8.2 1.6.2 2.4-.1.6-.5 1.2-.8 2-1.9-.9-1.1-2.8-1.7-4.5v16.7h-.3c.3.6.6 1.2 1.1 2.3-3-1.5-3.6-3.8-4.5-6.2-.4.8-.7 1.7-.7 2.5.2 4.6.6 9.2.9 13.9.1 1 0 2.1 1.4 2.5.4.1.7 1.1.7 1.6 0 2 0 4-.1 6 0 .5-.6 1-.9 1.5-.3-.5-.7-1-.8-1.5-.6-3.4-1.2-6.9-1.7-10.4l-1.4-11.9c-.1-.5-.3-1-.5-1.4l-.4.2v4.9c-.2 0-.5 0-.7.1l-1-4.5c-.4 3.5-.5 7-.3 10.4.1 1.4.3 2.6-.2 4-.3.8.3 1.9.5 2.9.1.5-.5 1.4-.4 1.5 1 .9.7 1.9.7 3 .1 1.9.6 3.8.9 5.7.2 1.1.2 2.3.3 3.9-2-1.3-3.5-2.4-5-3.4-.2.2-.4.3-.5.5.2 1.2.7 2.5.7 3.7-.2 2.6 1.4 5.2-.1 7.7-.1.1 0 .2 0 .4.2 2.7.6 5.4.7 8.1.1 2.3 1.1 4.1 2.6 5.8.3-2.3-2.4-4.9 1.3-6.7-1-.2-1.7-.3-2.5-.4 1.7-1.4 1.9-4 .9-5.8-.6-1.2-.9-2.6-1.1-3.9-.1-.4.5-1.3.7-1.3.7 0 1.4.3 1.9.7.2.2.1.9-.1 1.3-.5 1.5-.6 2.9.2 4.4.6 1.2.9 2.7 1 4 .1 1.4-.6 2.9 1.1 3.9.2.1.1.8.2 1.3.3 1.5.7 3 1.1 4.5l.4 1.2c.3 1.9.6 3.7 1 5.7.6-.4 1.1-.7 1.8-1.2 0 .7.2 1.3 0 1.5-1.2 1.2-.7 2.5-.7 3.9 0 2.2 2.4 4.5-.1 6.6-.1.1.1.4.1.5l-.2 2.4c1.9.4 2.3 1.6.6 4.1 1.2-.3 2-.5 2.9-.7.9 1.3.8 1.2-.1 2.5-.4.5-.5 1.4-.3 2 1 2.9 1.1 2.8-2 4.1.8.7 1.4 1.4 2.1 1.8 1.9 1.2 3.4 4.8 2.2 6.1-1.2 1.4-.5 2.5.2 3.4.4.5 1.6.2 3 .3.5.5.3 1.2-.2 2.6-.7 1.9-.4 4.2-.4 6.4 0 .8.7 1.6 1 2.4.9 3 1.8 6.1 2.6 9.1.5 1.9.8 3.9 1.5 5.7 1.2 3.2 2.9 6.2 2.8 9.7 0 .5.7.9 1.1 1.4l1.4 1.4 1.4 2.6c1.1 1.7 1.5 4 .6 5-.5.7-1.1.9-1.6 0-1.2-1.9-2.5-3.6-3.5-5.6-2.2-4.3-4.3-8.7-6.1-13.2-1.7-4.2-2.8-8.6-4.3-12.9l-3-8.6c-1.3-3.8-2.6-7.6-3.9-11.5-1.1-3.3-2.3-6.7-3.2-10.1-.8-3-1-6.1-1.7-9.2-.4-1.5-1.3-2.9-1.8-4.4-.5-1.6-.4-3.2-1.9-4.4-.7-.6-1.9-2 .2-2.9.2-.1.1-1.5-.2-2.2-.2-.5-.8-.8-1.4-1.3 2-.6 1.5-1.5.4-2.3-1.1-.9-2.3-1.7-3.3-2.5v2.7c-1.1-.1-2.2 0-3.2-.3-.8-.2-1.4-.7-2.1-1.1-1.3-.7-2.6-1.4-3.8-2.1-.7-.2-1-.9-1.6-1.3-.8-.6-1.5-.4-1.6.8-.2 2.4.9 4.2 3.2 4.9.8-.5 1.8-1.1 2.6-1 1.1.1 2.1.8 3.1 1.3 2.5 1.4 4.4 3.4 5.2 6.2.2.8-.2 1.7-.1 2.6.1 2.4.5 4.7 2 6.9-1.1-.4-2.3-.8-3.9-1.4.5 1 1.1 1.6 1 1.8-1.4 1.6.5 1.8 1.1 2.5 1.1 1.2 2.3 2.2 3.4 3.2.7.4 1.8.5 2.1 1.1 1.3 2.5 2.4 5.2 2.3 8.7-6.5-4.7-12.8-9.2-19-13.7-.2.2-.3.4-.5.5l6.3 5.8s.1 0 .2.1l1.9 2.1c-.2.2-.4.4-.6.7l-8.1-6.5-.7.8c.6.7 1.6 1.3 1.7 2.1.5 2.1 2.2 2.9 3.5 4.1.6.5 1.2 1.2 1.6 1.9.2.3-.1.9-.2 1.4-.4-.1-1-.1-1.3-.3-1.4-1.2-2.8-2.3-3.9-3.7-1.4-1.9-3.2-1.5-5-1.5.2 2.8 3.1 0 3.4 1.9-.5.9-1.2 2.3-.9 2.7 1.6 1.7 2.4 4.1 5.1 4.9 1.4.4 3.3 2.1 3.4 3.4.2 1.3.1 2.2 1.4 2.8.3.1.3.7.5 1 .4.6.8 1.2 1.3 1.7l4.6 4 1.8 2.2c1.1.9 2.6 1.3 3.6 2.3 1.5 1.5 2.8 3.3 4.1 5 .3.4.3.9.5 1.4l-.5.3-1.5-1.2-3.9-3.2c-.5-.4-1.1-.9-1.5-1.4-1-1.1-1.8-2.5-2.9-3.5-1-.9-2.3-1.4-3.4-2.1-.7-.9-1.3-1.9-2.2-2.8l-8.1-8.1c-.2-.2-.3-.5-.5-.5-1.1-.2-2.2-.3-3.5-.5.8-.8 1.2-1.3 1.8-1.9-.9-.9-1.7-1.7-2.7-2.3-.5-.3-1.4-.5-1.9-.2-.8.4-1.5 1.2-.6 2.2l2.5 2.7 3 3.1c2.1 2 4.2 4 6.2 6.1.5.5.5 1.4.8 2 .2.3.5.7.8.9l3.9 2.8c-.1.2-.3.4-.4.5-3.8.3-6.2-1.8-7.8-5.2.2-.3.5-.6.9-1.1-.4-.1-.6-.3-.9-.3-2.9-.1-4.8-1.4-5.6-4.3-.1-.5-.5-1.1-.9-1.2-1.3-.2-1.2-1.2-1.6-2-.5-1-1.7-2.4-2.4-2.3-1.9.3-2.5-1.1-3.5-1.9-.8-.6-1.4-1.5-2-2.2-.2.2-.4.4-.7.6 4.7 6.2 10.2 12.2 16.6 18.3-1.7.4-2.8.6-3.9.8 0 .3 0 .7.2.8 2 2 4.1 3.9 6.2 5.8.2.2.6.2.9.2 2.2-.6 3 0 3.2 2.5 1.7-1 2.6.3 3.4 1.4.2.3-.7 1.4-1 1.9-1.1-.7-1.9-1.2-2.6-1.7-1.3-.9-2.7-1.9-3.9-2.9-1.2-1-1.8-.9-2.3.7-.6 1.9.2 2.5 2.4 2.3.6-.1 1.3.3 1.8.6.2.1.4 1 .2 1.1-1.7 1.6-.4 2.2 1 3.1-.6.3-1.6.5-1.6.3-.8-1.7-2.2-1.7-3.6-1.5-.7-3.1-.7-3.2-2.5-2.1 1.3 2.5 4.4 4.2 3.4 8.1.9-.2 2-.1 2.2-.5.3-.6.1-1.6.1-2.4-.1.1 3.7-2 3.2-1.8.8 1 1.6 1.9 2.2 2.9.3.4.3.9.4 1.3-.5 0-1 .1-1.3-.1-.7-.4-1.4-1-2.2-1.6-.2 2.1.9 2.7 5 3.1l-.8-2.5.6-.3c.5.9 1.2 1.7 1.6 2.6.4 1.2.9 1.3 1.8.6.3-.2.6-.2 1.5-.5-.6 1.1-.9 1.7-1.1 2 1.2 1 2.3 2 3.8 3.3-3.4.4-2.2 3-3.2 4.6.9.1 1.7 0 2.5-.1.7-.1 1.4-.1 2.2-.1-.2.6-.4 1.2-.6 2.1 1.8.5 1.1 1.9.8 3.2-.1.3-.3.6-.4 1-.3-.2-.8-.4-1-.7-.7-.8-1.2-2-2.1-2.6-1.6-1-2.5-2.2-2.7-4.1 0-.3-.4-.6-.4-.6-.8.1-1.5.5-1.8.3-1.2-1.1-2.3-2.4-3.6-3.8l3.4-.2c-1.5-1.4-2.7-2.3-3.7-3.3-1.5-1.6-3.1-1.8-5-.8-1 .5-2.1.7-3.2 1 .4 1.5 1.7 1.6 3.1.8.8.6 1.5 1.1 1.9 1.4 1-.6 1.8-1.1 2.5-1.5.1 0 .7.7.6.8-.5.6-1.1 1.1-1.7 1.7.3.6.5 1.8 1.1 2 2.6 1.2 2 3.7 2.8 6-.7-.3-1.1-.6-1.5-.6-.9 0-2-.3-2.5.1-.6.6-.6 1.6.3 2.5.8.8 1.4 1.4 2.5 1.7.6.2 1.1 1.1 1.5 1.8.3.6.3 1.4.8 1.9.9 1 1.6 2.7 3.5 1.2.3-.2 1.1.2 2 .3-.8.9-1.2 1.4-1.8 2.1.8.7 1.4 1.6 2.3 2 2.3 1 2.6 3.3 3.7 5.1.1.2-.3.7-.5 1.1-.3-.2-.8-.3-.9-.6-.3-2.2-1.9-1.4-3.3-1.4.2.4.6.7.9 1l3.7 2.9c.3.2.5 1 .4 1.2-.3.3-.9.6-1.3.5-.5-.1-1.1-.4-1.5-.8-1.2-1.2-2.3-2.4-3.4-3.6-2.3-2.5-4.6-5-7-7.4-1-1-2.3-1.8-3.4-2.7l-.3.3c.6 1.3 1.2 2.6 1.6 3.4-.6.8-.9 1.5-1.4 1.9-.3.3-1.2.4-1.3.2-.7-1.1-1.3-2.4-2-3.6.5-.2 1-.4 1.6-.7l-1-.9c-3.1 0-4.6-2.1-5.7-4.6-.8-1.6-2.3-2.3-4-2.7 1 2 1.3 4.6 3.7 4.8.5 1 .7 1.5 1.1 2.1.2.4.7.7.8 1.1.4 2.3 2.2 3.7 3.6 5.3.7.7 1.8 1.1 2.9 1.8 0 .2-.3 1.1 0 1.5 1.2 1.6 2.4 3.2 3.9 4.6 1.9 1.7 2.4 3 1.6 5.6-.1.3.1.6.2 1.2.7-.5 1.3-.9 1.9-1.3.4.5.7.9.9 1.3.9 2 1.9 3.9 4.2 4.7.4.1.7.7.9 1.2l1.3 4.2c.5 1.3 0 2.3-1.2 2.4-.6 0-1.4-.9-2-1.6-.4-.5-.7-1.2-1.2-2.2-.4 1-.6 1.5-.7 2l-.5.1c-.2-.7-.5-1.4-.6-2.2-.3-1.2-.2-2.5-2.1-2.5-1.1 0-1.5-1.4-.9-2.3.2-.3.7-.6.7-.9.1-.5-.2-1-.3-1.5-.4.2-1 .4-1.1.7-.6 1.6-1.5 1-2.1.2-2.4-3-4.7-6.1-7.1-9.2l-3.2-4.5c-.9-1.2-1.9-2.3-2.9-3.5-1-1.1-1.9-2.2-2.9-3.2l-1.5-1.5-.6.5c.6 1.1 1.1 2.2 1.9 3.2l2.7 2.7c.9 1.1 1.9 2.2 2.2 3.5.7 2.3-1 3.6-2.9 4.9.6.9 1.1 1.7 1.7 2.5l.5-.3-.7-2c.2-.1.4-.3.7-.4 1.1 1.5 2.3 2.9 3.2 4.5.6 1.2 1.3 1.3 2.6 1-1.5-2.3-2.9-4.4-4.2-6.5l.4-.5c.6.3 1.5.3 1.9.8 1.9 2.5 3.6 5.2 5.4 7.7.5.7 1.2 1.1 1.9 1.6.3.2.7.4.9.7 1.4 2.2 2.8 4.3 4 6.5.3.5-.1 1.2-.2 2-1.2-.8-2-1.2-2.7-1.8-.6-.5-1.5-1.2-1.4-1.7.3-1.6-1.2-2.2-1.6-3.3-.1-.3-1.3-.4-2-.3-.2 0-.7.8-.6 1.1.7 1.8 1.4 3.5 2.2 5.2.7-.5 1.4-.5 2.7.3 1.2.7 2.2 2.6 4.1 1.7 1.4-.6 1.9.1 1.7 1.4-.1.5-.4 1-.5 1.6l-.2 1.2c.4 0 1 .2 1.3 0 .7-.5 1.3-1.2 2-1.9 1.9 1.9-1.1 3-1 4.9 1 .5 2.1.9 3.1 1.5.3.2.4.7.6 1.1l-1.2.4c-.5.1-1 .2-1.5.4l-2.9 1c-.8.3-1.7.5-2.4.9-.6.3-1.1.7-1.2.8 1 1.8 1.9 3.5 2.8 5.2.8-1.5 1.7-3.1 2.7-4.6.6-.9 1.6-.9 2.2.2l1.5 2.9c-2.6-.3-2.5 1.4-2 3.7-1.1-1.4-1.6-2.1-2.6-3.3-.2 2.9-2 3-3.7 3.4.3.4.5.7.7.7 1.4.3 1.8 1.3 1.6 2.4-.2.7-1.1 1.1-1.6 1.7-.3.4-.3 1.1-.4 1.6-.1.4 0 .9 0 1.4-2.9-1.6-3-5.3-6.1-6.3.1.7.5 1.1.7 1.6.4.8.6 1.7.9 2.5-.9.1-1.8.4-2.7.3-.6-.1-1.2-.7-1.7-1.1-.9-.6-1.7-1.3-2.7-1.6-.9-.3-1.7.3-1.1 1.4.5 1 1.4 1.7 2.1 2.6v-.1c-.7 0-1.6.3-1.9 0-1-.9-1.8-2-2.6-3-.7-.9-1.5-1.7-2.5-.2.5.9 1 1.8 1.6 2.7l4.4 6.4c1.2 2 2.1 4.3 3.4 6.3 2.5 3.8 5.1 7.6 7.8 11.3.6.9 1.8 1.4 2.9 2.2-.2 2.5 1.1 4 4 4.3-1.1-1.9-2.1-3.7-3.1-5.5l.6-.4c.4.4.9.8 1.2 1.3.6.9 1 2 1.7 2.8 1.1 1.2 2 2.3-.3 3.7.7.1 1.1.3 1.2.1 1-1.1 1.6-.5 2.2.4 2.2 3.4 4.3 6.7 6.6 10 1.7 2.5 3.6 4.9 5.4 7.4l3.9 5.1c-.1.2-.3.4-.4.5-.8-.5-1.8-.8-2.3-1.5-3-4.2-5.9-8.4-8.9-12.7-.4-.5-.9-1-1.4-1.5l-.7.5c.5 1.1.9 2.4 1.6 3.4 2.4 3.4 5 6.7 7.5 10 .3.4.4.8.7 1.4h-57.2c-1.8 0-2.6-.4-2.4-2.3.1-1.2-.2-2.5-.3-3.7-.2 0-.5 0-.7.1.1 1.1.1 2.3.3 3.4.4 2 0 2.6-2 2.6-.6 0-1.2 0-1.7-.1 1.6-8.6-1.8-16.6-2.5-25 .5.5.9.9 1.3 1.2l.6-.2-.3-5.5c0-.2-.3-.4-.5-.5-1.4-.7-4.3 0-5.1.9-1.4-.2-2.6-.7-3.8-.6-2.9.2-5.7.7-8.6 1-.8.1-1.5-.1-2.8-.3 1.6-1.6 2.5-2.9 4.6-2.6 1.5.2 3.2-.4 5-.7 1.4 1.8 4.4 1 6.2-2.4-3.7.3-7.2.6-10.7.9-1.7.2-2.8-.9-2.7-2.6.2-2.5.3-5 .5-7.6.1-.9.5-1.8.6-2.2-.4-1.3-.8-2.3-1-3.3 0-.2.7-.5 1-.8.5-.4 1.1-.7 1.4-1.2.1-.3-.3-1.2-.5-1.2-.5-.1-1.1.2-1.9.4v-2.8c1.2.1 2.3.3 3.4.4v-8.3h.4l1 4.4.6-.1v-6.1l.6-.1c.1.7.3 1.5.3 2.2l.1 4c.1 1.3-.1 2.9 2.1 1.8.2-.1.8.2 1 .4 1 1.2 2 2.5 3.2 4 1.8.1 3.2 4.1 2.2 7.5 1.9 1.8 1.7 3-.8 6 .6 0 1.3.1 1.7-.3.6-.4 1-1.4 1.7-1.6 2-.6 1.2-1.3.3-2.2-.3-.3-.3-.9-.2-1.3.1-1 1.1-1.7 1.5-2.5.5-1.1.1-2.6.1-4-2.8-.4-2.7-3.1-3.7-4.8-.5-.8-.7-1.8-1-2.7-.1 0-.2.1-.4.1-.2 1.5-.4 3-.7 4.4-.3-2.2-1.1-3.7-3.4-4.1-.4-.1-.7-.7-.9-1.2-.5-1.3-1-2.6-1.6-4.2.5-.3 1.4-.7 2-1l1.3 4.2c1-.6 1.7-1 2.5-1.4l1.7 1.4 1.9 3.9.5-.2c-.1-1.3 1.3-2.6-.1-4l.6-.4c.2-1.4.4-2.8.5-4.2 0-.3-1-.8-1.5-.8-1.1.2-2.1.7-3.7 1.4 2.8.1 3.9 1.7 4.7 3.6-1 0-2.3-.7-3 .8-.8-.9 1.6-4.3-2.2-2.8-1-3-1.3-3.2-4.4-3.1-2.1 0-4.3 0-6.4-.3-.5 0-.9-.9-1.2-1.4-.2-.5-.2-1.2-.3-1.9 2.5-.6 5.1-1.2 8-1.9-1.9-1.7-3.9-1.8-5.8-1.6-1.8.1-3.5-.1-5.1-1.3-.6 1-.9 1.6-1.2 2.2zm259.4-285.7c1.3-.3 2.5-.9 3.8-.7 2.3.2 4 1.5 4.1 4.4 1-1 1.9-2 2.1-3.1.3-1.5-1.4-1.3-2.2-1.8l-.7-.3c-2.4-1.3-5.3-.6-7.1 1.5-.5.4-1.2.7-1.6 1.2-.4.6-.4 1.3-.5 2l2.5.2-.6-.6c.1-.9.2-1.9.2-2.8zm-214.4 288.4c.3.2.6.3.8.5 2.2 2.7 4.4 5.5 6.7 8.2.3.4.9.4 1.4.6l.3-.6-3.8-5c-2.2-2.8-4.3-5.7-6.5-8.4-.3-.3-1.2 0-1.7 0 1.1 1.8 2 3.3 2.8 4.7-.4.3-1.3.7-1.3.8.3 1.5.2 3.3 2.1 4 .3.1.6.4.7.7.9 1.5 1.7 2.9 2.7 4.8.7-2.6-1.5-6.1-3.3-6.9-.3-1.3-.6-2.3-.9-3.4zm-3.8-84c-.9-.9-1.4-2.5-3.3-1.7.6 2 2 1.8 3.3 1.7.1.6.1 1.3.1 2l-1.4-.5c.3.9.5 1.6.8 2.2 2.3-.5 2.9.4 2.2 2.9 1.6.8 3.2 1.7 5 2.6.1 1.3 2.3 3.5 4.5 4.2.3-.8.6-1.5 1-2.6-2.2.9-3.2-.5-4.1-1.8-1.6-2.2-1.6-2.3-4-2.2.4-1.8-1.6-5.4-4.1-6.8zm28.2-176.1c-1-.5-2.5-.7-2.3-2.4.3-2.2.7-4.4.9-6.6.1-1.2-.1-2.4-.2-4.1-1.4 1.2-2.3 1.9-3.3 2.7 2.3.8 2.3.8.9 3-.2.4-.6.8-.5 1.2.2 2.8.5 5.6.8 8.4l2-2c.2.8.5 1.5.5 2.3.1 1.6 0 3.2 0 4.8 1.5-.7 2.9-1.2 4.2-2 .4-.2.9-.9.9-1.3-.1-1.2-.5-2.3-.7-3.6-.6.2-1.1.4-1.9.6.5.7.8 1.1 1.2 1.6-2.3.4-2.6.1-2.5-2.6 1-.4 2-.7 3.3-1.2v-11.9c-2.5 1.9-2.5 2-1.4 5.4-.4.9-.6 1.8-.6 2.7 0 .5.4 1 .7 1.5.6 1 .3 1.7-.8 1.7-1.2.1-1.3.9-1.2 1.8zm33.9-31.4c-1.2 1.3-2.3 2.6-3.1 3.4-1.2.5-2.1.8-2.8 1.3-.2.2 0 1.2.2 1.7 1.1 2 .7 2.6-1.8 2.8 0-1.1.3-2.4-.1-3.4-.3-.9-1.4-1.5-2.3-2.4 3.4-1 .7-4 2-5.5-.5-.6-1.2-1.2-1.1-1.6.2-1 0-1.6-1-1.6-.7-.1-1.8-.2-2.2.2-.7.7-1.1 1.9-1.6 2.8.6.2 1.1.4 2 .7-1 .9-1.9 1.7-2.9 2.5 1.8 1.6 2.3 5 1.2 7.1-.4.9-1.1 2.5-.8 2.7 1.5 1.1.6 2 .1 3.1-.2.4-.4 1.1-.3 1.5 1 2.1.6 4-1.3 5.5 2.2 1.4 1.6 3.3 1.2 5.1-.7 2.8-.4 3.8 1.5 4.8-.2 1.1-2.9-.3-2 2.2.8-.4 1.9-.5 2.3-1.1.9-1.5 1.6-3.2 2.2-4.8.5-1.5.9-3 2.5-3.9.4-.2.6-.8.8-1.2.5-1.2 1-2.5 1.6-3.8 2.1.8 2.9-.4 3.3-1.7-.6-.7-1.4-1.2-1.4-1.8-.2-2.6-.2-5.2-.2-7.8 0-.3.4-.7.7-1 .2.4.6.8.6 1.1 0 .9-.2 1.8-.4 3 .9-.3 1.5-.7 1.9-.6.5.1 1.3.9 1.2 1.1-.6 1.2-1.4 2.4-2.3 3.8-.1-.2 0 .2.1.2 1.4 0 2.5 1.5 4 .5.6-.4 1.6-.6 2.4-.4.6.1 1.1.9 1.6 1.3-.5.4-.9.9-1.4 1.2-.8.4-1.8.4-2.4 1-.6.7-.9 1.7-1.3 2.5.8-.1 1.7-.3 2.6-.4-.8 1.6-1.1 3.3-2.1 4.1-1.6 1.3-1 2.9-1.2 4.3-.3 1.7.4 2 1.8 1.8.9-1.3-.9-4.1 2.4-3.6.2-.5.3-1 .4-1.2 1.6 1.5 3.2 3 4.7 4.6.3.3.4 1.3.2 1.5-.8.6-1.7 1.1-2.6 1.4-1.4.4-2.8.7-4.1 1.1v.5c.7.3 1.3.6 1.8.8.1.8.2 1.5.4 2.1.5 1.7 2.1 3.2 1 5.2-.1.2.2.8.4 1.2.6.9 1.6 1.8 1.7 2.7.1 2.3-.6 4.8 1.5 6.9-1.1-.4-1.7-1.2-2.5-1.7-1-.6-2.2-1.1-3.3-1.1-.5 0-.9 1.5-1.3 2.4-.1.2.2.7.4.7.9.3 2 .8 2.7.5 1.5-.6 2.1.1 2.9.9 1.6 1.7 1.9 1.6 2.5.1.8.5 1.8 1.1 2.8 1.7l-.4.5-1.5-.6c.3.6.8 1.2.8 1.7-.2 2.3-.5 4.6-.9 6.9 0 .3-.7.4-.9.7-.3.5-.9 1.2-.7 1.6.7 1.5 1.6 3 2.5 4.6l2-4.3c.1 0 .1 0 .2.1l-2 9.4h-.7c-.8-1-1.6-1.9-2.5-3-1.1-.2-2.5-.4-4-.6.3.8.5 1.6.9 2.2.4.7.9 1.3 1.5 2 .3 0 .8.1 1.4.1l-.3 1.6c-.1.7-.1 1.5-.1 2.2 0 .6.1 1.2-.1 1.6-.6 1.3-1.3 2.4-2 3.7-.5-.2-1.1-.4-2.1-.7.3 1.1.4 1.8.6 2.6.1.7.5 1.5.3 2.2-.3 1.8-.3 3.3 1.6 4.4 1.2.6 6.1.3 6.9-.8l.1-.2c.4-1 .8-2 1.1-3 1.5-4.2.2-8.6.7-12.9.3-2.2.2-4.6 1.1-6.5 1-2.2 2.5-4 1.7-6.6-.1-.3-.1-.8 0-.9 2.4-1.8 1-3-.2-5-1.4-2.5-2.6-5-4.7-7-.1-.1-.1-.3-.1-.7.5.1 1 .2 1.7.4-.6-2.3-3.8-2.6-3.6-5l4.4.3c-.5 3.5 2.8 4.3 5.4 5.8-1 .4-1.9.1-2.7.3-.5.1-1.4 1.1-1.3 1.2.9 1.4 1.4 3.2 3.6 3.6.1-.9.2-1.6.2-2.3.5.5.9 1.1.8 1.7l-.4 6c-.1 1.7.9 2.7 2.9 2.8l-2-2.3c1-.6 1.8-1 2.2-1.2.7 1 1.3 1.8 1.9 2.7.5.7 1 1.5 1.2 2.3.2 1 .2 2.1.2 3-.6.7-1.4 1.5-2.4 2.6-.1 0-.6-.1-1.3-.1.1.5.2 1 .4 1.4l-.4.3c-.3-.6-.6-1.2-.9-1.9l-.8.3-.2 4c0 .6 0 1.3-.2 1.9l-2.3 6.9c-.2.8-.5 1.6-.5 2.4 0 1.6.2 3.2-1.3 4.3-.2.2-.3.9-.1 1.2 1 2.2 3 3.6 4.9 4.9.6.4 2.1-.7 3.2-1.1.1 0 .3 0 .4-.1 2.9-.4 3.6-1.1 3.6-4.1 0-2.9-.1-5.9 0-8.8 0-1.8.8-2.2 2.4-1.4.1 0 .2-.1.4-.2v-1.6c-2.4-.6-2.9-1.3-2.2-3.7.2-.8.6-1.5.9-2.3 1.2-3 2.5-5.9 3.8-9.1-4 1.1-3.9 4.5-5.2 7 .1-1.9.2-3.8 1.1-5.3 1.2-1.8 3-3.1 4.6-4.6.2.4.4.7.6 1 2.9-2.7 3.1-4.9 1.4-8.3-.8-1.7-1.3-3.6-1.9-5.5l.6-.2c.6 1.6 1.3 3.1 1.8 4.7.9 2.5 1.8 5 2.5 7.6.1.3-.2.9-.5 1.3l-2.2 3.3c-.1.2-.2.6-.4.6-2.6.5-1.7 2.6-2.1 4.1 1.1-1 2.2-2 4.2-1.2-3 1.7-3.7 4.5-3.9 7.4-.1 1.6-.5 3.3-1.1 4.8-1 3-.9 6.1-.9 9.1 0 .5.5 1.2 1 1.5.3.1.9-.4 1.4-.7 0 1.3.5 1.9 1.9 1.2.3-.2.7-.1 1.1-.1 2.5.3 3 .1 2.9-2.3-.2-4.1-.8-8.2-1-12.2-.1-1.5.2-3.1.3-4.6v-1.6c0-.5-.3-1-.2-1.4.5-1.6 1.3-3.2 1.7-4.9.8-2.7 1.9-5.3.7-8.2-.2-.5-.1-1.1-.2-1.7l.6-.1 2 5.6c1.9-.9 2.5-.4 2.9 1.6.2 1.1.7 2.7 1.6 3.2 1.5.7 1.4 1.7 1.2 2.9-1.4-1.2-2.5-2.5-3.7-3.8-.3-.3-.8-.6-1.1-.5-.3.1-.6.6-.7 1-.3 1.7-.6 3.4-.8 5 .6.5 1.4 1 1.9 1.7.6 1 .8 2.3 1.3 3.4 1.2 2.6 2.4 5.3 3.8 7.8.7 1.4 1.9 1.3 2.8.1.7-1 1.1-2.2 1.8-3.1.5-.6 1.4-.9 2.1-1.1.3-.1.8.5 1.3.8-.5.4-1 .9-1.6 1.2-1.4.7-2.5 1.5-2 3.4.1.3-.7 1.3-.9 1.2-2.6-.8-2.4.5-1.9 2.3.2.6.2 1.3.4 1.8.8 2.3 1.8 4.5 2.6 6.7 1.3 3.7 2.4 7.4 3.6 11.1.2.6.4 1.7.1 1.9-1.4 1.2-.5 2.2-.2 3.4.6 2.1 3.3 3.1 2.7 5.7 0 0 .2.1.5.3 1.1-.9 2.2-1.9 2.9-2.5-1-2.2-2-4-2.7-5.9-.2-.5.3-1.6.8-1.8 1.2-.6 2.6-1 3.6-1.3-.8-3.5-1.5-7.2-2.3-10.9 0-.1-.1-.2-.2-.3-.8-.9-1.1-1.9-.8-3.2.1-.5-.4-1.4-.8-1.8-.2-.2-1 .3-1.6.5-1 .4-2 .9-3 1.1-.5.1-1.1-.5-1.4-.7 1.5-1 2.6-1.8 3.8-2.7.3.1 1 .4 1.7.7.1-.8.3-1.6.3-2.3-.1-1.9-.3-3.8-.6-5.7-.2-1.3-.2-2.8-.8-3.9-2.2-4.2-4.6-8.3-7-12.4-1.5-2.5-3.3-4.7-3.2-8 .1-1.3-.9-2.8-1.7-3.9-2.7-3.5-5.5-6.8-8.4-10.2l-3.7-4.1c-.7-.8-1.2-1.8-1.8-2.6-.2-.8-.3-1.7-.8-2.3-.7-.8-1.7-1.3-2.5-2-.6-.5-1.1-.9-.9-2.1.2-1.3-.4-3.6-1.4-4.2-2.2-1.3-3.1-3.4-4.2-5.3-1.7-3.1-3.4-6.1-5.8-8.7-2-2.2-4.4-4.1-6.5-6.2l-4.8-5.3c-.4-.4-1.8-.7-2.1-.4-1 1-1.7.5-2.5 0-2.2-1.2-4.1-2.3-6-3.3zm44.8 78.4l-.3.1c0 3.6.2 7.2-.1 10.8-.4 4.9-.4 10.3-6.7 12l-.3.2c-1 .8-4.1.5-5-.4-1.5-1.7-1.8-1.7-3.5-.2-1.1 1-1.4 2.1-1.3 3.6.1 1.5-.1 3.1-.1 4.7h-1c0-1.7.1-3.4 0-5 0-.5-.5-1.3-.9-1.4-2.8-.4-5.7-.7-8.5-.9-.3 0-.9.6-.9.9 0 .8.2 1.6.3 2.4.2 1.1.6 2.2.4 3.2-.5 3.2-1.2 6.4-1.8 9.6 0 .3.1.5.2.9.6-.3 1-.6 1.8-1.1 0 .9.2 1.5 0 1.9-.5 1.3-.6 2.4 1 3.2.4.2.7 1 .7 1.4-.1 1.2-.3 2.5-.5 3.6-4.2.4-4.6 1-3 4.2l6.1-6.3c.3.3.6.6 1 .9l-4.4 5.5c-1.7 2.2-3.5 4.4-5.1 6.6-.2.3-.1.9-.1 1.4.5-.1 1.1 0 1.4-.2.5-.4.8-1.2 1.2-1.7.7-.8 1.3-1.5 2.1-2.2 1-.9 2-1.7 3-2.7 1.8-1.9 3.7-3.9 5.4-5.9.5-.5.6-1.3.8-2 .4-1.1.7-2.2 1-3.3l.7.1c.1.6.1 1.3.3 1.9.8 2.2.4 3.1-1.2 4.7-1.9 1.8-3.6 3.9-5.4 5.9l.1.6c.7.1 1.6.3 2.2.1.4-.1.5-1 .6-1.3 2.5-1.3 4.9-2.7 7.4-3.9.6-.3 1.5-.1 2.2-.1-.3.6-.5 1.3-.9 1.6-2.9 2-5 4.7-6.5 7.8-.7 1.6-1.7 1.7-3.3 1.2-2.1-.6-4.2-1.6-6.4-.7-.4.2-.8.5-1.2.8.8 1 1.5 2.3 2.6 3 1 .7 2.6.5 3.7 1 2 1.1-.3 2.2-.2 3.4v.4c-.1 3.2-.2 6.4-.5 9.6 0 .5-.6 1-.9 1.5-.4-.5-.9-.9-1.1-1.4-.3-.7-.3-1.6-.5-2.7-2.3 3.4-.5 6.8-.6 10l-.9.6c-.5-.8-1.1-1.5-1.5-2.3-.9-2.1-1.7-4.2.2-6.2.3-.3.4-.8.4-1.3.1-1.3.1-2.4 1.5-3.2.6-.3.7-1.6 1.2-2.7-.8.2-1.1.1-1.2.3-2.1 2.1-4.4 4.1-6.4 6.3-1.6 1.7-1.4 1.8-3.1-.1-1.1 1.2-2.2 2.3-3.4 3.6 1.8.3 1.7 1.3 1.6 2.6 0 .6.6 1.5 1.1 1.8 4 2 8.1 3.9 12.3 5.8 3.8 1.7 7.8 3.2 11.6 5 3 1.3 5.9 2.8 8.8 4.2.8.4 2.1 1.1 2.4.8 1-1 1.8-2.3 2.3-3.6.1-.3-1-1.3-1.7-1.8-3.2-1.9-6.5-3.8-9.8-5.6-3.5-1.9-4.1-5.4-4.1-8.6-.1-4.6 2.9-8.2 5.7-11.4 3.9-4.4 8.5-8.1 12.7-12.2 1.1-1.1 2.2-2.5 2.5-3.9.6-2.8 2.1-4.7 4.4-6.1 1.8-1.1 3.5-2.3 5.2-3.4 2-1.3 2.3-1.6.1-3.9-2-2-3.8-4.1-4-7.2-.2-2.9-.5-5.8-1.2-8.7-.4-1.8-1-4.2-2.3-5.2-1.6-1.2-1.3-2.3-1.4-3.7-.1-1.7-.2-3.4-.5-5.1-.1-.5-.4-1-.7-1.5-1.7-2.2-4-4-4.5-7.1-.1-1.2-.8-2.3-1.3-3.5zm115.3 37.7c2.5.2 3.5-.6 3.7-3.4.4-5 .7-9.9 1-14.9.1-1.2-.2-2.5-.3-3.7l-.6-.3c-2.2 2.3-4.5 4.6-7 7.2l-4.8-7.9-.6.3v2l.4 4.8c.1 3-.2 6 .1 9 .2 2.4.2 5.1 3.1 6.5.7.3 1.2 1.7 1.2 2.6.4 5.8.7 11.6.9 17.4 0 1.4-.5 2.8-.8 4.3-1-1.8-3.4-3.6-5.1-3.4 2 5.5 4.1 10.9 6.3 16.8.8-1 1.6-1.6 2-2.4.6-1.1 1-2.3 1.4-3.5.3-.9.5-1.9.5-2.8.1-2.5-.6-5.3 2.7-6.7-1.7-.3-2.8-.7-2.8-2.5.1-4.5.1-9 .3-13.4.1-1.8.5-3.6-1.3-4.8-.3-.3-.2-.8-.3-1.2zm-89.1-74.4l.6-.1 1.2 5.7h.5v-28.7c-.7.2-1 .5-1.2.8-.1.2-.3.6-.2.7 1.3 2-.2 4-.1 6 .2 4.2.2 8.3.3 12.5 0 .7-.3 1.4-.5 2.1l-.6-.1-.8-2.9-.5.1v5.4h-.8v-3.9h-.7c-1.5 3 .3 6.3-.5 9.4h-.7c-.2-3.5-.4-7.1-.5-10.6h-.6c0 4.3.4 8.6-.1 12.8-.5 4.2-.1 8.2 0 12.3h.7l.7-13.4h.7v28.9c-1.2-4.2-1.2-8.6-1.7-13-.6.6-.9 1.3-1.3 1.9-.3.4-1.1.9-1.2.9-.7-.9-1.9-1.7-2-2.7-.4-3.4-.4-6.8-.6-10.1-.1-1.9-.8-2.3-2.9-2 .1.8.2 1.6.3 2.1-.6.5-1.5 1-1.4 1.3.2 1.6-.4 3.3 1.3 4.6v-3.2c.5 2.1 1.4 4.1 1.3 6.1-.3 5.1 1.7 9.5 4.3 13.5 1.8 2.9 2.6 5.7 2.3 8.9-.1.9 0 1.9 0 2.9.1 2 .9 2.4 2.7 1.7 1.4-.5 2.7-1.2 4-1.8 2.1-.9 2.4-2.3 1.2-4.3-.5-.8-.8-1.8-.8-2.8 0-4.4.3-8.8.2-13.2-.1-4-.5-8-.7-12-.1-1.9 0-3.7 0-5.6-1.8 4.6-.1 9.7-2.1 14.3-.2-.3-.3-.6-.3-.9.1-3 .4-6 .4-9 0-1.2.7-2.9-1.3-3.5-.2-.1-.2-1.5 0-1.6 1.5-.8 1.2-2.3 1.3-3.5.2-2 .1-4 .1-6zm-76.3 11.4l-1 .1c0 1.7-.1 3.5 0 5.2.4 5.9 1 11.8 1.5 17.7.3 3.4.6 6.8.9 10.1l1.6 16.9c.1.7.4 1.3.6 2l.7-.2v-6.7c1.2 7 .4 14.1 2.3 21 .4-.4.6-.9.6-1.4 0-4.1 0-8.2-.2-12.2-.1-3.7-.3-7.3-.5-11-.1-1.3-.6-1.8-1.6-.9-.3-1.2-.2-2.6-.8-3.4-2.2-2.8-.9-5.8-.6-8.6.1-.6.9-1.2 1.4-1.8.8-9.3-2.7-17.9-4.9-26.8zm108.1-42.5c1.4.1 2.7.3 3.9.1.3-.1.5-1.6.5-2.5.1-1.1-.2-2.2 0-3.3.3-2 .1-3.3-2.9-2.8.6-.9.8-1.6 1.3-1.8 1.3-.4 1.5-1.3 1.6-2.5.2-2.1.4-4.1.7-6.2l-.1-.6c-.1-1.7-.2-3.4-.2-5.1 0-1-.1-2.2.3-3.1.7-1.3.1-1.7-1-1.8-1.4-.2-2.8-.1-2.5 2l.5 2.3c.1.5.3 1.1.2 1.6-.4 1.8-.9 3.6 1 5.1-1.5.7-1.8 1.8-1.6 3.2.3 1.8-.3 3.4-1.8 5-.2-1.6-.4-3-.6-4.3h-.6c-.2 1.1-.4 2.3-.7 3.6-1.4-1.6-.9-4.4.6-5.4.5-.3.7-1 1-1.5l-.5-.3c-.5.2-1.1.3-2.1.6 1-1.3 1.9-2.1 2.3-3 .7-1.8-.8-1.6-2.1-1.5.6-.6 1-.9 1.5-1.4-2.6-.9-3.1-.6-3.2 1.3l-.1 7.7c0 2.2-.5 4.4-.1 6.5.3 1.3-1.5 4 1.7 3.9-.6.7-1.5 1.4-1.6 2.2-.3 2-.4 4.1-.5 6.1 2 0 4.8-2.3 5.1-4.1zm-6 165c.5.3.9.4 1.1.6 1.3 1.3 2.5 2.6 3.9 3.9.5.5 1.3.6 1.9.9-.1-.7 0-1.5-.4-2l-3.7-5.6-.5-1.3.5-.3 4.4 4.9.7-.3v-3.9c.4.1.9.3 1.6.6.8-3.1-1.7-4.7-2.6-7-.1-.2-1-.1-1.5 0l-3.6 1.1c-3.3.8-6.7 1.3-8.9 4.3-.3.4-.7.6-1 .9-1.8 1.9-3.6 3.7-5.8 6 2.3 0 4-.2 5.6 0 3.4.4 7.2-.1 9.6 3.8 1.3-2.6-1.6-4.1-1.3-6.6zm-139.8-94.9h.7c.3 1.5.7 3 .7 4.5 0 5.3-.1 10.7-.2 16 0 .7.5 1.8-1 1.7-.2 0-.8 1.3-.7 1.5 1.2 1.3.5 2.9.8 4.1 1.1 4.1.3 8.6 2.3 12.5.1.2-.1.6-.1.9v3.1c.3 0 .5 0 .8.1.5-.8 1.9-1.3.4-2.8-.8-.9-1.2-2.1 0-3.1.3-.3.4-.7.6-1.1l-1.6-.6v-11.9l-.1-8.4c0-.5.4-.9.8-1.5-.2-.2-.5-.6-.8-1l.6-.1c1.4-6.8.2-13.4-1.7-20.1-2.9 1-3.4 3.4-4 6.1-.4-2.1-.8-3.9-1.1-5.8-.3 0-.6 0-.9.1 0 .9-.3 2.1.1 2.8.7 1.2.5 2.1.2 3.2-.2.9-.2 2.6.2 2.7 1.4.5 1.1 1.4 1 2.3-.1 1.5-.2 3.1-.4 4.6-.2 1.5.4 2.1 2.1 2.2-1.5-4.2.4-8 1.3-12zm-34.1 237.5h.9c.6-8.6.2-17.2 0-26.4 1 .9 1.7 1.4 2.1 2l4.9 6.8c.7.9 1.4 2 2.4 2.4 1.3.5 2.8.3 4.2.3.1 0 .4-.8.3-1.1-.6-1.2-1.2-2.4-2-3.4-2.7-3.6-5.5-7.1-8.2-10.6-1-1.3-2-2.6-3.1-4-.8 1.1-1.7 1.9-1.9 2.8-.4 2.1-.5 4.2-.5 6.3.1 6.4.2 12.8.4 19.2.1 1.8.3 3.7.5 5.7zm6.2-94.2l.6-.3c-.3-.9-.5-2-1.1-2.7-.8-1.1-1.1-2.1-.8-3.5.4-2.4.6-5-1.2-7.1-.4-.5-1.2-.7-1.8-1.1 0 .7-.2 1.5 0 2.1.7 1.8.6 3.3-.5 5-.4.7 0 2 .1 3 .1.9.7 2.2.4 2.5-1 .9-.9 3.1-3.1 2.6-.4-.1-1 .4-1.5.6.3.5.6 1.1 1.1 1.3 1.2.7 1.8 1.5 1.8 2.9l.2 4.8c.1 2.3 1.6 3.5 2.9 4.5.1-1.2.2-2.4.4-3.5.3-2 .5-2 2.1-.8-.8 2.1.5 3.6 3 3.7.6 0 1.3.3 1.7.7.9 1 1.6 2.1 2.5 3.3-.3-1.4-.9-2.7-.6-3.6.6-1.7-.2-1.8-1.4-2.1-1.3-.4-2.8-.7-2-2.8.1-.2-.5-.7-1-1.2-.2.8-.3 1.2-.5 1.7-1-1.2-2-2.2-2.9-3.3-.2-.3-.3-1.1-.1-1.3 1.1-1.3.5-2-.5-2.9-.8-.6-.1-3 .8-3.2.6.2 1 .5 1.4.7zm.7 30.4c-2.8-.5-3.8-1.7-3.3-4.2.1-.3-.1-.7-.2-1.1l-.4-2.3.6-.1c.2 2.4.4 2.6 2.9 1.9.9 1.1 1.8 2.3 2.9 3.1 1.3 1 1.2 1.7-.1 2.5.7.5 1.2 1.1 1.9 1.3.8.2 1.6.1 2.4.2-.1-.7-.1-1.5-.4-2-.9-1.4-2-2.6-3.1-3.9-1.2-1.3-3.4-1.8-3-4.3 0-.1-.3-.4-.5-.5-2.6-.4-3-2.6-3.7-4.5-.2-.7-.9-1.3-1.5-2.3-.4.8-.5 1-.5 1.2l-.2 12.6c0 1.1-.4 2.3-.9 3.3-.6 1.2-1.6 2.3-2.4 3.4 3.3-.1 3.3-.1 4.2 3.7.2.8.8 1.8 1.5 2.1 1.3.6 2.3 1.2 2.7 2.7.2.8 1 1.5 1.6 2.1.2.2.7.2 1.1.3 0-.3.1-.8 0-1-1.1-1.8-2.1-3.9-3.5-5.4-2.7-3-2-6.1-1.2-9.4l.6-.5.8 2.2.5-.5c.3 0 .7-.3 1.2-.6zm23.6 75.4c3 4.1 6 8.2 8.9 12.4 3 4.2 6 8.5 9.2 13-.7-.2-1-.4-1.4-.5l-.4.6 3.1 2.4c.5.4 1.3.6 1.6 1.1.7 1.1 1.7 1.3 2.5.6.4-.3.1-1.4 0-2.2 0-.3-.4-.5-.6-.8-2-2.7-4.2-5.3-6.1-8.1-2.3-3.2-4.3-6.5-6.5-9.7-1.2-1.8-2.4-3.6-3.8-5.2-1.6-1.8-2.2-5.5-6.5-3.6zm36.1-251.5l-.9.1c0 .9-.1 1.8 0 2.7.2 1.7.7 3.4.8 5.2l.1 7.1.7 19.1c0 .7.2 1.4.3 2.2 3.4-1.4 3.5-1.6 3.3-4.8v-1.3c.1-2 .5-4.1.3-6.1-.3-3.5-1-7-1.4-10.4-.3-3.4-.6-6.7-2-9.9-.6-1.2-.9-2.6-1.2-3.9zm-9.6-63.8c-2.6 4.1-2.6 8.2-2.6 12.4.9-2.5 1.5-5.1 2.2-7.7.1-.5.6-.9 1-1.3l1.3 1.2c-1.6 1.4-.5 3.3-1.1 4.9-.8 2.1-1.4 4.3-1.8 6.5-.7 3.8-1.4 7.6-1.9 11.4-.3 2.1 0 4.3 0 6.3 1.1-.6 2.2-1.2 3.2-1.8-1.7-1.6-1.4-2.2 1.3-3.1-.1-.9-.2-1.7-.2-2.6 0-2.6-.1-5 .5-7.6.9-3.9.9-8.1 1.2-12.2.1-1.6.2-3.2.3-4.9-3.3 1.6-3.6 1.4-3.4-1.5zm41-4.1l.6-.4c-.4-1.1-.8-2.2-1.4-3.2-.7-1.1-2-1.9-2.6-3-1.2-2.1-1.9-4.5-3.4-6.3-1.1-1.3-1.2-2 .2-3.1-.9-.4-1.7-.3-2.3-.7-.6-.4-1-1.2-1.5-1.9-.4 1.5-.8 3-1.1 4.3-1.1-.2-1.9-.4-2.6-.6-1-.3-2.1-.4-2.9-.9-1.7-1.2-2.3-1.1-3.1 1l6.3 5.5c.3-.3.5-.6.8-.8l-3.4-1.9c.7-.7 1.1-.7 1.3-.9 1.1-1.2 1.8-1.4 2.5.5.4 1 1.2 1.9 2 2.8 2 2.2 4.2 4.3 6.3 6.4.2.2.6.7.5.9-.5 1.6.9 1.7 1.7 2.3.2-.5.4-1 .6-1.4l1.5 1.4zm60.9 5c-.7-.8-1.1-1.2-1.8-2.1-.2 1.4-.3 2.1-.4 2.9 2.3.9 2.8 1.9 1.7 2.8-.4-.5-.8-1-1.1-1.4-.2.6-.5 1.2-.6 1.8-.1.7-.2 1.6 0 2.3.2.7.6 1.6 1.1 1.7 1 .2 2.4.4 2.6-1.2.3-3.5.5-7.1.6-10.6.1-2.5-.2-4.9-.3-7.4-.1-1.5-.2-3-.3-4.8-1.4.7-2.2 1-2.9 1.5-.5.4-1.1 1.2-1.1 1.8-.2 2.4-.2 4.8-.1 7.2 0 .8.5 1.9 1.1 2.1 1.6.7 1.7 1.8 1.5 3.4zm-146 291.7c.5.5 1.1.7 1.4 1.2 2.7 4.3 5.8 8.3 9.7 11.7.7.6 1.3 1.5 1.6 2.3.9 2.2 2.4 3.3 5.4 3.2-.8-1.4-1.4-2.8-2.3-4l-10-14.1c-1.1-1.6-4.5-1.9-5.8-.3zm130.4-272.1h.9v-5.1c0-2.8.1-5.6 0-8.4-.1-1.4-.7-2.8 1-3-.4-1-.9-1.9-1-2.8-.1-1.4.2-2.8.3-4.2.1-1.2.7-2.7.2-3.5-.7-1.1.5-2.6-1.1-3.3-.1 0-.1-.7.1-.9.7-1.2 1.5-2.3 2.3-3.5-1.6.2-2.1-1-1.9-2.7.2-1.6-.5-1.8-1.8-1.2-.5.2-1 .4-1.6.6.7.5 1.2.9 2 1.5-.9.6-1.5 1.1-1.9 1.3.1 1.3.1 2.2.2 3.1.6.6 1.1 1.3 1.2 2.1.2 1.6.3 3.2.3 4.7l-.4 12.9.1 1.3.6 6.1c.2 1.7.3 3.4.5 5zm17.3 86.7c.4-2.6.3-2.7-2-3-.4 0-.8-.2-1.1-.2-2.4 0-5-.6-7.2.1-2.7.8-5.1 2.6-7.5 4.2-2.6 1.7-5.1 3.7-7.6 5.6-1.4 1-2.7 2.1-4.1 3.2-1.3 1.1-1.6 2.5-1 4.3.9-.7 1.7-1.5 2.4-2.3.7-.8 1.3-1.7 2.1-2.3l6.3-4.2c1.9-1.4 2.2-1.4 3.3.3l3.1.3c-1.1-1.8-1.2-3.6-.2-5.3 1.4-2.2 6.7-4.2 9.1-3.2 1.6.5 3.8.2 4.4 2.5zm-166.2 142.6c-.1 1.2-.4 2.3-.2 3.3.6 3.7-.3 7.3-1 10.9-.2 1.2-.6 2.3-.6 3.5 0 .5.8 1.5 1.2 1.5 1-.1 2-.5 2.7-1.1.5-.4.7-1.4 1-2l-2.9-1.9c2.1-.1 3.6-.9 3.6-2.4.1-2.4.3-5-.4-7.1-.6-1.7-.4-2.7.4-4 .2-.3.3-1.1.1-1.3-.5-.4-1.2-.6-1.8-.9l-.6 1.4-.2.6c-.3-.3-.7-.4-1.3-.5zm12.6-54l-.5.6c.9 1.5 1.4 3.3 2.7 4.3 1.7 1.3 2.6 2.8 3.5 4.6.8 1.6 2.2 3.4 4.5 3.9.3.1.4.6.7 1 .4.7.8 1.5 1.4 2.1.8.8 1.8 1.4 2.5 2.3 1.6 2.1 3 4.3 4.6 6.5.4.5.7 1.3 1.2 1.4.7.2 1.5-.1 2.2-.2-.2-.6-.2-1.5-.6-1.9-1.6-1.9-3.4-3.6-5.1-5.5-1.4-1.6-2.3-3.8-4-5.1-1.5-1.2-2.7-2.3-3.6-4-1.8-3.6-5.9-5.2-7.6-8.9-.2-.7-1.3-.9-1.9-1.1zm125.9-146.2h.4c.1-.3.3-.5.3-.8l-.4-4.3c-.2-3-.3-6.1-.6-9.1l-1.1-9.4c-.2-1.5-.2-3.1-.3-4.7h-.6l-.8 2.1c-.4-1.3-.5-2.5-.5-3.7-.1-1.2-.2-2.4-.3-4.1-1.3 2.7-.9 8.4.3 9.5-.3.6-.9 1.3-.7 1.7.8 3 .9 6 .6 9-.1.6 0 1.3.3 1.8 1.6 3.3 2.8 6.7 3 10.4-.1.5.2 1 .4 1.6zm-61.9 22.3l.7-.1-.3-4.3c-.3-2.2-.8-4.3-.9-6.4-.5-8.1-.8-16.2-1.2-24.3 0-.4.2-.9.3-1.3.1-1.1.3-2.2.2-3.2 0-.5-.7-1-1-1.5-.3.6-.8 1.3-.8 1.9-.2 3.8-.3 7.6-.3 11.4 0 2.5-.1 4.9.1 7.4.3 4.2.8 8.3 1.4 12.5.4 2.6 1.2 5.3 1.8 7.9zm161.6-52.3c3.6 2.5 7.1 2.1 11 1.6 0-.9.5-2.5-.1-3.1-2-2-3.2-5.1-7.1-4.7-1.5.2-2.5.3-2.9 1.6-.5 1.6-.7 3.2-.9 4.6zm-20.1 132.6c1.4-.2 2.5-.6 3.5-.3 2.5.6 4.9 1.4 7.3 2.3l4.2 2.2c1 .4 2.1.4 3.1.6l.4-2.7v-.6c0-2.7-.2-2.7-2.9-3-4.1-.4-8.1-1.2-12.1-1.7-.4-.1-1 0-1.2.2-.8.9-1.4 1.9-2.3 3zm-213.7 69.9c.2-1.6.8-3.1-.6-4.3-1.1-.9-1.5-1.7.5-2.9-1.4-.1-2.2-.3-3-.2-.9.1-1.8.5-2.8.6-4.4.2-4.4.1-2.9 4.3 0 .1.1.1.5.5.4-.9.7-1.6 1-2.5l2.2 2.5c-.1.5-.3 1-.4 1.6.8.2 1.5.3 2.2.5-1.2 1.7-1 4.3.3 6.2-.3.4-.5.7-.9 1.2 1.2-.3 2.2-.4 2.9-.9.4-.3.7-1.3.5-1.8-.5-1.6-1.3-3.1-2.2-5.1 1.4.2 1.9.2 2.7.3zm173.6-51.5c-1.5-.1-2.4-.1-3.1-.3-1.9-.5-2.8.5-3.5 2.1-1 2.1-2.1 4.2-3.2 6.2-.4.7-.9 1.4-1.2 2.1-.5 1.3.1 1.9 1.5 1.7 2.2-.3 3.3-1.5 4.3-3.5 1.5-2.7 3.3-5.2 5.2-8.3zm-86-82.9c.5-1.4-.3-1.8-1.5-1.9-1.5-.1-1.8.6-1.8 2.8.1 4.8 0 9.6 0 14.3 0 .8.1 1.7.5 2.4.4.5 1.3.7 2 .8.2 0 .7-1 .7-1.6.1-5.6.1-11.2.1-16.8zm91.7 36.9c.3-2.8.3-2.8-2.5-2.7.8 2.4-1.5 4.6-.9 6.7.8 2.6-2 4.1-1.6 6.8 4.6-3.9 8.1-8.2 10.1-13.7h-3.3c-.7 1-1.2 2-1.8 2.9zm-178.2 55.1c.6 1.8 1.1 3.4 1.5 5.1.2.9.5 2 .4 2.9-.2 2.6.5 4.8 2.3 6.7.2.2.8.2 1.2.3 0-.3.3-.8.1-1-1.3-2.3.1-5.2-1.9-7.3-.2-.2 0-.9.1-1.3.2-.8.4-1.6.7-2.5.1 0 .5-.1 1.1-.1-1.4-1.3-1.4-2.8-.4-4 .2-.3 1.6.3 2.9.6-1.8-2-3.3-3.8-5.1-5.9 0 1.6-.1 2.5 0 3.5.3 2.3 0 2.7-2.9 3zm11.2-112l-6.3-22.7h-.8c-.1.6-.2 1.3-.1 1.9.2 1.6.4 3.3.9 4.8.8 2-1 3.7-.1 5.7 1.4 2.9 2.5 5.9 3.5 8.9.5 1.4 1.3 1.8 2.9 1.4zm122.7-37.8l1-.3c-.2-1.8-.4-3.6-.5-5.5l-.4-12c0-.8-.5-1.8-1.1-2.4-.5-.5-1.4-.6-2.5-1.1-.2 1.4-.5 2.8-.5 4.2 0 1.5.3 3 .5 4.6.1.8.5 1.5.7 2.2.2-.7.5-1.4.8-2.1 0-.1.2-.2.5-.4.2.6.6 1 .6 1.5l.2 7.8c0 1.1.5 2.3.7 3.5zm55.4 15.7c-.3.3-.8.7-1.3 1.1l.3.4c.6-.2 1.1-.4 1.5-.5.5.4 1.1 1.1 1.2 1 .5-.3 1.2-.9 1.2-1.3.3-3.7.4-7.5.5-11.3 0-.2-1-.8-1.2-.7-1.9 1.4-3.8 2.8-6 4.5 1.3 1 2.4 1.9 3.5 2.9.3.3.5.7.6 1.1-.1.9-.3 1.7-.3 2.8zm-166.6 221.4c.5-.6 1.3-1.1 1.5-1.8.1-.5-.6-1.8-.7-1.8-1.6.5-2.1-.9-3-1.6-.8-.7-1.6-1.4-2.4-2l-.6.5 3.1 3.5-.6.6c-1.4-1.4-2.8-2.7-4.5-4.4.2 1.2 0 2 .3 2.4.9 1.1 1.9 2.1 3 2.9 1.9 1.4 2.7 3.4 4 5.2.3.5.7.9 1.1 1.3.7.7 1.4 1.3 2 2 .4.5.6 1.2.9 1.8l.6-.7c.6-.5 1.2-1 1.7-1.5-.1-.1-.7-.2-.7-.5-.3-1.5-1.3-1.5-2.5-1.6-.5 0-1.5-1.2-1.5-1.7.4-2.5.5-2.5-1.7-2.6zm103.4-104l-.9-.3c-.6.9-1.2 1.7-1.7 2.6-1 1.8-2 3.5-3.2 5.2-1 1.5-1.3 3.6-1.8 5.5.3.2.6.4.9.5.2-.6.4-1.2.5-1.8l.4.7c.8.2 1.9.7 2.3.4.8-.7 1.4-1.7 1.7-2.8.6-2.1.9-4.2 1.3-6.3.3-1.1.4-2.4.5-3.7zm112.3-153.6c-.2-.1-.3-.2-.5-.2 1-2.2 2-4.4 3-6.7-4.4.5-3.8 5.1-6.2 7.1l-.6-.3 2.5-6.2-.6-.2c-1.4 2.9-3.7 5.3-4.2 8.8 1.7-.6 3.3-1.7 4.5-1.4 3.1.7 4.3-.7 5.3-3.1.2-.5.6-.8.9-1.2.8-1.2 1-2.5 0-4-1.4 2.7-2.7 5-4.1 7.4zm-195.9 33.9l.8-.1c.1-1.6.2-3.2.4-4.9.4-4.1 0-8.2 1.5-12.1.1-.2-1-1.1-1.4-1-1.3.3-3.1 2.9-3.2 4.2-.1 1.6-.4 3.1-.6 4.9 2.7 2.2 2.7 5.6 2.5 9zm37.5 91.9l-.9-.1c-.2 1.1-.4 2.2-.5 3.4l-.3 6.6c0 .5-.1 1.2.2 1.5.5.6 1.2 1.1 1.9 1.3.2.1.9-.9 1.2-1.5 1.3-2.5.4-5.6 2.5-7.9.4-.4.3-1.1.5-1.8-2.2-.3-3.1 1-4.1 2.5-.2-1.3-.4-2.6-.5-4zm1.1-29.6c.3 0 .6-.1.8-.1v-4.8c.1-4.9.3-9.8.3-14.7 0-.7-.9-1.4-1.4-2.1-.3.7-.9 1.3-.9 2-.1 2.1-.1 4.3 0 6.4.1 3.8.3 7.6.5 11.5.1.6.5 1.2.7 1.8zm-92.3 117.4c-.2 0-.5 0-.7-.1-.2.5-.5.9-.5 1.4-.3 4.5-.5 8.9-.7 13.4 0 .6 0 1.4.4 1.8.4.5 1.2.8 1.7.8.4 0 .9-.9.9-1.4-.1-3.7-.2-7.4-.4-11.1-.1-1.7-.5-3.2-.7-4.8zm196-109.5c1.4-1.7 2.5-3.2 3.4-4.3-1.9-1.6-3.6-3-5.4-4.4-.3-.3-1.1-.4-1.3-.2-.4.4-.7 1.1-.7 1.6.2 2.8.5 5.5.8 8.6.9-1.2 1.8-2.4 2.9-3.9.1 1 .2 1.7.3 2.6zm-207.3 120.5c-.2 0-.3 0-.5-.1-.3-2-.6-4.1-.9-6.4-.5 2.9-1.1 5.4-1.3 8-.1 1.4.5 2.9.9 4.3.2 0 .4 0 .6-.1.2-.8.5-1.6.7-2.5.6.3 1.1.6 1.5.8.3-.8.5-1.4.8-2.1l.5.1c0 .8-.2 1.7-.1 2.5.1.5.6.8.9 1.3.2-.5.7-.9.7-1.4 0-1.5 0-2.9-.1-4.4-.1-1.8-.3-3.7-.5-5.5h-.5c-.2 1.5-.3 3-.5 4.8-.6-.4-.9-.6-1.3-.9-.3.7-.6 1.2-.9 1.6zm242.8-194.5c1.5 2.1 3.3 2.8 5.5 2.3l4.3-1c.6-.2 1.3-.6 1.5-1.1.2-.5 0-1.4-.4-1.9-1-1.1-2-2-3.8-1-1.4.8-3 1-4.5 1.6-.9.3-1.7.7-2.6 1.1zm-133 52c.2 2.9.2 5.2.4 7.5 0 .5.7 1 1 1.5.3-.5.8-1.1.9-1.6.2-2 .2-4 .4-5.9l1.2-6.3c.1-.5-.3-1.4-.7-1.6-.4-.2-1.3.2-1.7.6-.5.6-1 1.4-1.2 2.1-.1 1.4-.1 2.8-.3 3.7zm-47.2-18.3c0 1.5.3 2.6-.1 3.4-.7 1.7-1.1 3.1.5 4.1-.4 5-1 9.8.4 15 .4-.7.9-1.2.8-1.3-1.2-1.5.1-2.8.1-4.2.1-6.1.2-12.3.2-18.4 0-.5-.4-1.1-.6-1.6l-.6.2c.5 1.4.4 2.6-.7 2.8zm-36.6 67.5c-.2.1-.5.2-.7.2 0 .4.2.7.1 1.1-.4 1.6.4 3.7-1.6 4.6-1.7.8-1.1 1.8-.6 3l1.4 3.6c.2.5.4 1.2.8 1.6 1.2 1 2.5 1.9 3.8 2.8.3.2.6.3.9.4.1-.4.4-.9.2-1.1-.4-.6-1.1-1-1.6-1.6-.4-.4-.9-.8-1.3-1.3-1.1-1.3-2.3-2.5-.7-4.3.1-.2-.2-.7-.2-1.1-.1-.4-.3-1.1-.1-1.3 1.3-1.1.5-2.6.6-3.9.1-.8-.6-1.8-1-2.7zm172.7-28.5c.1.4.3.7.4 1l.5 1.5c-.6-.1-1.4 0-1.8-.3-1.3-.9-2.3-2-1.9-3.8.1-.3-.2-.7-.5-1.2-1 1.5-1.6 2.6-1 4.4.8 2.6 3.1 3.2 4.9 4.5.9.6 3.7-1.3 3.7-2.4-.1-2.2-1.7-3.8-4.3-3.7zm-47.7-102.6c-2.5.3-2.8 1.8-2.8 3.6l.6 16.4c0 .7.6 1.3.9 2l.7-.2-.7-9.6c-.1-3.3 0-6.5 0-9.8h.4l.6 2.2.6-.1-.3-4.5zm30.1 1.9c-.9-.9-1.8-.8-2 .6-.2 1.2-.4 2.5-.4 3.8 0 .5.3 1.4.6 1.5.5.1 1.2-.2 1.7-.4.7-.3 1.4-.7 2.1-1.1.8-.4 1.7-.7 2.4-1-.3-.9-.7-1.5-.6-2.1.2-1.3.1-2.5-1.2-2.8-.8-.1-1.7.9-2.6 1.5zm-82.6 135.3l.7-.5c-.2-2.1-.4-4.1-.5-6.2-.2-2.5-.6-2.9-2.5-2.8.1 1.3.2 2.6.3 4h-3.7c.2.8.1 2.3.7 2.8 1.5 1.1 3.3 1.8 5 2.7zm-30.5-95.2c2.3-1.7.9-3.6 1-5.3.2-1.8-.4-3.9.3-5.4 1-2-.4-3.6-.1-5.4.3-1.7.1-3.5.1-5.2-.7 1.9-.8 3.8-1.3 5.6-.6 1.9-1.4 3.8.2 5.5-3.7 3.3.5 6.5-.2 10.2zm-23.8-21.7c.1-.1.4-.5.7-.9-1.4-1-1.6-3.1-.8-5.4-1.5-.9-4.7 1-5.3 3.5 1.3.2 2.6.5 4 .7.1.6.1 1.4.2 1.9-1.4 1.2-2.6 2.2-3.7 3.3l.3.7c1.7-.6 3.5-1.1 5.4-1.8.1.1.7.3 1.2.6.1-.3.3-.7.2-.8-.6-.6-1.3-1.1-2.2-1.8zm139.3-61.5c-1.7 1.2-3.1 2.3-4.6 3.3-.1.1-.3.3-.3.5v7c1.4-.8 2.4-1.3 3.5-2 0 0 .3.1.8.3.2-2.2.4-4.2-1.7-5.6 2.6-.5 2.6-.5 2.3-3.5zm54.5 366.2c1.1 1 1.9 1.9 2.9 2.6 1.1.7 2.2 1.5 3.5 1.8 1.3.3 1.9.8 1.3 2.4 2-.6 3.7 1.5 5.5-.6-1.1-.3-2.1-.5-3.3-.8.6-.5 1-.9 1.5-1.4-1.9-1.3-4.8-.7-5.5-3.6l-1.4.8c-1.8-.1-2.7-2.3-4.5-1.2zm-182.1-67.4c.9.2 1.4.3 2.1.4l-.6 1.3c1.9.3 3.1 1 2.3 2.8 1.2.8 2.3 1.5 3.3 2.2 3.5-2.7-.1-2.6-1.6-3.3.5-.4.9-.8 1.1-.9-1.3-1.8-2.5-3.4-3.7-5.1-.6-.8-1.2-1.4-2.2-.4.2.5.5.9.7 1.3-.5.6-.8 1-1.4 1.7zm20.4-218.7l.8.1c.3-1.6.8-3.2.9-4.8.1-1.8-.2-3.7-.2-5.6 0-1.2.3-2.3.4-3.5-.3-.1-.6-.2-.8-.3-.5.7-1.2 1.3-1.4 2.1-.3 1.2-.2 2.5-.4 3.7-.4 2.9-.1 5.6.7 8.3zm-13.6-69.5c-.3.3-.8.6-.9 1.1-.2 1-.3 2-.4 3.1-.2 1-.9 2.3-.5 2.9 1.3 2.1.2 3.6-.6 5.4-.3.7-.3 2.1 0 2.2 1.1.6 1.8-.2 2.1-1.2.7-2.5 1.3-5 1.9-7.5.1-.3-.2-.6-.3-.9-.5-1.7-.8-3.3-1.3-5.1zm134.4-11.7c2.1.3.5 2.7 1.9 4.3.2-1.8.3-3.1.5-4.5.7 0 1.3 0 1.8-.1.3-.1.8-.8.7-.9-1-1.4-.6-2.8-.1-4.3.2-.8-.1-1.8-.3-2.6-.1-.3-.6-.4-.9-.7-.1.3-.3.8-.1 1 .7 1 .1 1.8-.7 2-2 .4-1.6 2-1.9 3.3-.3.8-.6 1.6-.9 2.5zm-147.4 288.8l.2-.5c-2.9.4-3.8-1.5-4.7-3.5-.2-.3-.4-.6-.6-1l-2.3-3.4c-.9-1.2-1.8-2.5-2.8-3.6-.3-.3-1-.2-1.5-.3 0 .3-.1 1 0 1 2.2.5 2.1 2.9 3.3 4.3.8.9 1.7 2 2 3.1.5 2.8 2.8 3.8 4.6 5.4.5-.6 1.1-1.1 1.8-1.5zm60-119.5c1.8-1.3 3.3-2.6 5-3.8 2.2-1.6 2.4-2.9.5-5-3.5 2-6.6 6.8-5.5 8.8zm-101.6 167.2c.3 0 .6-.1.8-.1.1-.7.4-1.4.4-2.1 0-2.5.1-5-.2-7.4-.1-.8-1.2-1.6-2-2.2-.7-.5-1.6-.8-2.3-1.2 0 .4-.1 1.2 0 2 .1.4.4 1.2.6 1.2 2.1.1 1.8 1.5 1.7 2.9-.1 1.3-.1 2.7 0 4 .2 1 .7 1.9 1 2.9zm187.6-195.6c2.3 1.5 4.5 2.8 6.6 4.1 1.4-2.7.6-4.4-2.1-5-.8-.2-1.4-1.1-2-1.6-.4-.3-.8-.9-1.1-.8-.4 0-.8.6-1 1-.2.7-.3 1.6-.4 2.3zm-27.9-84.5h.5c.1-.1.3-.3.3-.4.4-1.8-1-4.2 1.8-5.2 0 0 .1-.1.1-.2v-6.9h-.4c-.2.5-.3.9-.5 1.3l-1.2-1.7c-.2.1-.4.2-.7.2.1 4.4.1 8.7.1 12.9zm-150 206.6c-1 1.4-1.6 7.5-.8 8.7.2.3 1.1.4 1.3.2.5-.5 1-1.2 1.2-1.9.6-2.1 1-4.3 0-6.5-.5-.2-1.1-.3-1.7-.5zm60.5-232.5l-.9-7.3c-.2 0-.5 0-.7.1-.4 5.4-2.8 10.5-1.8 16.3 1.3-3.1.6-6.7 3.4-9.1zm186.6 26.1c-2.7.6-5 4.5-4.3 6.4.1.3.4.6.6.6 1.4.1 2.8.2 4.1.1.3 0 .7-.8.8-1.2 0-.3-.6-.9-.9-.9-1.7 0-1.5-1-1.2-2.1.2-.9.5-1.7.9-2.9zm-89.4-57.1c-.1.8-.3 1.3-.2 1.8 0 .2.6.3 1 .4.1-1 .4-2 .2-2.9 0-.3-1.4-.7-1.8-.5-3.2 1.4-6.4 3-9.5 4.6-.5.3-.7 1.1-1 1.6l.5.6c.5-.3 1-.7 1.6-1 .6-.4 1.1-1 1.8-1.2 2.4-.6 4.9-.8 6.4-3.2 0-.2.5-.1 1-.2zm32.6 53.8c-.3-1.1-.3-1.5-.5-2 1.7.1 3.4.5 4.1-1.7l.4.4v3.8c1.2.3 1.6-.1 1.2-1.2-.5-1.5 0-2.7 1.3-3.9.3.6.5.9.7 1.3.1-1.3.2-2.3.3-3.5-2.7 1.7-5.2 3.3-8.3 3.3-1.6 0-1.9 1.2-1.7 2.4.2.4 1.4.6 2.5 1.1zm-112.4 77.5c.3 0 .7 0 1-.1.2-7.9-1-15.8-2.1-23.6.3 8 .7 15.8 1.1 23.7zm-85.3 158.7l-.8-.1c-.2 1-.5 2-.6 3.1-.2 1.7-.3 3.3-.4 5-.1 1.3-.3 2.6-.3 3.9 0 .4.6.8 1 1.1.4-.4 1-.7 1-1.1.2-4 .1-8 .1-11.9zm52.9-201.3s.3 0 .6-.1.5-.3.8-.6c-2.5-3.3-1-7.1-1.6-10.7-1.6.7-3.4 4-2.6 4.6 1.3 1 1.1 2 1 3.3 0 .4.3.8.5 1.1.4.8.8 1.5 1.3 2.4zm22-94.3c.4.3.9.7 1.4 1-.2 1.5-.4 3.1.2 4.2.5.9 2 1.2 3 1.8.2-.4.6-.8.6-1.2l-.5-2c0-2-1.1-3.4-2.3-4.5-.9.2-1.6.4-2.4.7zm141.4 18.9h-.3c-.2-1.6-.3-3.2-.5-5-2 1.1-2.2 2.7-.6 5.7.4.7 2.3.5 3.7.7-.2-2.2-.3-3.8-.4-5.4-.1-.5-.3-1-.5-1.6-.3.4-.9.8-1 1.3-.2 1.4-.3 2.8-.4 4.3zm-201.6 277.2c-1.5 4.5-.9 7.6 2.7 8.2-.2-.7-.4-1.4-.8-2.6 1.3.6 2.2 1 3.1 1.4.2-.3.4-.5.7-.8-1.1-.8-2.3-1.3-3.2-2.3-.9-1-1.5-2.3-2.5-3.9zm143.2-160.4c-1.1.9-2.5 1.6-2.9 2.7-.3.7.5 2.2 1.3 3 .6.6 1.8.8 2.7.8.3 0 1-1.2.8-1.7-.3-1.6-1-2.9-1.9-4.8zm-117.6-108.6c1.4 1.9 2 3.6 1.5 5.7-.3 1.3.4 2.2 2.2 1.8 0-.8.1-1.5 0-2.3-.3-2.8-.5-5.6-.9-8.3-.1-.5-.7-1-1.1-1.4l-.6.3c.2.9.2 1.9.6 2.7.8 1.6 0 1.8-1.7 1.5zm-9.6 29.6c.1.1.2.2.3.2 0 .6-.2 1.3 0 1.8.3.8-.9 2.6 1.1 2.2 1.8-.3.4-1.6.3-2.4-.2-3.2-.5-6.4-.9-9.7-.1-.5-.6-1-.9-1.6l-.8.3.4 3.2.4 3.4c.2.9.1 1.8.1 2.6zm106 14.4c.1-.5.3-.9.2-1.2l-1.3-6.6c-.2-1.1 0-2.3 0-3.5l-.6-.3c-.3.5-.9.9-.9 1.4 0 2.6.1 5.3.2 7.9.1 1.3 1 2 2.4 2.3zm-13.8-23.1c1.2 2.6-.3 5.5 1.9 8.2.9-5.8-1.2-10.7-1.6-15.8-.5.7-.8 1.3-.7 2 .2 1.4.5 2.9.8 4.2-1 .4-1.6.7-2.7 1.1 1.2.2 1.8.2 2.3.3zm131.8 176.3l.1-.7c-2.9-.5-5.7-1-9.1-1.6.9-.5 1.2-.7 1.9-1.1-1.8-.6-3.2-1.1-4.7-1.4-.6-.1-1.3.4-2 .6.4.6.7 1.2 1.2 1.7.2.2.6.3.9.4 4 .8 7.9 1.5 11.7 2.1zm-34-223.2c1.1-.3 2.8.5 2.8-1.5 0-1.6-.1-3.2-.3-4.7-.1-.5-.8-1.2-1.1-1.2-.6.1-1.2.6-1.6 1.1-.2.3-.2.9-.2 1.3 0 1.2 0 2.3.1 3.5 0 .4.2.9.3 1.5zm-176.5 72.5c.5-.8 1.5-1.8 1.3-2.2-.9-2.2-1-4.2-.1-6.4.1-.2-.5-.6-.7-.9l-.7.9c-.3.7-.7 1.5-.9 2.3-.2.8-.5 1.6-.5 2.4.1 1.5.4 2.9.7 4.4.1.3.4.8.6.8.4 0 .8-.3 1.4-.5-.6-.4-.9-.7-1.1-.8zm184.5 304.1c-3.6-1.6-7.1-3.1-10.4-4.5-.2 3.6 3 2.8 5.2 3.5-.8.3-1.5.4-2.1.6-.3.1-.5.4-.8.6.3.3.6.8.9.8 2.3-.3 4.7-.6 7.2-1zm-100.9-320.8l-.7.1c-.2 1.1 0 2.4 1.2 2.6 1.9.4 2 1.5 2.2 3 .2 1.5.4 3.2 2.5 3.7 0-1.5.4-2.9-1.4-3.8-.5-.2-.5-1.5-.7-2.3.1 0 .2 0 .3-.1.3.4.6.8.8 1.2l.4-.2-.4-4c-.2 0-.4 0-.6.1 0 .6-.1 1.1-.1 2.2-.5-1-.8-1.6-1.1-2.3-.5.8-.9 1.4-1.5 2.4-.4-1.1-.7-1.9-.9-2.6zm68-7.9l-.8-.1c-.3 1.3-.6 2.6-.7 3.9 0 .2.7.6 1.1.9.6-1 1.6-.9 2.6-1.1 1.2-.3 1.4-4.9.2-6.1-.5 1.4-.9 2.6-1.5 4.2-.4-.9-.7-1.3-.9-1.7zm6-3.3c-.2-.1-.4-.2-.7-.3-.2.6-.7 1.4-.5 1.7.6 1.2.2 2-.4 3-.2.3-.3.8-.3 1.2 0 .2.7.4.9.3.4-.2.9-.6 1-1 .2-.6 0-1.3 0-2 1.4 0 1.7 3.1 3.3 1.3 1.3-1.4.2-2.7-1-3.7-.6.4-1 .7-1.7 1.1-.2-.6-.4-1.1-.6-1.6zm-183 154.4c-1.9 0-2.3-1.2-2.6-2.7-.1-.7-.9-1.4-1.3-2-.2.1-.4.2-.6.4.3 1.7-.4 3.6 1.3 5l3.4 2.7c.7.5 1.5 1 2.3 1.5-.3-2.2-3.3-2.3-2.5-4.9zm73.7-121.5c-.1 1.1-.2 1.7-.2 1.9 2.3 1.8 4.4 3.3 6.5 4.9.4.3.8.4 1.2.6.2-.5.6-1 .6-1.5-.1-1.1-.7-1.8-2-1.8-.5 0-1.1-.2-1.5-.5-1.5-1-2.9-2.2-4.6-3.6zm84.9-82.3v-.7c-1.8.8-3.3-1.4-5.2-.1-1.5 1-3.2 1.7-2.9 4 2.1 0 4.8-1.5 5.2-2.9.9-.2 1.9-.2 2.9-.3zm-154.2 44.3c-.9 1.3-.4 3.7-3.2 3.5l.3.5c1.3.6 2.6 1.1 4.2 1.8 0 .2 0 .7.1 1.3 1.8-1.1.9-5.7-1.4-7.1zm-8.2 125.5l.8-.4c-.5-2.6-1-5.2-1.4-7.5-1.1.9-2 1.5-2.8 2.3-.2.3-.3 1-.1 1.3.4.6 1.2 1.1 1.7 1.7.7.8 1.2 1.7 1.8 2.6zm3.9-131.8c-.8 1-1 2.6 0 3.7.6.6 2.1.6 3.1.5 1.3-.2 1.3-1.3 1.2-2.4-.2-1.2-.8-1.1-1.8-1-.6.1-1.4-.4-2.5-.8zm141.3-31.1c.3.1.9.3 1.5.3.2 0 .6-.9.5-1-.4-.5-.9-1-1.5-1.3-.3-.2-.9-.1-1.3.1-1.8.9-3.5 1.9-4.9 2.7.9.4 1.8.8 3.2 1.5.6-.6 1.6-1.5 2.5-2.3zm89.1 188.2l.8-.1c.4-3 .8-6 1.1-9l-.5-.3c-1.4 1.3-2.7 1.6-3.9-.3 0 .8.1 1.4.4 1.9 1.3 2.5 3.4 4.6 2.1 7.8zm-256.7 153.6c1-.8 2.3-1.3 2.3-1.9 0-3-.3-5.9-.6-8.9 0-.4-.7-.7-1.1-1l-.4.3c1.5 2 2.2 4.1.1 5.8.5.6.9 1.2 1.4 1.7-.5.1-1.1.3-1.8.5 0 1 .1 2.1.1 3.5zm251.6-129.1c.6 2.1 6.5 4.5 9.4 3.8-.2-1.2-7.6-4.2-9.4-3.8zm12.3-200.6c0-.2.1-.4.1-.5-4.3-3-9.6-2.8-11.6 1 .8-.3 1.2-.6 1.7-.7 1.3-.3 2.7-.7 4-.6 2-.1 3.9.4 5.8.8zm-173.6 133.5c-2.1.5-3.2 1.5-2.6 3.5.2.6.6 1.4 1.2 1.6.7.3 1.8.2 2.2-.2.4-.4.3-1.5.2-2.2-.2-.9-.6-1.7-1-2.7zm111.6-149.7c-.3 1.1-.6 2-1.1 3.4 1.6-.2 2.8-.4 4.1-.6-.3-1.6-.5-3-.8-4.5-1.2.1-2.7-1.1-3.7 1 .7.3 1.2.5 1.5.7zm-28.8 28.9c-2 .5-2.4 1.4-2.3 2.7.1.7 0 1.4 0 2.2.1 2.5.2 5 .3 7.6.2 0 .5 0 .7.1.2-.6.6-1.5.4-1.7-1.4-1.5-.4-3-.1-4.5.4-2.1.7-4.1 1-6.4zm-160.9 239.4h-.7l-.4 1.8c-.2 2.7-.4 5.5-.4 8.2 0 .6.5 1.2.8 1.8.3-.6.9-1.2.9-1.8 0-2.3-.2-4.6-.3-6.9.1-1 .1-2.1.1-3.1zm233.9-275.8c-.2.8-.6 1.6-.4 2.1.5.9.8 1.5-.2 2.3-.2.1.3 1.1.4 1.6.4-.2 1-.3 1.3-.6.4-.5.7-1.2 1-1.9-2.4-1.5.3-4.9-2.3-6.5-1.5 1.2-.9 2.2.2 3zm-151.1 180.5c-.4-3.7-1.3-4.3-6.3-4.5.2.7.3 1.6.7 1.8 1.8 1 3.7 1.8 5.6 2.7zm160.5 71.2h.4c.3-3.5.7-7.1 1-10.8-.4-.1-1-.2-2.1-.4.3 4 .5 7.6.7 11.2zm-168.5-51.7c.4 0 .8.1 1 0 1.4-.4 2-3.9.9-5.1-.5-.5-1.3-.6-2-1-.1.6-.4 1.3-.4 1.9.1 1.3.3 2.7.5 4.2zm-40-89.2h-.7c-.5-.3-1-.6-1.4-1-.8-1-1.8-.5-1.9.2-.2 1.3 0 2.8.2 4.1 0 .2 1.4.4 1.6.2.9-1.1 1.5-2.3 2.2-3.5zm9 223.1c1.3-1.9-.4-2.6-1.6-3.9.8-.2 1.5-.3 1.9-.6.6-.4 1-1.1 1.4-1.7.1-.1-.6-.9-.8-.8-1.4.1-2.7.5-3 2.3-.4 2.1.2 3.6 2.1 4.7zm35.5-316c-.6 3.4-1.6 3.6 3.1 6.3.7-1.4-1.2-5.4-3.1-6.3zm-40 313.9c-2.3-3.3-4.3-6.8-8-9.3.4 1.7 6.8 9.1 8 9.3zm199.4-254.2c.3-1.1.4-1.7.7-2.3.2-.5.6-1.1 1-1.2 1.5-.4 2.2-1.4 2.5-2.9-.8-.4-1.6-.8-2.6-1.2-.2.8-.4 1.4-.6 2 .5.2.9.3 1.3.4-.1.2-.1.6-.2.7l-3.8 2.4c.5.6.9 1.1 1.7 2.1zm-236.3 244.4c-1.2-1.4-6.6-1.6-8.6-.6 2.7 2.9 5.6.6 8.6.6zm92-145.1c-.8-.1-1.6-.5-1.9-.3-1.3 1.2-2.4 2.6-3.5 4-.2.3 0 .9 0 1.4.5-.2 1.1-.2 1.4-.5 1-.9 1.8-1.9 2.7-2.9.4-.4.7-.9 1.3-1.7zm25.2-145.4c.9-.3 1.8-.5 1.8-.7.2-1.9.9-3.9.1-6-3.6 1.4-1.3 4.1-1.9 6.7zm-121 275.7c-.6.3-1.2.5-1.2.7-.1 2.4-.2 4.9-.2 7.3 0 .1.5.4.7.4.2 0 .6-.4.6-.6.1-2.5.1-5 .1-7.8zm247.8-202.2v15.3c1.3-4.7 1.4-14.1 0-15.3zm-157.8 73c2.5-1.3 3-5.1 1.2-6.4-.2-.1-1.1.3-1.2.5v5.9zm-92.5 90.6c-.1-1.8 0-3.1-.4-4.3-.2-.6-1.1-1.1-1.8-1.4-.4-.2-1.1.1-1.6.2.1.6.1 1.4.4 1.9 1 1.1 2.1 2.2 3.4 3.6zm-3.2 19v-8.5h-.7l-.3 4c0 .3-.2.7-.4 1-1.1 1.5-.9 2.2 1.4 3.5zm92.9-273.5c-1.2 2.2-1.3 2.2.7 5.9.2.3.6.5 1 .8.5-2.7 0-4.8-1.7-6.7zm-6.4 137.8c3.1-.3 2.5 0 2.7-3.5 0-.5-.4-.9-.7-1.4-.5.3-1.4.5-1.5.9-.4 1.3-.4 2.6-.5 4zm11.2-69.4c-.4-1.3-.7-2.4-1.1-3.4-.1-.3-.6-.6-1-.7-1.3-.4-2.7-.7-4.3-1 1.2 2.9 4.5 3.1 6.4 5.1zm-51.6-35.5l-.7.8c.6.8 1.3 1.6 1.9 2.5v3.9h1c0-2 .2-3.9 0-5.9 0-.5-1.4-.8-2.2-1.3zm214.4-21.7c-1.4-1.5-14-1-15.7 0h15.7zm-240.4 161.5c-.7-2.1-1.3-4.1-1.9-6.2-.2 0-.4 0-.6.1 0 1.6-.1 3.2 0 4.8.1 2.2 1.2 2 2.5 1.3zm-3.3 27.8c.1 1 .5 2 .3 2.9-.6 2.4 1.1 2 2.3 2.3.6-2.2.3-3-2.6-5.2zm164.6-159.9c-.3 0-.6 0-.8-.1-.3 1.1-.8 2.1-.7 3.1.1 1.1.8 2.1 1.2 3.2l.5-.2c.1-1.9 1.6-4-.2-6zm-150.8 251.1c.2-.1.4-.2.6-.2-.1-.5 0-1.4-.3-1.6-1.5-.8-1.4-2.1-1.3-3.4 0-.4-.3-.8-.4-1.2-.9.3-1.6.5-2.7.8 1.5 2 2.8 3.8 4.1 5.6zm145.8-238.9c-1.2.9-2 1.6-2.9 2.3.6.5 1.3 1.5 1.6 1.4 1-.4 1.8-1.2 2.8-1.9-.4-.4-.7-.9-1.5-1.8zm-135.4 206.5c.8-.3 1.4-.7 2-.7.7 0 1.5.2 2.3.4.1.3.2.7.3 1.3 1-.5 1.8-1 2.4-1.4-1.3-1.1-2.3-2-3.8-3.3.1 1.2.2 1.7.2 2.6-1.8-1.4-2.6-.4-3.4 1.1zm96-242.9c-.8-2.6-1.4-4.5-2.1-6.9-.4 1.4-.5 2.5-1 3.2-1 1.5.3 2.1.9 2.9.3.4 1.2.5 2.2.8zm102.3 5.9v-.6h-9.2c3.3 1 6.2 2.2 9.2.6zm11 226.3c.7-3.2 1.7-6.4.8-9.6h-.8v9.6zm-149.9-165.6l.5-.5c-.4-.9-.8-1.9-1.4-2.7-.5-.6-1.3-.9-2-1.3l-.9 2.1c.8.3 1.4.6 2 .8l-.1.3h-.9l-.1.5c1 .2 1.9.5 2.9.8zm101.8 2.2c1.2-.1 2.5-.2 3.8-.4.3-.1.6-.8.7-1.2 0-.3-.4-.8-.7-.9-1-.2-2.1.2-2.7-1-.3.1-.7.2-.7.4-.2 1-.3 2-.4 3.1zm-76-61.9l-.7-.1c-.2 2.3-.4 4.7-.6 7.2 2-.9 2.4-3.6 1.3-7.1zm-93.5 84l-2.5 1.4c1.6.4 2.6.7 1.3 2-.3.3-.3.9-.4 1.4.7.1 1.3.1 1.7.3.4.2.6.7.9 1 .2-.1.4-.2.5-.2-.5-1.9-.9-3.7-1.5-5.9zm184.1-101.1c1.5-1.2 1.7-5.5.5-7.4-1.6 2.4-.7 4.7-.5 7.4zm-116.7 165.4c.1 1 .5 1.6 1.6.9 1.9-1.2 3.6-2.6 4.3-5-2 1.3-3.8 2.7-5.9 4.1zm-73.1 24.3c.7 2.5 2.6 3.5 4.5 4.7.2-1 .3-2.3-.2-2.7-1.1-.9-2.6-1.3-4.3-2zm-17.7 41.9l.2-.5c-.6-.2-1.1-.4-1.7-.5-1.8-.1-3.5-.2-5.3-.2-.5 0-.9.4-1.4.6.4.3.9.9 1.3.9l6.9-.3zm-14.3 63.9c-.2-1.3-.2-2.2-.4-3.1-.1-.4-.6-.7-1-1-.2.3-.6.6-.7 1-.1.9-.2 1.9 0 2.8.1.6.7 1 1.1 1.6.4-.4.7-1 1-1.3zm226-296.3v-6.3c0-.3-.4-.7-.6-.8-.3 0-.9.3-.9.5-.1 1.8-.2 3.6-.1 5.5 0 .3.8.5 1.6 1.1zm-116.6 146.9c-1.9-.3-3.6-.6-5.4-.8l-.1.6c1.5 1 3 2 4.6 3 .2-.8.5-1.7.9-2.8zm-63.2 94.3c1.2-.6 2.1-1.1 3.1-1.6l-.3-.5c-3.3 1.9-4-1.5-5.9-3 .2 2.9 2 4.2 3.1 5.1zm-31.9 99l3.9 5 .4-.3-2.1-5.6c-.8.3-1.5.6-2.2.9zm168.3-361.1l-.3-.7c-2 .7-4 1.4-6 2.3-.2.1 0 1.1 0 1.7 2.4-1.2 4.4-2.3 6.3-3.3zm-107.8 2.2c-1.6 1.5-1.6 2 .2 2.7.5.2.9.6 1.4.9l2.4 1.6c.2-.2.3-.4.5-.5-1.6-1.6-3.1-3.1-4.5-4.7zm-3.5 68.4c2.5-2.1 2.1-5 2.2-7.7-2.5 2.1-.1 5.5-2.2 7.7zm-25.5 86.3c1.3-2.1.9-4.5-1.2-6.2-.1 1.1-.2 2.3.1 3.3.1 1.1.7 2 1.1 2.9zm-20 59.6l.4-.4-3.7-5-.6.3c0 .9-.2 2.1.2 2.5 1 1 2.4 1.7 3.7 2.6zm64.1-65.7c-1 1-1.9 1.8-2.6 2.7-.2.3 0 1.1.3 1.5.1.2 1 .1 1.4-.2 1-.9 2.1-1.9.9-4zm-5.6-122.2c.7-1.1 1.3-1.8 1.7-2.6.1-.2-.7-1.1-1-1-1 .2-1.9.7-2.9 1.1.6.7 1.3 1.4 2.2 2.5zm-16.6 176.8c-.2 0-.5 0-.7.1 0 .5-.2 1-.1 1.5.2 1.1.7 2.1.8 3.2.2 1.5.4 1.7 1.9 2-.6-2.2-1.3-4.5-1.9-6.8zm-37 53.8c1.3 1.6 2.4 2.8 3.5 4.1l.9-.6c-.5-1.2-.8-2.5-1.6-3.4-.4-.4-1.7-.1-2.8-.1zm10.3-82.1c.1-.2.2-.4.4-.6l-7.6-4.6-.3.5c2.4 1.8 4.6 3.9 7.5 4.7zm53.5-162.4c-.9-1.2-1.8-2.4-2.8-3.5-.2-.2-.8-.2-1.2-.2-.1 0-.3.5-.2.8.2 1.5 2 3 4.2 2.9zm60.6 323.9c-.5-.9-1.1-1.5-.9-1.9.7-1.9-.7-2.1-2.4-2.7.5 1.8.9 3.4 1.5 4.9 0 .1 1-.2 1.8-.3zm-124-270.7c-.3 0-.6.1-.8.1l1.4 7.7c1.6-2.8-.1-5.3-.6-7.8zm65.4 144c.2.6.3 1.3.6 1.4 1.5.5 3.1.8 4.6-.2-1.3-2.1-3.3-.9-5.2-1.2zm139.6-113.9c.8-1 1.6-1.6 1.7-2.2 0-.5-1-1-1.5-1.5-.5.6-1.2 1.1-1.5 1.8-.1.3.6.9 1.3 1.9zm-196.5 71.2l-.5.7c2 2.5 5.4 2.5 8 3.9-2.5-1.5-5-3-7.5-4.6zm139.8-139.2c-1.3.9-2.4 1.6-3.5 2.4-.2.2-.1.9-.1 1.3.4-.1.8-.1 1.1-.3.5-.2.8-.7 1.3-.7 1.6-.2 1.7-1 1.2-2.7zm-29.6 19.7c.5.9 1 1.5 1.3 2.3.3.8.4 1.7.6 2.6l.6-.1c-.1-2-.3-4.1-.5-6.4-.9.8-1.5 1.3-2 1.6zm-97.7 78.1c-.1 1.8-.3 2.9-.3 3.9 0 .4.2.9.5 1.1.2.2 1 0 1-.1.2-1.1.3-2.2.2-3.3 0-.5-.8-.9-1.4-1.6zm148.8-124.7c.8 1.1 1.2 1.9 1.8 2.5.3.4.9.6 1.4.7.2 0 .8-.6.7-.7-.5-1-.8-2.1-1.6-2.8-.4-.3-1.6.2-2.3.3zm57.8 97.3h.7v-7.5h-.7v7.5zm-174.5 50.5h1.2v-6.5h-.7c-.2 2.1-.4 4.3-.5 6.5zm105.8 23.9l-.3-.1c-.7 1.6-1.4 3.2-2.1 4.9l2.4.7v-5.5zm-160.2 105.1c.5 2.7 1.2 5.2 4.6 5.6-1.6-2-3.1-3.8-4.6-5.6zm175.2-245.7c-.2 1.4-.4 2.5-.4 3.6 0 .4.6 1.1.9 1.1.4 0 1.2-.5 1.2-.8.1-1.4.2-2.9-1.7-3.9zm46.6 355.8l-.3-.5c-.7.5-1.5.9-2.1 1.5-.5.4-.8.9-1.2 1.4.5.3 1.1 1 1.5.9.5-.1 1.1-.7 1.4-1.2.4-.6.5-1.4.7-2.1zm-160-217.5c.5-.5 1.1-.9 1-1.1-.3-1.7-1.8-1.2-2.9-1.4-.4-.1-.9.5-1.4.8 1.1.5 2.1 1 3.3 1.7zm-52.5-87.6c-.7-.2-1.2-.3-2.4-.5.7 1.6 1.2 2.8 1.7 4 3.3-2.2 3.3-2.2 2.7-3.2-.8.6-1.6 1.2-2.5 1.9-.2-.2-.3-.4-.5-.5.4-.5.6-1 1-1.7zm162.7 89.4c2.4-1.1 4.3-4.5 3.7-6.3-1.3 2.2-2.5 4.3-3.7 6.3zm-126 10.6l-.5.5c.9.7 1.7 1.4 2.6 1.9.2.1 1-.2 1.2-.5.2-.4.2-1.1.1-1.6-.1-.3-.8-.4-1.2-.4-.7 0-1.4 0-2.2.1zm129.7-139.8c.2-.1.5-.2.7-.2.1-1.1.4-2.3.3-3.4 0-.5-.7-1-1.1-1.5-.2.5-.6 1-.7 1.6-.1.5-.1 1 0 1.5.2.6.6 1.3.8 2zm57.3 13.5c-1.8 1.7-2.1 3.1-.9 4.6.2.3.6.4.9.5.1 0 .5-.3.5-.5-.2-1.4-.3-2.8-.5-4.6zm-173.2 132.7l-.3-1-2-1.8c-.4.4-1.1 1-1 1.2.5.8 1.1 1.6 1.8 2.2.2.1.9-.4 1.5-.6zm-44.7-163.8l.6-.4c-.6-1.4-1.2-2.9-1.7-4.3-.1 0-.3 0-.4.1-.2 1.1-.5 2.1-.7 3.3.7.4 1.4.9 2.2 1.3zm32.6 16c.2 0 .3 0 .5.1.3-.9.8-1.8 1-2.7.1-.5 0-1.2-.2-1.7-.1-.2-.8-.3-.9-.2-.4.5-1 1.1-1 1.7-.1.9.4 1.8.6 2.8zm182.5 274.3c-.7.1-1.3.1-1.9.2 0 .2 0 .4.1.5 1.8-.2 3.7-.4 5.5-.5-3.4-2.5-3.4-2.5-3.7-.2zm-24-114.5c2.4.4 4.8.8 7.1 1.2l.1-.7c-2.4-.1-4.5-2.3-7.2-.5zm-213.7 96.8c-.2.1-.4.1-.7.2-.6 2.9-.4 3.5 2.4 4.7-.6-1.9-1.2-3.4-1.7-4.9zm155.3-204.2c1.2-2.5 2.1-4.5 3.1-6.5-1.8-.3-3.4 2.8-3.1 6.5zm17.1 53.1c-.2.9-.3 1.7-.4 2.5.5.1 1.3.4 1.6.2.7-.6 1.1-1.4 1.8-2.4-1.4-.1-2.1-.1-3-.3zm-128.4 224.1l-.6.5c1.2 1.8 1.4 4.3 3.8 5.3l.4-.3c-1.2-1.9-2.4-3.7-3.6-5.5zm20.4-364.3c.6-2-.4-3.1-1.9-4.2-1.2 2.3.9 3 1.9 4.2zm-16.7 105.9c-.3-.1-.6-.2-.8-.2l-1.2 4.3 1.1.3c2.3-.8-.1-3.2.9-4.4zm-20.6 175.8l.3-.4c-.7-1.3-1.5-2.6-2.2-3.8l-.4.2c.1 1.2.2 2.3.3 3.6.7 0 1.4.2 2 .4zm124.1-182.7c1.8-.9 2.4-2.1 1.5-3.7-.1-.2-.4-.5-.7-.5-.2 0-.6.3-.6.6-.1 1.1-.1 2.3-.2 3.6zm-127.1 194l.4-.4c-.7-2-2.6-3.6-4.3-3.1 1.5 1.2 2.7 2.4 3.9 3.5zm88.4-281.5c-2.4-.1-.7-2.2-1.9-3.1l-1 5c1.3-.9 2.1-1.4 2.9-1.9zm48.3-9l.1-1.9c-.2-.1-.3-.2-.5-.4l-3.6 2.6c.1.1.2.3.2.4 1.2-.1 2.3-.4 3.8-.7zm-154.5 245.3h1c.1-.7.4-1.4.2-2-.7-1.9-2.2-1.9-3.8-1.3.5.4 1 .9 1.5.9 1.7 0 2.2.7 1.1 2.4zm-11.9-81.3c-.1.2-.3.4-.4.7.5.4 1.1.7 1.7 1.1-.6 1.1-1.9 2 0 3.5.2-1.4.7-2.6.5-3.7-.1-.6-1.2-1.1-1.8-1.6zm138.8-89.1c-.3-2-.6-3.8-1-6-1.2 2.2-.6 5.2 1 6zm69.8-74.5c.9-1.6.8-3.4-.3-4.4-1.2 1.9-1.1 3.1.3 4.4zm-192.5 288.4c-1.1-2.3-2.6-3.3-4.8-3.2l-.3.5c1.6.8 3.2 1.6 5.1 2.7zm5.7-70.8c.1-.2.3-.4.4-.5-1.2-2.9-2.4-3.6-3.7-2.2l3.3 2.7zm138.1-146.5c.2 0 .5 0 .7-.1.1-1.5.2-3 .2-4.5 0-.3-.5-.6-.8-.9-.1-.1-.6.2-.6.4.1 1.8.3 3.4.5 5.1zm-182.7 139.8c-.1 0-.2 0-.3.1.2.5.4 1 .7 1.5.1.1.8 0 .8-.1.1-.5.1-.9.1-1.4v-3c0-.1-.6-.2-.7-.1-.2.3-.5.7-.5 1.1-.2.5-.1 1.2-.1 1.9zm63.4-204.6c-.5-1.5 1.8-3.4-.6-4.8-1.5 1.8.2 3.2.6 4.8zm114.7 33.8h-.8l-.3 5.2h.7c1.7-1.6-.3-3.5.4-5.2zm-138.7 16.5c2-.8 2.1-2.5 1.8-4.8l-1.6 1.6c1.2 1.1.4 2.1-.2 3.2zm-14 313.5h.9c-.1-2.3-.2-4.6-.3-7h-.5c-.1 2.4-.1 4.7-.1 7zm-15.2-23.7c2-.7 1.8-2.1 1.9-3.3 0-.3-.3-.6-.5-.9-.3.2-.9.4-.9.7-.3 1-.4 2.1-.5 3.5zm65.5-255c-.2 0-.4 0-.6.1-.2.5-.7 1-.6 1.5.1.5.6 1 1 1.5.4-.4 1.2-.9 1.2-1.3 0-.7-.7-1.2-1-1.8zm109-89.6c.1.2.2.5.2.7 2.1.9 3.2.4 3.7-1.8-1.5.4-2.7.8-3.9 1.1zm-127.2 122.8c-1 .7-2.3 1.1-1.8 2.7.1.3 1.1.7 1.3.5 1.2-.8 1.5-1.8.5-3.2zm200-90.3c.7.1 1.6.3 2.5.3.2 0 .6-.8.5-1-.5-.9-1.1-1.6-1.6-2.4-.3.8-.8 1.8-1.4 3.1zm3.4 232.4c.2 0 .4 0 .6.1v-5.9h-.6v5.8zm-183.8-169.5c-.4-.8-.7-1.3-1-1.8-.5.6-1.1 1.2-1.3 2-.1.3.4.9.7 1.4l1.6-1.6zm70.3-41.2c.9.5 1.7.4 1.7-.6 0-1.5-.3-2.9-.4-4.4h-.3c-.3 1.6-.6 3.2-1 5zm-2-30.6c.2 1 .3 1.7.4 2.4l.4 2 .6-.1v-4.8c-.6.2-1.1.4-1.4.5zm-87.9 50.1l-.6.1c.3.8.4 1.7.9 2.3.4.4 1.2.3 2 .5v-1.8c-.9-.5-1.6-.8-2.3-1.1zm33.8 72.4h.5c.1-.8.3-1.7.3-2.5 0-.5-.2-.9-.3-1.4 0-.1-.6-.1-.7 0-.3.4-.8 1-.7 1.4.1 1 .5 1.7.9 2.5zm-41.2 80.2l.1.6c.4.1.8.2.7.1.5.9.9 1.5 1.3 2.1.2-.1.4-.2.5-.3-.1-.5-.1-1-.2-1.4l-.4-1.8c-.6.3-1.3.5-2 .7zm-19.6-209.3c.4 0 .8-.1 1.3-.1-.1-.9-.2-1.9-.4-2.8 0-.1-.9 0-1.5.1l.6 2.8zm-7 120.9l-.7-.2c-.2 1.1-.5 2.2-.8 3.6 2.4-.8 2.6-1.5 1.5-3.4zm191.4-73.2l-.8-.1c-.2 1.3-.3 2.6-.6 4.3 2.9-1.1 1.2-2.9 1.4-4.2zm-75.5-28.4c-1.2 2.3-1 4.4.4 5.8-.2-2.2-.3-4-.4-5.8zm-38.5 20.4c-.2.2-.4.5-.5.7.5.6 1.2 1.7 1.4 1.6.9-.5 1.8-1.2 2.7-1.9-1.6-1.3-2.4 2-3.6-.4zm-45.8 244.2c-.2 2.7.4 3.5 2.9 3.3-1.1-1.3-2-2.3-2.9-3.3zm51.6-290.6c1 1.1 2 2.2 3.3 3.7-.2-2.8-1.1-3.9-3.3-3.7zm-92.5 174.7l-.1-1.1-4.2.4c0 .3 0 .6.1.9 1.4-.1 2.8-.2 4.2-.2zm45.7 68.5c.6-2.2-.5-2.4-1.5-2.5-.4 0-.8.6-1.2.9.9.6 1.7 1.1 2.7 1.6zm187.6-209.3c0-.3.1-.6.1-1l-4.9-.4-.1.9c1.6.1 3.3.3 4.9.5zm-72.4-26.1h.6v-4.9h-.9l.3 4.9zm-17.8 274.7c-2.1-2.2-3.1-2.3-4-.4 1.2.2 2.4.3 4 .4zm-81.5-223.9c-.1-1.2 1.4-2.7-.6-3.6.1 1.2-1.3 2.6.6 3.6zm171.6 17.9l.1.5c1.3-.1 2.6-.3 4.1-.4l-.1-1.7c-1.5.5-2.8 1-4.1 1.6zm-208.1 225.4c-.2.1-.3.2-.5.4l3.6 4.9c.2-.2.5-.4.7-.5-1.3-1.7-2.5-3.3-3.8-4.8zm33.4-281.3l-1.2.1.2 3.1c.5-.1 1.3-.2 1.3-.2 0-1-.2-2-.3-3zm55.7 5l.8-.1-.6-3.7-.6.1c-.6 1.3-.8 2.6.4 3.7zm78.6-35.3c1.5-.3 2.9 1.4 4.3-.2-1.5-1-2.8-2-4.3.2zm-107.6 144.9l1-.5-1-2.5c-.4.3-1.3.8-1.2.9.3.7.7 1.4 1.2 2.1zm-43-6c-1.7 1.1-1.7 1.1 1.1 5-.4-1.9-.7-3.4-1.1-5zm78.6-133.7l-1.5-1.5c-.4.4-1.1.9-1 1.2.1.5.6 1 1 1.5.4-.3.8-.6 1.5-1.2zm41.7 5.5l1.7 2.3v-4.8c-.7 1-1.1 1.7-1.7 2.5zm-127 97.7c1-.6 1.7-.9 2.2-1.4.4-.4.5-1.1.6-1.6 0-.2-.5-.4-.7-.7-.3.3-.7.7-.9 1.1-.4.7-.7 1.5-1.2 2.6zm-8.4 116c.2-.1.3-.2.5-.2-.2-1.2-.4-2.4-.6-3.4-.9.5-1.5.7-1.9.9.6.8 1.3 1.7 2 2.7zm16.4-165.7c-.2-1.4-.4-2.8-.7-4.4-1.1 1.2-.9 3.1.7 4.4zm-14.5 204.5l.5-.4c-.1-1-.2-2.1-.3-3.3-.7.2-1.2.4-2.1.6.7 1.3 1.3 2.2 1.9 3.1zm55.6-209.9l1.1.2.9-2.1c-.6 0-1.3 0-1.9-.1-.1.6-.1 1.3-.1 2zm-19.7-29.3c.8-1.3 1.2-2.3-.2-2.7-.4-.1-1 .3-1.4.4l1.6 2.3zm52.3 131.8l-.5-.7c-1.7-.5-2.2.7-2.6 1.9l.4.6 2.7-1.8zm-129.9 12.1c.2 0 .3 0 .5-.1v-4.8h-.5v4.9zm141.8-116.2c.2 0 .4-.1.7-.1l-.6-4.2-.6.1c-.1 1.4-.6 2.9.5 4.2zm-55.2 7.5c-.2-.1-.5-.2-.7-.4-.4 1-.8 2-1 3.1-.1.3.4.8.6 1.2l.5-.1c.1-1.3.3-2.6.6-3.8zm120.8 7.9c1.4.6 2.1 1 3.2 1.5-.2-1.1-.4-1.9-.7-3.1-.8.5-1.5.9-2.5 1.6zm-156.6 6.3c.2 0 .5 0 .7-.1l-.6-5.4c-.2 0-.5 0-.7.1.2 1.7.4 3.6.6 5.4zm41.2 92.1c.3-1.9.2-2.9-1.2-3.2-.2 0-.9.7-.8.7.5.8 1.1 1.5 2 2.5zm-1.7-11.2c-.3.2-.6.3-1 .5.3.7.6 1.5.8 2.2l1.4-.7c-.3-.7-.7-1.3-1.2-2zm169.3 102.4h.6c.1-1.6.2-3.2.2-4.9h-.8v4.9zm-176.9-241.2h-.6c-.4 1.1-.8 2.2-1.3 3.6.4 0 1.3 0 1.4-.2.2-1.1.3-2.2.5-3.4zm131.2 44.9l-1.1-.3c-.2.9-.4 1.7-.5 2.6l.9.3c.2-.8.4-1.7.7-2.6zm41.4-22.7l.7.2c.9-.9 1.7-1.9.3-3.5-.3 1.2-.6 2.3-1 3.3zm-239.3 249.2l.5-.2c.1-.9.2-1.7.2-2.6 0-.3-.4-.7-.6-1-.3.3-.9.7-.8 1 0 .9.4 1.8.7 2.8zm91.3-202c-.2.2-.4.4-.6.5l2.1 2.1.5-.5c.1-1.3-.5-2.1-2-2.1zm62.5-70.7l.7.1c1.6-1.4 1.6-1.7-.1-3.1-.3 1.2-.5 2.1-.6 3zm-87.1 56l2.3.9c.2-1 .4-2 .6-3.3-1.1.9-1.9 1.6-2.9 2.4zm-17.2 27.3l-.3-.1c-.3 1-.7 2-.8 3-.1.4.3.8.5 1.2.3-.4.8-.8.9-1.2 0-1-.2-1.9-.3-2.9zm80.5 233.7c1 2 2.8 2.9 4.4 2.3-1.6-.9-3-1.6-4.4-2.3zm58.1-247.7h.9c-.2-1.4-.4-2.7-.5-4.1h-.4v4.1zm-167.1-33.9l.1-2.1c0-.4-.3-.8-.5-1.1-.1-.1-.6.1-.8.3-.6.6.4 2.7 1.2 2.9zm119.5 269.1c.5-.8 1-1.4 1.1-2 0-.2-.9-.9-1.3-.8-.4.1-.9.7-1.1 1.2 0 .1.6.6 1.3 1.6zm-122.7-27.2c-.1 2.6.4 3.1 2.2 2.6-.8-.9-1.5-1.7-2.2-2.6zm30.7-278.9c.8-1.4.6-2.4-.9-2.9-.5-.2-1.1 0-1.6 0 0 .2 0 .4-.1.6 1.4.1 2.7.4 2.6 2.3zm113.8 343.1c.4 2.4 1 2.6 2.6 1.1-1-.4-1.8-.8-2.6-1.1zm31.6-319.5l-1.1.6c.4.8.9 1.5 1.4 2.2 0 0 .6-.3.9-.4l-1.2-2.4zm-173.5 150.9c-.2.2-.3.4-.5.5 1.2 1.2 2.4 2.3 3.5 3.5.2-.2.4-.4.6-.7-1.1-1.1-2.4-2.2-3.6-3.3zm12.2-162.9c-.6.5-1.1.7-1.2.9-.2.6-.3 1.3-.3 1.9 0 .1.9.3.9.3.2-.5.4-1.1.5-1.6.2-.3.1-.7.1-1.5zm127.5-10.2c-.2.1-.5.2-.7.2v2.7l.5.3c.4-.5 1-.9 1-1.4 0-.5-.5-1.2-.8-1.8zm-110.6 23.3c-.2-1.5-.3-2.8-.5-4.1-1.3 4.2-1 4.2.5 4.1zm88.9-7.4l-.8.1c.1.9.1 1.8.3 2.6 0 .3.5.4.8.6.2-.3.6-.6.5-.9-.2-.7-.5-1.6-.8-2.4zm3.9 271.7c-.1-.3-.1-.6-.2-1l-3.5.6.2.9c1.2-.1 2.3-.3 3.5-.5zm23-245.4c-.5.9-1 1.4-.9 1.8 0 .4.6.8.9 1.2.3-.4.7-.9.8-1.3.1-.5-.3-.9-.8-1.7zm-78.4-43.3h.9l-.3-3.3c-.2 0-.4 0-.6.1v3.2zm9.2 127.7c.2 0 .4.1.5.1.3-1.1.6-2.3 1.1-3.9-2.4 1.1-1.5 2.6-1.6 3.8zm-97.3 16.9c-1-.7-1.8-1.3-2.7-2-.4 2.3.4 2.7 2.7 2zm60.3-171.4l-.2-.6c-.8-.1-1.6-.1-2.3-.2-.1.1-.2.3-.2.5.6.4 1.1 1 1.7 1.2.1.1.6-.6 1-.9zm102 317.3c.6 1.2-.8 2.7 1.2 3.3.6-1.3.7-2.4-1.2-3.3zm-71.2-241.9c-2.7 1.3-2.9 1.9-1.5 3.4.5-1.1 1-2 1.5-3.4zm-8.5-44.9c-.5 1.3-.8 2-1.1 3 1.1-.4 2-.8 2.8-1.1-.4-.4-.9-.9-1.7-1.9zm57.1-4.3l.7.2.6-1.9c-.6-.1-1.3-.1-2.3-.2.5.9.8 1.4 1 1.9zm-10.3 13.5c-.8-.5-1.2-1-1.5-.9-.4.1-.8.6-1.1.9.4.3.7.7 1.1.7.3.1.7-.3 1.5-.7zm-120.1 328.2c-.3 0-.6 0-.9.1l.7 4.5.6-.1c-.2-1.4-.3-2.9-.4-4.5zm194.1-365.9v-3c-1.9 1.5-1.9 1.7 0 3zm-210.9 315.8h.6c.9-1.9.9-2-.7-3 0 1.1 0 2.1.1 3zm202.6-226c-.8.9-1.4 1.6-2 2.3 1.9.6 2.4.2 2-2.3zm-171.7-34.7c-.5.8-1 1.5-1 1.6.5.5.5 2.1 1.9 1.2-.2-.8-.5-1.5-.9-2.8zm219.1-57.6c-1.2-.1-2-.2-2.8-.2v2.2c1.1-.8 1.7-1.3 2.8-2zm-174.3 176.6l.6-.9-3-1.8-.4.6c1 .6 1.9 1.3 2.8 2.1zm-41.2 108.5l-.4.6c.3 1.6 1.5 1.3 2.6 1.1l.3-.5c-.9-.3-1.7-.8-2.5-1.2zm-28.6 60.7l-.9.2.9 3.6c.2 0 .4-.1.5-.1-.2-1.2-.4-2.5-.5-3.7zm125.7-284l-.9.2.7 3.7.6-.1c-.1-1.4-.2-2.6-.4-3.8zm-37.6 15.1l.8.3c.3-.8.7-1.6 1-2.5l-.9-.3-.9 2.5zm-81.3 131.1l.4-.2c.2-.7.3-1.5.5-2.5-.7.2-1.2.3-1.8.5.3.8.6 1.5.9 2.2zm26.1-107.9c-.4 2.2-.3 2.4 2.2 1.9l-2.2-1.9zm213.2-24.4c.3.2.6.4.8.7.5-.6.9-1.2 1.3-1.9 0 0-.5-.4-.7-.6-.4.6-.9 1.2-1.4 1.8zm-172.2-6.1c-.3 0-.6-.1-1-.1l-.3 2.7.8.1.5-2.7zm13 73.6h-.4v4.9h.4v-4.9zm-17.6-142.1l.3-.9-2.3-.9-.2.9c.7.4 1.5.6 2.2.9zm-3.1 99.8l.5-.9-2.1-1.2c-.2.3-.3.6-.5.8.7.4 1.4.8 2.1 1.3zm24.5 78.6l-.9-.1c-.1.8-.1 1.6-.1 2.5l.8.1c.1-.9.2-1.7.2-2.5zm74.3-107.4h-.7c0 .7-.1 1.4.1 2 .1.3.8.4 1.7.8-.5-1.3-.8-2.1-1.1-2.8zm70.6 26.2l-.2-.8-3.5 1.1.2.7c1.1-.4 2.3-.7 3.5-1zm-94.8-84.2c-.2.3-.4.6-.5.9.6.3 1.2.6 1.8.8.1 0 .4-.4.7-.7-.7-.3-1.3-.6-2-1zm-123.9 186.3l-.6.4c.3.5.5 1.2 1 1.5.3.2.9 0 1.9-.1-1.1-.9-1.7-1.3-2.3-1.8zm123.3 149.7h3.5c-1.2-1.7-1.2-1.7-3.5 0zm1.8-177.9c-.6 1.4-1 2.5-1.4 3.5.9-.9 2.6-1.5 1.4-3.5zm57.8-124c.1.2.2.5.2.7 1.2-.4 2.4-.8 3.7-1.2-.1-.2-.2-.5-.2-.7-1.3.4-2.5.8-3.7 1.2zm-39.4-42l-.4-.8-2.7 1.8.4.6c.9-.5 1.8-1 2.7-1.6zm-35.3 126.8c.2.2.4.4.7.6.6-.6 1.1-1.2 1.7-1.7-.2-.2-.3-.4-.5-.5-1.2-.1-2.4-.2-1.9 1.6zm39.6-51.3l.9-.1c-.1-1-.2-2-.3-2.9l-.9.1c.1.9.2 1.9.3 2.9zm78.3-12.6c-.2 0-.4 0-.6-.1l-.5 1.8-.3 1.8.7.1c.3-1.2.5-2.4.7-3.6zm-70.6 35.5l-.2-.9c-.7.1-1.4.2-2.1.4-.1 0 .1.6.1 1 .8-.2 1.5-.3 2.2-.5zm-159.9 258.7c1.5-1.9.2-2.6-.8-3.4.3 1 .5 2 .8 3.4zm94-253.7h-.6v2.9h.6v-2.9zm-53.3 175.7c.9-2.1.6-2.6-1.6-2.4.5.8 1 1.5 1.6 2.4zm-25.2-285.4v.9c.8-.1 1.6-.1 2.3-.3.1 0 .1-.6.1-1l-2.4.4zm21.1 53.6c-.1-1-.2-1.6-.3-2.8-.7.9-1.1 1.5-1.8 2.3 1 .3 1.6.4 2.1.5zm215.1 301.2c-.8-.7-1.4-1.6-2.3-2-.8-.4-1.8-.2-2.8 0 1.8 1.7 4.8 1.4 5.9 4.1-.6.1-1.2.3-1.9.5.3.5.8.9.9 1.4.1.8 0 1.6-.1 2.5-.7-.1-1.7.2-2.2-.2-2.8-1.9-5.5-3.9-8.2-6-2.4-1.8-4.8-3.8-7.3-5.6l-13.6-9.5c-1.4-1-2.4-2.6-3.8-3.7-1.7-1.4-3.7-2.6-5.5-3.8-4.7-3.1-9.4-6.1-14-9.2-6-4.1-11.9-8.3-17.9-12.5-.9-.7-1.9-1.2-2.7-2-.3-.2 0-1 0-1.6.5.1 1 0 1.4.2 3.1 2.1 6.1 4.3 9.1 6.5 2 1.4 4 2.7 6.1 3.8.4.2 1.3-.3 2-.5v-.7l2.2 1.7-.2.3-1.2-.4c-.1.2-.2.4-.3.5 3.2 2.3 6.4 4.7 9.7 7.2.1-.5.2-.8.3-1.2 5.4 3.3 10.9 6.4 15.2 11.7 0 .1-.1.6-.2 1.1.1.1.2.3.4.4 1-.8 2.1-1.5 3.1-2.2-5.8-4.1-11.5-8.2-17.2-12.3l.1-.5c1.1.2 2.3.3 3.8.5-.4-.6-.7-1.1-.8-1.1-1.4.5-2.8-1.9-4.3-.1-.1.1-.7-.1-1-.3-4.4-3.3-8.7-6.6-13-9.9-.4-.3-.7-.7-1.4-1.5 1.3.1 2.1.1 3 .2-2-2.9-4.5-5-7.5-6.6-.8-.4-1.7-.8-2.3-1.3-.3-.3-.4-1-.5-1.5.5 0 1.1-.3 1.5-.1l10.2 6.4 15 9.2c.9.5 1.6 1.2 2.4 1.8 1.5 1.2 2.9.7 4.4-.1 1.9-.9 4-1.5 6.1-2.2.3-.1.7.1 1.1.6-2.8 1-5.6 2-8.5 3 .4.8.6 1.3.8 1.7-.5.5-1 .9-1.6 1.4l-3.4-2.4c-.2.2-.3.4-.5.7 1.4 1 2.8 1.9 4.1 2.9 2.5-2.1 2.5-2 5.4 0 3.6 2.4 7.3 4.7 10.8 7.2 3.4 2.3 6.6 4.8 9.9 7.2 4 2.9 8.2 5.7 12.1 8.8.7.6.7 2.1 1 3.2-.8-.1-1.7-.2-2.5-.4-.4-.1-.8-.6-1.2-.6-.6 0-1.2.2-1.7.2.3.4.5.9.9 1.3l1.9 1.3c.6.5 1 1.1 1.5 1.7-.2.4-.4.6-.7.8zm-32.9-174v-11.6c-2.4.4-2.9 1.1-2.8 3.1.1 3.9.1 7.9.1 11.8 0 .5-.1 1.2.2 1.5 1.1 1.1.4 2-.3 2.8-4 4.9-8.1 9.8-12.2 14.7-.2.3-.5.5-1.1 1-.2-.8-.5-1.4-.4-1.9l.5-12.5c0-.7-.2-1.5-.6-2.1-1.7-2.7-1.5-4.1.8-6.4 2.3-2.3 4.4-4.8 6.6-7.2 1.4-1.5 2.6-3.2 4.2-4.3 1.3-.9 3.1-1.2 4.7-1.7.2-.1.8.3.8.6 1 4 1.3 8.1.3 12.2h-.8zm-10.8 13.4c2.1-.6 2.4-2.1 2.5-3.4.2-2.9.1-5.7.2-8.6l.4-4.7h.8v12.1c1.4-.7 2.5-1.3 3.1-1.6v-16c-1.2 1.1-1.9 1.7-2.5 2.4-.9.9-1.7 1.7-2.5 2.7-.7.8-1.7 1.7-1.8 2.7-.3 2.7-.2 5.4-.2 8v6.4zm-3.7 5.2c1.1.2 1.4-.7 1.5-1.7.3-4.7.6-9.4.7-14.2 0-.9-.4-1.8-.7-2.6-.9.5-1.9.9-2.7 1.6-.3.3-.2 1.1-.1 1.7.1.6.6 1.2.6 1.8.3 4.4.4 8.8.7 13.4zm-10 36.4c2.3-3.6 3.1-3.7 6.6-2.3 2.8 1.1 5.8 1.8 8.7 2.7 2.2.7 4.5 1.2 6.7 2.1.6.2.8 1.5 1.2 2.2-.7.2-1.4.6-2 .4-2.3-.5-4.5-1.2-6.7-1.9l-.1.5c2.5.9 5 1.8 7.5 2.8.5.2.9.8 1.3 1.3-.6.2-1.3.6-1.8.5-3.9-1.4-7.8-2.8-11.7-4.3-3.1-1.2-6.3-2.6-9.7-4zm22.6-72.9c-2.3-1.7-2.3-2.6-.3-3.6.2-.1.7-.3.6-.3-.3-2.3 2.1-2.1 3.1-3.3.5-.6 2-.8 2.9-.6 1 .3 1.7 1.3 1.1 2.6-.1.3 0 .7 0 1.1 0 2.6-1.1 3.8-3.6 3.6-1.9-.2-2.9.6-4.1 2-2.8 3.3-6 6.3-9 9.3-2.2 2.2-4.5 4.4-6.9 6.6-.4.4-1 .5-1.7.5 5.2-6.6 11.7-12 17.9-17.9zm-43.7 76.3l4.8 1.8c4.2 1.8 8.4 3.7 12.6 5.4 5.1 2.1 10.2 4 15.2 6.2 3.7 1.6 7.4 3.4 11.1 5.1.5.2.7 1 1.1 1.5-.6 0-1.3.2-1.8 0l-9.2-4.1c-6.3-2.8-12.7-5.6-19.1-8.4l-13-5.6c-.8-.3-1.4-.9-2.1-1.4.2-.1.3-.3.4-.5zm15.5-2.2c1.6.6 3.1 1.1 4.5 1.7 3.8 1.6 7.5 3.2 11.2 4.8 4.1 1.7 8.3 3.4 12.3 5.2.4.2.5 1 .8 1.5-.5.2-1 .7-1.4.5-2.3-.7-4.6-1.5-6.9-2.3l-12.8-5.1-7.7-2.9c-.2-.1-.5-.2-.7-.4-.5-.6-.9-1.2-1.4-1.9l2.1-1.1zm63.9-239.1c.8-.1 1.4-.2 2.1-.2 1-.1 1.5.3 1.5 1.4 0 7 0 14-.1 21 0 .5-.2 1-.3 1.4-2.7-.1-3-.5-3-2.9v-17.5c.2-1 0-1.9-.2-3.2zm-207.4 339.3l.9-1.9c1.6 1.4.6 3 .8 4.3-1 .1-1.8.1-2.6.2.6.8 1.2 1.5 1.7 2.2-2.1.7-2.1.7-2.8-1.8-.1-.5-.8-.9-1.4-1.6-.9 2.2 2.7 4.2-.6 5.7-.5-.5-1-1.1-1.7-1.8-.5.5-.8.9-1.2 1.3l-.3-.1.2-1.2c.1-.5.4-1.1.4-1.6-.2-2.3-.2-2.3 1.8-4.3.1.5.2 1 .4 1.9.9-1 1.5-1.7 2.2-2.5.4-.4.8-.8 1.3-1.2l.5 1.5c.1.2.2.4.4.9zm13.4 7.4c-.1.3-.4 1-.9 1.7-.6.9-1.4 1.1-2.2.1-.8-.9-1.5-1.9-2.2-2.9l-.5.5c-.1 0-.3 0-.4.1-.5.4-.9.8-1.4 1.1 0 0-.6-.5-.5-.6.3-.5.8-1 1-1.6.2-.6.2-1.3.1-1.8l-1.1-1.6c-.9-2.2-.2-3.6 1.9-4.3.3-.1.9.2 1.1.4.2.3 0 1.1-.1 1.1-1.6.3-1.1 1.4-.8 2.2.6 1.4 1.2 2.8 2.2 3.9.9.8 2.3 1 3.8 1.7zm142.9-209l4.2-.9c.7-.1 1.5-.1 2.3-.1 1.4 0 2.7-.1 2.5-2.4 2.2 2.5 4.5 1.5 6.8 1.2.8-.1 1.7-.3 2.5-.2.6.1 1.1.6 1.6.9-.6.4-1.1 1-1.7 1-1 .1-2-.2-3-.2-1.1 0-2.3.2-3.5.4.1.6.2 1 .3 2-3.9-2.7-7.9-.5-11.8-1-.2-.1-.2-.4-.2-.7zm-164.5 112.9c1.1-1.4 1.9-.7 2.6 0 2.6 2.9 5.2 5.9 7.9 8.7 1.3 1.4 3 2.5 4.5 3.8.3.3.7.6.9.9.1.3 0 .8 0 1.2-.4 0-1 .1-1.2-.2-1.4-1.4-2.8-2.8-4.1-4.2-.8-.8-1.5-1.7-2.3-2.4-1.9-1.6-3.9-3.1-5.7-4.8-1.1-.8-1.8-1.9-2.6-3zm166.1-31.8c3.9 0 17 4.9 17.9 6.7-6.3-.2-16.7-4-17.9-6.7zm-130.5 178.4c.9-.1 1.7-.1 2.4-.2v.7c-1.3 0-2.6-.1-3.8 0-1.9.2-1.7-1.5-2.5-2.4-1.2-1.4-2.7-2.6-3.7-4-.8-1-1.1-2.3-1.6-3.5.3-.2.6-.4.9-.5 1.5 2.1 3.1 4.2 4.7 6.4.4-.7.8-1.2 1.2-1.8.4.9.6 1.6 1.1 2.3.4.6 1 1 1.8 1.8 0-.1-.2.5-.5 1.2zm135.8-185.2c.7.1 1.3.2 2 .4 3.2.9 6.5 1.8 9.7 2.8.7.2 1.2 1.1 1.8 1.6-.8.2-1.6.8-2.2.6-3.5-1.1-7-2.4-10.5-3.7-.5-.2-.8-.9-1.1-1.3.1-.1.2-.2.3-.4zm1.2 86.3c-6.3 2-12.6 4-19.2 6 1.1-2.2 16.3-7.2 19-6.6l.2.6zm11.2-156.3c-.5.4-.9.7-1.3 1.1l1 .7-.1.5c-1.2-.1-2.5-.4-3.7-.4l-6.8-.2h-2.8v-1c4.5-1.2 9.1-1.1 13.7-1.2-.1.1-.1.3 0 .5zm-169.8 115.6l-1.6-1.4c-2.4-2.1-4.2-4.9-7.4-6.1-.8-.3-1.1-2-1.6-3l1.7-2c1.9 5.1 6.4 8 9.4 12.1-.2.1-.3.2-.5.4zm-24.9 85c.5.1 1.2 0 1.5.2 1.4 1.5 2.8 3.2 4.1 4.8 1.3 1.6 2.5 3.2 3.7 4.8.3.5.4 1.2.8 2.2-.9-.4-1.3-.4-1.5-.6l-5-6.7c-.6-.8-1-2-2.5-1.4-.1 0-.9-1.2-1.1-1.9-.3-.3-.1-.9 0-1.4zm9.9-120c1 .9 1.9 1.6 2.8 2.3 2.4 1.9 4.8 3.9 7.1 5.8.3.2.2.9.2 1.3-.4-.1-1-.1-1.3-.3-2.5-2-5.1-4-7.5-6.1-.9-.7-2.3-1.5-1.3-3zm186.7-106.3c-.6.2-1 .4-1.5.4h-4.4c-2.4 0-2.4 0-3.3 1.7-1.3-.9-2.6-1.8-3.9-2.6 1.6-.9 11.6-.7 13.1.5zm-245.1 281.2c.8-.4 1.3-.7 1.6-.7 1.6.2 2.7-.2 2.4-2.1 2.4-1 .8-3 1.2-4.5.2-.8 1.1-1.5 1.7-2.2l.7.3-.5 4.2c-.2 1-.4 2-.7 2.9-.1.3-.1.7-.3.9-1.5 1.4-2.8 1.7-6.1 1.2zm61.7-46.3c-.8.4-1.7 1-2.5 1-.6 0-1.2-1-1.6-1.7-.8-1.1-1.5-2.3-2.3-3.6 3-1 3.7-.7 4.6 1.7.3.7.8 1.3 1.3 2 .2.3.4.5.5.6zm182.7-227.2c-2.7.6-5.5-2.7-7.8.2-1.2-.6-2.5-1.3-3.8-1.9 1.8-1.8 10.1-.7 11.6 1.7zm-155.1 175.3c-.6 0-.8.1-.9 0-1.4-1.3-2.8-2.6-4.1-4.1-.3-.3 0-1.7.4-1.9.6-.3 1.7-.2 2.1.2 1 .9 1.8 2.1 2.4 3.3.3.7.1 1.7.1 2.5zm10.2-22.1c-.6-.8-1.3-1.7-1.9-2.6-.1-.1.7-.9 1.1-1 1.5 0 3.1.1 4.6.2.5 0 1 .4 1.4.6-.3.4-.6 1-1 1.2-1.1.6-2.4.9-4.2 1.6zm-34.5-.3c-1.5-1.2-2.7-2.1-3.9-3.1-1.1-.9-1.1-1.9.1-2.7.2-.2 1.2.1 1.2.2.1 1.7 1.7 1.9 2.6 2.8 1.5 1.6 1.5 2.1 0 2.8zm-3.7 81.2c.5 1.3.9 2.3 1.4 3.4-.2.1-.4.2-.6.2-1.2-2-2.5-3.9-4-6.2 1.4.5 2.3.8 3.2 1.1v-2.6c1.7-.2 1.7-.2 2.3 2.6-.8.5-1.6 1-2.3 1.5zm.1 8c-.8-1-1.5-2-2.3-2.9-1.5-1.8-3-3.5-4.4-5.3-.2-.3-.1-.9-.1-1.4.5.2 1.1.4 1.4.7 1.6 1.8 3.1 3.6 4.6 5.5.7.8 1 1.9 1.6 2.8-.3.3-.6.4-.8.6zm-1.4-120.5c.2.5.4.8.6 1.2-.8.5-2.1-.7-2.1-1.9 0-.4.1-.7.1-1.2h-1.8c.2-.7.3-1.3.5-1.9.2-.6.4-1.2.8-2.1 1.2 2.1 2.2 3.6 3.3 5.5-.4.1-.8.2-1.4.4zm-56.4 132.8c1-.1 1.9-.2 2.7-.4.3.8.6 1.7 1 3-.1.2-.3.8-.6 1.3-.4.5-.9.9-1.3 1.3-.3-.5-.9-.9-1-1.4-.4-1.3-.5-2.6-.8-3.8zm77.9-68c-2.2.2-4.8-2.6-4.3-4.5.3-1.1 1.2-1.1 1.9-.5.6.6 1 1.4 1.4 2.2.4.8.6 1.7 1 2.8zm-.5-25.4c-1.1.9-1.8 1.1-2.6 0-.8-1-2-1.7-3-2.6-.4-.3-.7-.8-1-1.2.5-.4.9-1 1.5-1.1.4-.1 1.3.3 1.4.6.3 2.1 1.8 3.2 3.7 4.3zm6.5 101.1c-1.9-.3-3.8 1.3-5.1-.8-.5-.8-2.1-1.9-.3-3.3.4.9.6 1.6 1 2.3.6 1 1.2.9 1.9.1.4-.5.8-1 1.3-1.5l.9 1.8c.1.3.1.6.3 1.4zm95.6-258.5c1.4-1.5 8.4-2.7 10.1-1.7-3.5 1.3-6.8 1.4-10.1 1.7zm-105.5 196.9c-.4.5-1 1.4-1.3 1.4-1.5-.3-3-.9-4.5-1.4.3-.3.8-.9 1-.8 1.4.5 2.4.4 2.6-1.3 0-.1 1.1-.2 1.3 0 .4.4.6 1.2.9 2.1zm-2.2-22.9c-.6.1-1.4.6-1.7.4-.9-.8-1.8-1.8-2.4-2.8-.2-.3 0-1.3.3-1.5.3-.2 1.2-.1 1.5.2.9.9 1.6 2 2.4 3 0 .2-.1.4-.1.7zm8.8 77.1c-.5.5-.7.9-1 1.1-.3.2-.7.3-1 .4l-2.5.6 1.1-2.1c.1-.2.3-.4.4-.7l1-1.9c.5.9 1.2 1.7 2 2.6zm107.3-294.3v10.9c-1.4-2.3-1.3-9.6 0-10.9zm1.1 46.2c-1.1 1.1-5.2 1.8-6.1 1.1-.2-.2-.3-1-.1-1.2.9-1 4.9-.9 6.2.1zm-128.4 169.4c-1.3-1.8-2.4-3.1-3.3-4.5-.2-.3.1-1 .1-1.5.4.2.8.4 1.2.7 1.4 1 2.6 2.1 2.4 4 0 .2-.1.4-.4 1.3zm24.5 97.4c-2.8-.9-5.9-5-5.8-7.5 2 2.5 3.8 4.8 5.8 7.5zm143.8-267.7h9.3v.7h-9.3v-.7zm10.7 18.1c-2.7.5-5.4 1-8.4 1.5 1.1-1.7 6.3-2.7 8.4-1.5zm-174.3 181.7c1.9 1.4 4.4 2.1 3.2 5.3-1.3-1.3-2.5-2.5-3.6-3.8-.1-.2.3-.9.4-1.5zm160.9-196.7c3.1-1.1 6.3-1.4 9.5-1.2 0 .2 0 .4.1.5l-9.5 1.3c-.1-.2-.1-.4-.1-.6zm-151.7 240.8c.5 1 1 2 1.4 3 .1.3-.4 1.1-.6 1.1-.5.1-1.3 0-1.7-.4-1.3-1.4-1.1-2.4.9-3.7zm21.9 2.6c-.9-1.3-1.7-2.5-2.5-3.7-.2-.2-.1-.7.1-1 .1-.2.6-.2.8-.2 2.6.7 3.3 2.7 1.6 4.9zm3.7 4.3c-.6-1.1-1.2-2.2-1.6-3.4-.1-.4.6-1.1 1-1.6.4.4 1.1.7 1.2 1.2.3 1.2.3 2.4.4 3.6-.4 0-.7.1-1 .2zm-55.5-141.7c1.7-.9 2.8-.6 4.1 1.2-2.1 2.1-2.9 1.9-4.1-1.2zm35.4 124.8c-.5-1.9-.9-3.2-1.2-4.7 1.8-.3 2.8.5 3.3 2.4-.5.6-1.2 1.3-2.1 2.3zm-13.4-7.1c2.3-1.6 2.8-1.6 4.2.5.2.2-.1.8-.2 1.2l-4.2-1c.1-.2.2-.4.2-.7zm6-66.5c-2.3-.1-3.4-1.4-2.7-3.4.1-.3.7-.4 1.1-.6.3 1.4 2.4 2.1 1.6 4zm-69.3 80.8c-.8 1.1-1.4 2-2.2 2.7-.3.3-1.1.2-1.7.3 0-.5-.2-1.1 0-1.6.7-1.5 2-1.7 3.9-1.4zm66.9-92.6c-.4.5-.7.9-1 1.3-.3-.4-.6-.7-.8-1.1-.4-.4-.9-.8-1-1.3-.2-.5 0-1.1.1-1.7.6.1 1.4.1 1.7.4.4.7.6 1.5 1 2.4zm33.7 111c.6 1.2 1.2 2.3 1.7 3.5.1.2-.2.8-.5.9-.2.1-.9.1-1-.1-.8-1.2-1.7-2.5-1-4.1.3 0 .5-.1.8-.2zm-18.1-30.3c.9.7 1.5 1.2 2 1.7-.7.4-1.4 1-2.1 1-.6 0-1.3-.7-1.9-1.1.7-.4 1.2-.9 2-1.6zm-20-53.1c-.6-.4-1.3-.8-1.8-1.4-.6-.8-1-1.8.4-3 .8 1.3 1.4 2.5 2.1 3.6-.2.4-.4.6-.7.8zm-4.5 50.7c2.1 1.2 2.2 1.3 1 3.7-2.1-.5-2.4-1.7-1-3.7zm-9.3-67.6v-4.6c2.5 2.4 2.4 3.5 0 4.6zm-57.1 106.1c.4-1.8 1.1-2.7 2.3-2.4.4.1.6 1.2.9 1.8-.9.2-1.9.4-3.2.6zm68.2-44.7c-.1-1.2-.2-2.2-.3-3.7.9.5 1.9 1.1 3.1 1.8-1.1.7-1.9 1.2-2.8 1.9zm30 41.8c-.3-1.2-.6-2.2-.7-3.2 0-.3.2-.7.4-.9.1-.1.5 0 .7.1 1.1.7 1 2.8-.4 4zm-43.9-172.6c1.1-.4 2.1-.9 2.2-.7.7.8 1.1 1.9 1.7 2.8l-.6.5c-.9-.7-1.9-1.5-3.3-2.6zm20.8 150.9c.8.6 1.7 1.1 2.5 1.8.2.2 0 1-.2 1.3-.3.2-1.2.3-1.3.1-.6-.8-.9-1.8-1.4-2.7l.4-.5zm14.3-13.8c-.8.5-1.4 1.1-1.8 1-.5-.1-1.2-.8-1.2-1.3s.6-1.1 1-1.6c.5.6 1.1 1.1 2 1.9zm-16.5-173c-.4-1-.9-1.7-.7-1.9.5-.7 1.2-1.2 1.8-1.6.1-.1.8.6.8.7-.5.7-1.1 1.5-1.9 2.8zm-1 183.7c.7.3 1.4.5 1.9.9.4.2.6.7.9 1-.5.3-1 .8-1.4.7-1.4-.2-1.9-1.1-1.4-2.6zm-14.3-24.4c-1.7.1-.2 2.7-2.2 2.4-.4-.1-.8-.9-1.2-1.3 1-.5 2-1.1 2.9-1.6.2.1.4.3.5.5zm17-166.8l-3.6.7c.2-1 .3-1.8.5-3 1.1.8 1.9 1.4 3.1 2.3zm-62.7 213.3c1.6 1.7.8 3 .1 4.2-.3-1.3-1.8-2.6-.1-4.2zm65.6-122.6c1.8-1 2.6-.4 2.8.8.1.4-.3 1-.5 1.4-.8-.7-1.5-1.4-2.3-2.2zm3.1 118.8c2.9.6 3.5 1.5 2.4 3.5-.9-1.3-1.6-2.4-2.4-3.5zm25.1-150.9c-1.6-1.9-1.5-3.9 0-5.1v5.1zm-102.8 149.3c-.6-.3-.7-.3-.7-.4-.8-1.3-.3-2.4.6-3.4.1-.1.9.2.9.3-.2 1.2-.5 2.3-.8 3.5zm9.2-7.5c1.6 1.3 1.4 2.7-.6 4 .2-1.3.3-2.5.6-4zm233-128.4c-.2-.1-.5-.2-.5-.3l-.3-2.8c.4 0 1 0 1.1.2.6 1 .8 2-.3 2.9zm-231.7 137.1c-.4.8-.8 1.6-1.2 2.5-1.5-.4-1.3-1.5-.9-2.2.2-.5 1.2-.6 1.8-.9 0 .1.2.4.3.6zm229.1-230.6c.5-.3.9-.9 1.4-.9.8 0 1.5.3 2.3.5l-.2.7h-3.2c-.1 0-.2-.1-.3-.3zm.9-3.3c-1.1 1.4-2.7.7-4 .8l-.1-.7 4-.9c0 .3.1.6.1.8zm-157.8 139.8l-1.2 1.3c-.4-.5-.9-1-1-1.5-.1-.4.6-.9.9-1.3.3.3.7.8 1.3 1.5zm0 60.8c-.6-.7-1.2-1.2-1.2-1.6 0-.4.7-.9 1.1-1.3.4.5 1 .9 1.1 1.5.2.2-.5.7-1 1.4zm-13.2-43.1c.8.3 1.7.6 2.4 1 .1.1-.2.9-.4 1.4l-2.5-1.5c.2-.3.4-.6.5-.9zm-1.1 6.2c-1.3 1.1-2.1 1.8-2.9 2.4-.2-.1-.4-.2-.6-.4.4-.8.8-1.6 1.3-2.2.4-.2 1.2.1 2.2.2zm10.3 51.3v3.5c-.8-.9-1.7-1.4-1.7-1.8.1-.7.7-1.4 1.1-2.1.3.2.4.3.6.4zm-11-1.5c-2.1-1.1-2.2-2.1-.4-3.9.2 1.3.3 2.4.4 3.9zm36.3 24.1c-.6-.7-1.2-1.4-1.7-2.1-.1-.1.1-.7.3-.8.3-.1.9-.1 1 .1.5.8.8 1.6 1.2 2.4-.3.1-.5.2-.8.4zm-92.7 4.7c.5-.4 1.1-.8 1.6-1.1.1-.1.2 0 .7 0-.1 1-.1 1.9-.3 3.4-.8-1-1.4-1.6-2-2.3zm104.6 3.9h-4.3c.5-1.1 2.6-1.2 4.3 0zm-63.7-155.4c.9-1.1 1.5-1.9 2.1-2.7l.6.3c-.2.9-.3 1.8-.5 2.9-.7-.2-1.2-.3-2.2-.5zm166.1-183.9c0-.9-.1-1.8.1-2.6 0-.2.9-.3 1.7-.5-.6 1.3-1 2.2-1.4 3.1-.1.1-.2.1-.4 0zm-114.4 325.4l.3-3.1c.2 0 .4 0 .7.1.6 1.1 1 2.2-.2 3.2-.2-.1-.5-.2-.8-.2zm-15.8-16.9c-.2.9-.4 1.8-.6 2.8-.3-.1-.6-.1-.8-.2-.3-1-.7-2.1.6-2.8.2 0 .5.1.8.2zm-15.4-179.2c-.6-.7-1.2-1-1.2-1.4 0-.4.6-1 1-1s1 .5 1.1 1c.1.3-.5.8-.9 1.4zm17.9 178.5c-.5-.6-1-1.1-1.3-1.7-.1-.1.6-.6.9-1l1.2 2.1c-.2.2-.5.4-.8.6zm-21.3-50.9c.8 1.1 1.3 1.9 1.9 2.7-1.9.3-2.4-.4-1.9-2.7zm6.8 13.3l2.1-.6c.1.4.2 1.1.2 1.1-.7.2-1.4.3-2.1.4 0-.2-.1-.6-.2-.9zm-16.3-98.5c.8.6 1.6 1.2 2.4 1.9l-.6.8-2.3-1.8c.2-.4.3-.7.5-.9zm12.9 149.2c-.5-.8-1-1.7-1.4-2.5l.7-.4 1.6 2.5c-.3.1-.6.2-.9.4zm22.1-2c-.6-.3-1.2-.6-1.7-1.1-.1-.1.2-.7.3-1.1l1.8 1.2c0 .3-.2.6-.4 1zm-7.6-5.9c-.7.5-1.1.9-1.4.9-.4 0-.7-.5-1.1-.8.3-.4.6-1 .9-1 .3 0 .8.4 1.6.9zm38.8-284c-3.2-4-7.1-7.5-9.2-12.4 3.4 3.8 7.7 7.1 9.2 12.4zm4.9-12.8c-4.7-3.5-9-7.5-12.4-12.5.4-.2.7-.3.8-.3 1.9 1.8 4.2 3.2 5.5 5.8.7 1.5 2.3 2.5 3.5 3.7 1 1 2.1 1.8 3.2 2.7l-.6.6zm6.9 16c-2.9-3.7-5.6-7-8.2-10.3l.4-.4 1.5 1.3c1.1 1 1.5 2.9 3.6 2.7.3 0 .8 1.2 1.1 1.9.5 1.4 1 3 1.6 4.8zm-9.3-11.8c-3.5-2.8-6.5-6-9-9.8l.5-.4 9 9.7-.5.5zm-16.3-27.2l-2.1-1.3c-.7.4-1.4 1.2-2.2 1.3-.6.1-1.2-.8-1.8-1.2.5-.4.9-1 1.5-1.1.8-.2 1.8-.2 2.6-.3 1.6-.1 2.2.8 2.5 2.1-.1.2-.3.3-.5.5zm7.3 41.5c.6-1.2 1.1-2.3 1.9-3.9.5 1.3 1.2 2.4 1 3.2-.1.6-1.6.8-2.5 1.2-.1-.2-.3-.4-.4-.5zm13.5 4.7c-3-.7-3.1-.8-3.2-3.9 1.4 1.3 2.6 2.3 3.7 3.4l-.5.5zm27.3 37c-1.3.3-2.6.6-3.8.9l-.2-.9 3.8-1c0 .3.1.7.2 1zm-51.6-53.3c.1-.7 0-1.5.3-2.2.1-.3.6-.5 1-.8.2.4.6.9.5 1.2-.2.7-.7 1.3-1.1 2-.3-.1-.5-.2-.7-.2zm12.7 13l.4 3.2-.4.1c-.5-.6-1-1.2-1.7-2 .3-.4.6-.9 1-1.3h.7zm-1.4 48.1c.3 2.2.5 4.3.8 6.6 2.1.2 3.3-2.8 5.7-1.4-.3.4-.4.9-.7 1-1.8.6-1.5 2.1-1.5 3.5s0 2.8-.3 4.3l-.3-.8c-.7-2.2-1-2.3-2.7-.7-.4.3-.9.4-1.4.6-.2-.9-.4-1.8-.4-2.7 0-.1.9-.3 1.4-.3.8-.1 1.7.2 2.2-.1.4-.3.3-1.3.4-2.6-3.1 1.3-5.7 2.4-8.3 3.4-.4.2-.9.1-1.3.2.2-.5.2-1.1.5-1.5.2-.2.7-.3 1.1-.3 3.4-.8 4.2-2.1 3.9-5.6-.1-1.1.1-2.3.2-3.4.2-.2.4-.2.7-.2zm23.9-14.9c.3 5.9 1.9 11.8.4 17.8h-.5c-.2-5.9-.5-11.8-.7-17.8h.8zm-15.8 30.1c-.9.3-1.4.5-2.5.8.8-1.3 1.2-2.3 1.9-3 .8-.8 1.4-.3 1.5.7.1 1.1.2 2.3.3 3.5.6.2 1.1.3 1.6.5.1.2.1.4.2.5-.6.2-1.2.6-1.8.6-.3 0-.6-.9-.7-1.4-.4-.7-.4-1.4-.5-2.2zm-.6 52.7c-2.3-1.5-4.5-3-7.1-4.8 3.9-.3 7.6 2.7 7.1 4.8zm-11.3-8.9c.5-.7.8-1.2 1.2-1.8l1.2 1.5v.2c0 1-.1 2-.2 2.9 0 0-.7.1-.8 0-.4-.8-.9-1.7-1.4-2.8zm16.4-26.7c-.6-1-1-1.5-.9-1.6.8-.9 1.8-1.7 2.7-2.5.3.4.9 1 .8 1.1-.7.9-1.5 1.7-2.6 3zm1-22.1c1.5 1.9.6 3.5.1 5.1-.1.4-1 .6-1.5.8l-.3-.4c.5-1.7 1.1-3.4 1.7-5.5zm-2.1-2.1c.7-1.7 1.3-3.1 2-4.7 1.5 2.3.8 4-2 4.7zm-6.5 55.1c-.8-.3-1.7-.4-2.3-.9-.4-.3-.5-1-.7-1.6.6 0 1.3-.3 1.8-.1.7.4 1.2 1.2 1.7 1.8-.2.3-.3.6-.5.8zm14.2-57.5c.7 2.1-.2 3.6-2.7 4.5 1.1-1.8 1.9-3.2 2.7-4.5zm4.4 5c.4-.4.7-.6 1-.9.3 1 .6 1.9.8 2.9 0 .2-.5.5-.7.8-.4-.8-.7-1.7-1.1-2.8zm110.3-11.5c-.9.9-1.5 1.5-2.2 2.1-.3-.6-1-1.3-.9-1.8.4-1.4 1.4-1.2 3.1-.3zm-93.4-30.7c-.2-.9-.4-1.7-.4-2.6 0-.5.7-.9 1-1.3.3.5.8 1 .8 1.5-.2.9-.7 1.7-1 2.5-.2 0-.3-.1-.4-.1zm38.8-70.5c.2 1.9 3.4 1.5 1.9 3.8-.3.4-1.4.8-1.7.6-1.4-1-1.4-2.4-.2-4.4z"/></svg>